<?xml version="1.0" standalone="no"?>
<!DOCTYPE svg PUBLIC "-//W3C//DTD SVG 1.1//EN" "http://www.w3.org/Graphics/SVG/1.1/DTD/svg11.dtd" >
<svg xmlns="http://www.w3.org/2000/svg" xmlns:xlink="http://www.w3.org/1999/xlink" version="1.1">
<metadata>
Created by FontForge 20190801 at Fri Oct  7 08:18:10 2005
 By Jimmy Wärting
Copyright c 2005 FONTRIX All Rights Reserved.
</metadata>
<defs>
<font id="RixJGoL" horiz-adv-x="1000" >
  <font-face 
    font-family="RixJGo L"
    font-weight="400"
    font-stretch="normal"
    units-per-em="1000"
    panose-1="2 2 6 3 2 1 1 2 1 1"
    ascent="800"
    descent="-200"
    x-height="519"
    cap-height="671"
    bbox="-7 -275 913 900"
    underline-thickness="25"
    underline-position="-212"
    unicode-range="U+0020-FFE6"
  />
<missing-glyph horiz-adv-x="900" 
d="M100 -100v800h700v-800h-700zM150 -50h600v700h-600v-700z" />
    <glyph glyph-name=".notdef" horiz-adv-x="900" 
d="M100 -100v800h700v-800h-700zM150 -50h600v700h-600v-700z" />
    <glyph glyph-name="glyph1" horiz-adv-x="0" 
 />
    <glyph glyph-name="glyph2" 
 />
    <glyph glyph-name="space" unicode=" " horiz-adv-x="300" 
 />
    <glyph glyph-name="exclam" unicode="!" horiz-adv-x="389" 
d="M243 729h-96l11 -518h75zM245 -5v101h-100v-101h100z" />
    <glyph glyph-name="quotedbl" unicode="&#x22;" horiz-adv-x="481" 
d="M387 769h-95l10 -230h75zM190 769h-94l10 -230h74z" />
    <glyph glyph-name="numbersign" unicode="#" horiz-adv-x="556" 
d="M195 262l30 216h141l-31 -216h-140zM479 186v76h-71l31 216h74v76h-64l22 155h-73l-22 -155h-140l21 155h-73l-21 -155h-90v-76h79l-30 -216h-82v-76h72l-27 -195h73l27 195h139l-27 -195h73l27 195h82z" />
    <glyph glyph-name="dollar" unicode="$" horiz-adv-x="556" 
d="M257 637v-197q-37 21 -62 45.5t-25 60.5q0 39 27 60.5t60 30.5zM313 79v221q33 -21 55.5 -48t22.5 -67q0 -39 -24 -65t-54 -41zM483 189q0 46 -15.5 80t-39.5 60q-24 25 -54.5 44.5t-60.5 36.5v233q36 -1 70 -8t73 -21l9 82q-33 12 -77 18t-75 7v67h-56v-70
q-78 -12 -127.5 -60.5t-49.5 -120.5q0 -44 15.5 -75.5t41.5 -55.5q25 -23 56.5 -41t63.5 -34v-270q-8 -2 -14.5 -2.5t-12.5 -0.5q-24 0 -48.5 4t-47.5 9q-22 5 -40 10.5t-28 8.5l-9 -81q16 -5 34 -10.5t38 -9.5q19 -5 39.5 -7.5t41.5 -2.5q12 0 23.5 0.5t23.5 1.5v-60h56v69
q74 18 122 66.5t48 132.5z" />
    <glyph glyph-name="percent" unicode="%" horiz-adv-x="920" 
d="M875 177q0 38 -8 75t-27 66q-20 29 -53.5 47t-84.5 18q-47 0 -79.5 -17t-52.5 -44q-21 -28 -30 -64t-9 -74q0 -39 9 -76t30 -66q20 -29 52.5 -46.5t79.5 -17.5q51 0 84.5 16.5t53.5 44.5q19 28 27 63.5t8 74.5zM781 184q0 -20 -2.5 -44.5t-10.5 -45.5q-8 -22 -23.5 -36
t-42.5 -14q-25 0 -40 13.5t-24 33.5q-8 21 -11 44t-3 42q0 18 3 42.5t11 45.5q9 22 24 37t40 15q27 0 42.5 -13.5t23.5 -33.5t10.5 -43.5t2.5 -42.5zM705 721h-74l-413 -742h74zM385 515q0 38 -8 75t-27 66q-20 29 -53.5 47t-84.5 18q-47 0 -79.5 -17t-52.5 -44
q-21 -28 -30 -64t-9 -74q0 -39 9 -76.5t30 -66.5q20 -29 52.5 -46.5t79.5 -17.5q51 0 84.5 16.5t53.5 44.5q19 28 27 64t8 75zM291 522q0 -20 -2.5 -44.5t-10.5 -46.5q-8 -21 -23.5 -35.5t-42.5 -14.5q-25 0 -40 13.5t-24 34.5q-8 20 -11 43.5t-3 42.5q0 18 3 42.5t11 45.5
q9 22 24 37t40 15q27 0 42.5 -13.5t23.5 -33.5q8 -21 10.5 -44t2.5 -42z" />
    <glyph glyph-name="ampersand" unicode="&#x26;" horiz-adv-x="722" 
d="M683 -9l-125 137q23 34 43 95.5t29 153.5h-83q-5 -68 -18 -114.5t-31 -73.5l-155 183q27 10 56 28.5t52 42.5q24 24 39.5 53t15.5 62q0 83 -48 123t-114 40q-76 0 -123 -43t-47 -128q0 -47 19.5 -88t42.5 -72q-66 -27 -112.5 -77.5t-46.5 -136.5q0 -84 55.5 -140.5
t159.5 -56.5q72 0 123.5 20t89.5 65l66 -73h112zM423 557q0 -25 -11 -46.5t-28 -38.5q-16 -17 -35.5 -30t-35.5 -20q-24 26 -42.5 59t-18.5 71q0 48 24.5 75t61.5 27q38 0 61.5 -22.5t23.5 -74.5zM453 120q-8 -9 -20 -22t-29 -25t-39 -20.5t-49 -8.5q-29 0 -55 10t-46 28
q-20 19 -32 44.5t-12 57.5q0 56 31 89.5t73 63.5z" />
    <glyph glyph-name="quotesingle" unicode="'" horiz-adv-x="278" 
d="M186 759h-94l10 -230h74z" />
    <glyph glyph-name="parenleft" unicode="(" horiz-adv-x="333" 
d="M316 -137q-29 51 -57.5 105t-50.5 111q-22 56 -35.5 114.5t-13.5 117.5q0 56 14 114t37 115q22 57 50 112t56 107h-75q-33 -53 -63 -106.5t-53 -108.5q-23 -56 -36.5 -114t-13.5 -119q0 -63 13.5 -122t36.5 -114q23 -56 53 -108.5t63 -103.5h75z" />
    <glyph glyph-name="parenright" unicode=")" horiz-adv-x="333" 
d="M258 311q0 60 -14 118.5t-36 114.5q-23 56 -53 110t-63 105h-75q29 -51 57 -106.5t50 -112.5t36 -115t14 -114q0 -59 -14.5 -117.5t-36.5 -114.5q-23 -56 -51 -110.5t-55 -105.5h75q32 52 62 104.5t53 107.5t37 113t14 123z" />
    <glyph glyph-name="asterisk" unicode="*" horiz-adv-x="500" 
d="M477 538l-27 85l-166 -71l15 182h-89l17 -182l-174 71l-28 -85l186 -37l-127 -141l75 -49l92 159l93 -159l75 49l-122 141z" />
    <glyph glyph-name="plus" unicode="+" horiz-adv-x="600" 
d="M550 329v72h-208v216h-84v-216h-208v-72h208v-218h84v218h208z" />
    <glyph glyph-name="comma" unicode="," horiz-adv-x="278" 
d="M201 90h-99l-62 -243h79z" />
    <glyph glyph-name="hyphen" unicode="-" horiz-adv-x="450" 
d="M395 328v72h-340v-72h340z" />
    <glyph glyph-name="period" unicode="." horiz-adv-x="278" 
d="M189 -41v111h-100v-111h100z" />
    <glyph glyph-name="slash" unicode="/" horiz-adv-x="450" 
d="M389 731h-81l-247 -792h81z" />
    <glyph glyph-name="zero" unicode="0" horiz-adv-x="556" 
d="M512 351q0 55 -10 120t-36 121q-27 56 -72 93.5t-116 37.5q-73 0 -118.5 -38t-70.5 -94q-27 -57 -36 -121.5t-9 -118.5q0 -59 11 -125t38 -121q26 -56 71 -92t114 -36q71 0 115.5 36.5t71.5 93.5q27 56 37 121.5t10 122.5zM420 351q0 -42 -6 -94.5t-22 -98.5t-43.5 -77
t-70.5 -31q-46 0 -74 31t-43 77q-15 45 -20 98t-5 95q0 39 7 90t24 98q17 46 44 78.5t67 32.5q42 0 70 -33t44 -80q15 -47 21.5 -98.5t6.5 -87.5z" />
    <glyph glyph-name="one" unicode="1" horiz-adv-x="556" 
d="M360 -9v718h-71l-170 -124v-103l158 131v-622h83z" />
    <glyph glyph-name="two" unicode="2" horiz-adv-x="556" 
d="M491 -8v71h-357q17 16 33 30t31 27t29.5 26t29.5 28q28 27 66.5 67.5t73.5 87.5q35 46 59.5 95.5t24.5 95.5q0 48 -18 84.5t-48 61.5q-31 24 -73 37t-91 13q-45 0 -91.5 -15.5t-87.5 -33.5l10 -75q27 17 71.5 35t93.5 18q63 0 102.5 -34.5t39.5 -82.5q0 -47 -23.5 -95
t-55.5 -91q-33 -43 -68.5 -79t-59.5 -58q-18 -17 -33.5 -30t-30.5 -25t-30.5 -25.5t-33.5 -29.5v-103h437z" />
    <glyph glyph-name="three" unicode="3" horiz-adv-x="556" 
d="M491 179q0 78 -50 126.5t-121 64.5v2q61 11 104 53.5t43 104.5q0 99 -63 146t-166 47q-40 0 -82.5 -8.5t-75.5 -20.5l6 -80q28 16 62 27t84 11q57 0 100.5 -25.5t43.5 -90.5q0 -38 -18.5 -62.5t-44.5 -38.5q-26 -15 -56 -20.5t-53 -5.5h-53v-71h58q33 0 67.5 -8.5
t61.5 -27.5q28 -19 45.5 -48.5t17.5 -71.5q0 -36 -19 -61t-47 -42q-28 -16 -61.5 -23.5t-61.5 -7.5q-47 0 -88 13.5t-64 26.5l-7 -82q31 -12 70.5 -20.5t80.5 -8.5q52 0 103.5 9.5t92.5 33.5q40 23 65.5 62t25.5 97z" />
    <glyph glyph-name="four" unicode="4" horiz-adv-x="556" 
d="M529 139v73h-88v497h-130l-291 -500v-70h336v-148h85v148h88zM356 212h-240l238 437h2v-437z" />
    <glyph glyph-name="five" unicode="5" horiz-adv-x="556" 
d="M493 230q0 37 -16.5 74.5t-46.5 67.5t-71.5 48.5t-90.5 18.5q-34 0 -59.5 -3.5t-40.5 -7.5l7 208h298v73h-377l-6 -369q27 12 59.5 20t79.5 8q75 0 124 -40t49 -118q0 -34 -14.5 -63.5t-37.5 -50.5q-24 -22 -54.5 -34.5t-62.5 -12.5q-46 0 -83.5 11t-71.5 30l-3 -81
q23 -10 61.5 -20.5t92.5 -10.5q49 0 96 16.5t85 48.5q37 32 60 79t23 108z" />
    <glyph glyph-name="six" unicode="6" horiz-adv-x="556" 
d="M509 213q0 46 -14 88t-41 74t-66 51t-90 19q-48 0 -87 -17.5t-72 -58.5l-3 1q0 56 12.5 107t37.5 89q26 38 64.5 61t91.5 23q33 0 65 -7t59 -22l12 80q-26 7 -64.5 13.5t-76.5 6.5q-83 0 -137 -33.5t-87 -87.5q-32 -54 -45 -123t-13 -139q0 -69 9 -134t35 -116
q25 -51 71 -81.5t119 -30.5q43 0 82.5 17t70.5 48q30 31 48.5 75t18.5 97zM418 219q0 -30 -8.5 -60.5t-25.5 -54.5q-18 -24 -43.5 -39t-59.5 -15q-33 0 -58 17t-42 42q-16 26 -24.5 55.5t-8.5 54.5q0 30 9.5 57.5t28.5 48.5t45.5 34t60.5 13q31 0 54.5 -15t39.5 -38
t24 -49.5t8 -50.5z" />
    <glyph glyph-name="seven" unicode="7" horiz-adv-x="556" 
d="M489 641v68h-425v-71h339l-270 -647h92z" />
    <glyph glyph-name="eight" unicode="8" horiz-adv-x="556" 
d="M515 185q0 57 -33 112t-98 84q51 21 78 61t27 92q0 42 -16.5 77t-44.5 60q-29 26 -67.5 40t-83.5 14t-83.5 -14t-66.5 -40q-29 -25 -44.5 -60t-15.5 -77q0 -51 26 -91t76 -61q-68 -29 -98 -85.5t-30 -110.5q0 -44 16 -82t46 -67q30 -28 74 -44.5t100 -16.5q55 0 99.5 16
t74.5 45q31 28 47.5 66t16.5 82zM400 537q0 -21 -7.5 -42t-22.5 -39q-15 -17 -38.5 -28t-54.5 -11q-28 0 -50.5 11t-37.5 28q-16 18 -24.5 39t-8.5 42q0 18 7.5 39t22.5 39t38 30t53 12t53 -12t38 -30q16 -18 24 -39t8 -39zM423 195q0 -59 -37 -101t-109 -42q-34 0 -61 12
t-45 32q-19 21 -28.5 46.5t-9.5 52.5q0 29 10.5 55.5t30.5 46.5q19 20 45.5 32t57.5 12t58 -13.5t46 -34.5q20 -21 31 -47t11 -51z" />
    <glyph glyph-name="nine" unicode="9" horiz-adv-x="556" 
d="M499 362q0 58 -9 121.5t-34 115.5q-26 53 -71.5 87t-118.5 34q-43 0 -82 -16.5t-68 -47.5q-30 -30 -47 -73t-17 -95q0 -47 13 -89t39 -74q26 -33 64.5 -51.5t89.5 -18.5q42 0 80 13t77 49h4q0 -53 -15 -101t-42 -85q-28 -36 -67.5 -58t-88.5 -22q-33 0 -63 8.5t-57 21.5
l-13 -80q22 -8 62.5 -14.5t76.5 -6.5q82 0 137 33t88 87t47.5 122.5t14.5 139.5zM408 476q0 -61 -39 -104.5t-105 -43.5q-32 0 -55 15t-38 38q-15 22 -22 49.5t-7 51.5q0 30 7.5 59.5t24.5 52.5q16 23 41 38t60 15q32 0 57 -17.5t42 -43.5q16 -26 25 -56t9 -54z" />
    <glyph glyph-name="colon" unicode=":" horiz-adv-x="278" 
d="M189 464v111h-100v-111h100zM189 5v111h-100v-111h100z" />
    <glyph glyph-name="semicolon" unicode=";" horiz-adv-x="278" 
d="M189 464v111h-100v-111h100zM198 134h-98l-63 -243h79z" />
    <glyph glyph-name="less" unicode="&#x3c;" horiz-adv-x="540" 
d="M473 41v99l-336 224l336 224v99l-410 -287v-72z" />
    <glyph glyph-name="equal" unicode="=" horiz-adv-x="540" 
d="M477 442v75h-413v-75h413zM477 213v76h-413v-76h413z" />
    <glyph glyph-name="greater" unicode="&#x3e;" horiz-adv-x="540" 
d="M467 328v72l-410 287v-99l336 -224l-336 -224v-99z" />
    <glyph glyph-name="question" unicode="?" horiz-adv-x="500" 
d="M448 538q0 43 -18.5 77t-47.5 57q-30 24 -68 36.5t-77 12.5q-51 0 -99 -13.5t-75 -27.5l9 -86q27 17 69.5 31t93.5 14q48 0 85.5 -25.5t37.5 -79.5q0 -27 -9 -50t-22 -44q-14 -21 -29 -39t-28 -34q-31 -38 -44.5 -67t-13.5 -74v-44h83v39q0 27 12 56t36 57l38 44t34 47
q14 24 23.5 51.5t9.5 61.5zM304 -35v111h-101v-111h101z" />
    <glyph glyph-name="at" unicode="@" horiz-adv-x="800" 
d="M745 423q0 62 -26.5 116t-71.5 95q-45 40 -105.5 63.5t-128.5 23.5q-72 0 -137 -25t-114 -71q-49 -47 -78 -114t-29 -151t27.5 -151t77.5 -114q49 -47 118 -71.5t151 -24.5q88 0 165.5 44t124.5 117h-73q-34 -43 -90.5 -71.5t-120.5 -28.5q-67 0 -123 17.5t-97 54.5
q-41 36 -64 92t-23 133q0 64 20 119.5t58 96.5q37 40 89 63.5t116 23.5q59 0 108 -19t85 -53q35 -33 55 -80.5t20 -104.5q0 -35 -11.5 -69.5t-29.5 -61.5t-40.5 -43.5t-44.5 -16.5q-12 0 -15.5 8t-3.5 21q0 9 2.5 21t5.5 24l72 259h-71l-16 -54q-23 36 -51.5 51.5
t-62.5 15.5q-51 0 -91.5 -23t-68.5 -59q-29 -37 -43.5 -82.5t-14.5 -90.5q0 -32 10.5 -60.5t30.5 -50.5q19 -21 45.5 -34t58.5 -13q30 0 60.5 18t51.5 39h2q2 -28 19 -42.5t41 -14.5q30 0 69.5 17.5t75.5 52.5q36 34 61 86.5t25 121.5zM496 397q0 -28 -10.5 -59t-28.5 -57
q-18 -27 -42.5 -44t-53.5 -17q-39 0 -62 26.5t-23 68.5q0 27 10 56.5t29 53.5q19 25 45 41t58 16q31 0 54.5 -24.5t23.5 -60.5z" />
    <glyph glyph-name="A" unicode="A" horiz-adv-x="722" 
d="M705 -9l-298 718h-87l-303 -718h88l80 200h348l78 -200h94zM503 261h-289l145 380h3z" />
    <glyph glyph-name="B" unicode="B" horiz-adv-x="611" 
d="M565 184q0 40 -15 73t-39 56t-55 36.5t-64 15.5v2q67 18 98 59.5t31 104.5q0 90 -61.5 134t-184.5 44h-176v-718h185q139 0 210 45.5t71 147.5zM438 523q0 -42 -17.5 -66t-44.5 -37q-26 -12 -57 -15t-58 -3h-79v236h118q21 0 45 -6t45 -19q20 -14 34 -36t14 -54zM472 191
q0 -38 -16 -62.5t-42 -39.5t-60.5 -21t-71.5 -6h-100v266h105q34 0 67 -5.5t60 -20.5q26 -15 42 -41.5t16 -69.5z" />
    <glyph glyph-name="C" unicode="C" horiz-adv-x="611" 
d="M582 8l-7 89q-27 -18 -71.5 -28.5t-80.5 -10.5q-54 0 -103.5 21t-87.5 60t-60.5 93t-22.5 119q0 60 20 113t57 93q37 39 89 62t115 23q39 0 75 -12.5t66 -30.5l9 89q-38 17 -76.5 25t-80.5 8q-77 0 -143 -28t-115 -77q-49 -48 -77 -114.5t-28 -142.5q0 -81 25.5 -150.5
t72.5 -120.5q48 -51 114.5 -80t149.5 -29q27 0 73 4.5t87 24.5z" />
    <glyph glyph-name="D" unicode="D" horiz-adv-x="722" 
d="M656 358q0 71 -23 135t-67 112t-108 76t-147 28h-212v-718h212q88 0 153 26.5t108 75.5q42 49 63 116.5t21 148.5zM567 353q0 -138 -64 -210.5t-203 -72.5h-118v560h134q57 0 103.5 -20t78.5 -56q33 -37 51 -88t18 -113z" />
    <glyph glyph-name="E" unicode="E" horiz-adv-x="556" 
d="M484 630v79h-385v-718h384v79h-301v254h279v79h-279v227h302z" />
    <glyph glyph-name="F" unicode="F" horiz-adv-x="500" 
d="M463 630v79h-364v-718h83v333h269v79h-269v227h281z" />
    <glyph glyph-name="G" unicode="G" horiz-adv-x="722" 
d="M634 8v368h-249v-71h163v-234q-10 -2 -18.5 -4t-21.5 -4t-32.5 -3t-49.5 -1q-54 0 -103.5 19.5t-87.5 56.5q-37 36 -59.5 88t-22.5 117q0 60 20 115t57 96q36 42 86.5 66.5t110.5 24.5q72 0 116.5 -13.5t80.5 -39.5l8 95q-21 8 -41 15t-43 12q-24 4 -53 7t-68 3
q-77 0 -143 -29.5t-115 -80.5q-49 -50 -77 -118t-28 -144q0 -82 25.5 -150t72.5 -117q48 -49 114.5 -76t149.5 -27q91 0 140.5 10.5t67.5 18.5z" />
    <glyph glyph-name="H" unicode="H" horiz-adv-x="722" 
d="M623 -9v718h-83v-306h-358v306h-83v-718h83v333h358v-333h83z" />
    <glyph glyph-name="I" unicode="I" horiz-adv-x="302" 
d="M192 -9v718h-83v-718h83z" />
    <glyph glyph-name="J" unicode="J" horiz-adv-x="389" 
d="M288 177v532h-83v-514q0 -38 -7 -65t-22 -44q-15 -18 -38 -25.5t-56 -7.5q-12 0 -27.5 2.5t-32.5 8.5v-72q10 -6 28.5 -9.5t40.5 -3.5q57 0 95 15.5t61 42.5q22 27 31.5 63t9.5 77z" />
    <glyph glyph-name="K" unicode="K" horiz-adv-x="667" 
d="M640 -9l-321 402l301 316h-116l-322 -345v345h-83v-718h83v257l80 84l258 -341h120z" />
    <glyph glyph-name="L" unicode="L" horiz-adv-x="500" 
d="M484 -9v79h-302v639h-83v-718h385z" />
    <glyph glyph-name="M" unicode="M" horiz-adv-x="904" 
d="M810 -9v718h-141l-212 -620h-5l-217 620h-141v-718h85v635h2l229 -635h84l229 635h2v-635h85z" />
    <glyph glyph-name="N" unicode="N" horiz-adv-x="736" 
d="M637 -9v718h-85v-627h-2l-320 627h-131v-718h83v627h2l322 -627h131z" />
    <glyph glyph-name="O" unicode="O" horiz-adv-x="778" 
d="M720 349q0 77 -22.5 144.5t-65.5 118.5q-42 50 -103.5 79.5t-139.5 29.5t-139.5 -29.5t-104.5 -80.5t-65 -118.5t-22 -143.5q0 -80 22 -147.5t65 -117.5q42 -49 103.5 -77t140.5 -28q78 0 139.5 28t104.5 77q42 50 64.5 117.5t22.5 147.5zM631 349q0 -54 -14.5 -106.5
t-43.5 -93.5q-30 -42 -75.5 -67t-108.5 -25t-109 25t-75 67q-30 41 -44 93.5t-14 106.5q0 56 15 109t46 94q30 41 75.5 66t105.5 25t105 -25t76 -66q30 -41 45.5 -94t15.5 -109z" />
    <glyph glyph-name="P" unicode="P" horiz-adv-x="608" 
d="M569 501q0 56 -20.5 95.5t-54.5 64.5q-35 25 -81.5 36.5t-98.5 11.5h-215v-718h83v305h144q46 0 89.5 11t77.5 36t55 63.5t21 94.5zM478 505q0 -36 -13.5 -61t-34.5 -40q-21 -16 -47 -22.5t-50 -6.5h-151v255h131q71 0 118 -29.5t47 -95.5z" />
    <glyph glyph-name="Q" unicode="Q" horiz-adv-x="778" 
d="M720 349q0 77 -22.5 144.5t-65.5 118.5q-42 50 -103.5 79.5t-139.5 29.5t-139.5 -29.5t-104.5 -80.5t-65 -118.5t-22 -143.5q0 -80 22 -147.5t65 -117.5q42 -49 103.5 -77t140.5 -28q22 0 43.5 2t42.5 8l78 -110h116l-111 143q78 45 120 131t42 196zM631 349
q0 -78 -30.5 -150.5t-93.5 -110.5l-123 159h-94l134 -188q-9 -1 -17.5 -1.5t-17.5 -0.5q-63 0 -109 25t-75 67q-30 41 -44 93.5t-14 106.5q0 56 15 109t46 94q30 41 75.5 66t105.5 25t105 -25t76 -66q30 -41 45.5 -94t15.5 -109z" />
    <glyph glyph-name="R" unicode="R" horiz-adv-x="611" 
d="M588 -9l-128 259q-18 36 -36 55.5t-48 31.5v2q67 12 113 60t46 113q0 61 -24 99.5t-62 60.5q-39 21 -88 29t-99 8h-163v-718h83v314h83q10 0 25 -3t31 -10q16 -8 31 -21t25 -34l113 -246h98zM446 510q0 -51 -48 -88.5t-129 -37.5h-87v245h114q43 0 72 -10.5t46 -27.5
t24.5 -38.5t7.5 -42.5z" />
    <glyph glyph-name="S" unicode="S" horiz-adv-x="556" 
d="M483 189q0 43 -13.5 76t-35.5 58q-22 24 -50.5 43t-57.5 35q-30 15 -58 30t-50 32t-35 37.5t-13 46.5q0 27 14 45.5t36 29.5t47 16.5t48 5.5q40 0 70 -7.5t71 -22.5l9 82q-36 12 -78 18.5t-72 6.5q-48 0 -91 -13.5t-75 -37.5t-50.5 -58t-18.5 -75t13 -70t35 -52
q22 -22 50 -38.5t57 -31.5q29 -16 57 -31t50 -34q22 -18 36 -41t14 -54q0 -34 -18 -58t-44 -40q-25 -15 -53 -22t-47 -7q-48 0 -95.5 11.5t-68.5 20.5l-9 -81q31 -12 71.5 -21t81.5 -9q56 0 105.5 12t86.5 37q37 26 59 65.5t22 95.5z" />
    <glyph glyph-name="T" unicode="T" horiz-adv-x="556" 
d="M537 631v78h-518v-78h217v-640h83v640h218z" />
    <glyph glyph-name="U" unicode="U" horiz-adv-x="722" 
d="M626 295v414h-83v-413q0 -53 -9.5 -96.5t-30.5 -75.5q-21 -31 -56 -48.5t-86 -17.5q-52 0 -87 17.5t-56 48.5q-21 32 -30 75.5t-9 96.5v413h-83v-414q0 -150 69 -233t196 -83q126 0 195.5 83t69.5 233z" />
    <glyph glyph-name="V" unicode="V" horiz-adv-x="667" 
d="M642 709h-91l-220 -656l-210 656h-96l252 -718h106z" />
    <glyph glyph-name="W" unicode="W" horiz-adv-x="940" 
d="M913 709h-94l-140 -634h-2l-145 634h-123l-144 -634h-2l-141 634h-95l181 -718h118l144 651h2l145 -651h108z" />
    <glyph glyph-name="X" unicode="X" horiz-adv-x="667" 
d="M646 -9l-256 376l231 342h-105l-180 -286l-178 286h-113l230 -345l-254 -373h108l196 316l208 -316h113z" />
    <glyph glyph-name="Y" unicode="Y" horiz-adv-x="667" 
d="M642 709h-106l-202 -322l-205 322h-101l263 -400v-318h87v318z" />
    <glyph glyph-name="Z" unicode="Z" horiz-adv-x="556" 
d="M513 -9v79h-366l350 559v80h-441v-79h341l-353 -559v-80h469z" />
    <glyph glyph-name="bracketleft" unicode="[" horiz-adv-x="333" 
d="M279 -139v59h-103v778h103v59h-175v-896h175z" />
    <glyph glyph-name="backslash" unicode="\" horiz-adv-x="450" 
d="M388 -69l-247 792h-81l247 -792h81z" />
    <glyph glyph-name="bracketright" unicode="]" horiz-adv-x="333" 
d="M229 -139v896h-175v-59h103v-778h-103v-59h175z" />
    <glyph glyph-name="asciicircum" unicode="^" horiz-adv-x="500" 
d="M454 480l-165 265h-78l-165 -265h92l112 199l112 -199h92z" />
    <glyph glyph-name="underscore" unicode="_" horiz-adv-x="450" 
d="M450 -200v70h-450v-70h450z" />
    <glyph glyph-name="grave" unicode="`" horiz-adv-x="278" 
d="M240 591l-88 161h-108l128 -161h68z" />
    <glyph glyph-name="a" unicode="a" horiz-adv-x="556" 
d="M478 -9q-2 7 -3 22t-3 33q-1 18 -1.5 37.5t-0.5 36.5v192q0 100 -46 159.5t-152 59.5q-51 0 -92 -15t-74 -37l2 -66q30 22 68.5 36t80.5 14q75 0 102.5 -42t27.5 -109q-31 1 -55 1.5t-55 0.5q-50 0 -91 -13t-70 -35q-30 -23 -46 -52t-16 -62q0 -86 47 -130t138 -43
q31 0 57.5 8t46.5 19t33.5 24t20.5 22h2l4 -61h75zM392 187q0 -28 -11 -53.5t-31 -44.5q-21 -20 -49.5 -31.5t-63.5 -11.5q-16 0 -33.5 6.5t-31.5 19.5q-15 13 -24.5 33t-9.5 46q0 35 23 54.5t55 29.5q31 9 62.5 11t48.5 2l65 -2v-59z" />
    <glyph glyph-name="b" unicode="b" horiz-adv-x="611" 
d="M561 267q0 50 -14.5 97.5t-42.5 84.5q-29 37 -70 59.5t-95 22.5q-67 0 -109 -25.5t-66 -58.5h-2v282h-78v-738h74v76h2q7 -12 21.5 -27.5t36.5 -28.5q22 -14 52.5 -23t70.5 -9q57 0 98.5 25t68.5 66t40 92.5t13 104.5zM477 257q0 -32 -9 -69t-28 -69q-18 -32 -47 -53.5
t-68 -21.5q-43 0 -73.5 20t-50.5 50q-20 31 -29.5 68t-9.5 71q0 39 10 77t31 68q20 30 50.5 49t71.5 19q40 0 69 -18.5t47 -48.5t27 -67.5t9 -74.5z" />
    <glyph glyph-name="c" unicode="c" horiz-adv-x="444" 
d="M423 4l-8 74q-24 -18 -54.5 -26t-52.5 -8q-50 0 -83.5 20t-53.5 51t-28.5 68t-8.5 71q0 36 10 73.5t30 68.5q21 31 52.5 50.5t74.5 19.5q18 0 45.5 -5.5t57.5 -17.5l7 67q-18 8 -49.5 14.5t-55.5 6.5q-58 0 -105.5 -20.5t-80.5 -57.5q-34 -37 -52 -88t-18 -111
q0 -57 16.5 -107t49.5 -87q32 -38 79.5 -59.5t108.5 -21.5q19 0 54 5t65 20z" />
    <glyph glyph-name="d" unicode="d" horiz-adv-x="611" 
d="M527 -9v738h-78v-284h-2q-19 34 -61 60t-114 26q-54 0 -95.5 -22.5t-69.5 -59.5q-29 -37 -43 -84.5t-14 -97.5q0 -52 13 -103.5t40 -92.5t68.5 -66.5t98.5 -25.5q38 0 68.5 9t52.5 23q23 13 37.5 29t22.5 29h2v-78h74zM449 253q0 -34 -10 -71t-30 -68q-20 -30 -50.5 -50
t-72.5 -20q-40 0 -69 21.5t-47 53.5q-19 32 -27.5 69t-8.5 69q0 38 8.5 75.5t26.5 67.5q18 29 47 47.5t70 18.5q40 0 70.5 -19t51.5 -49q20 -30 30.5 -68t10.5 -77z" />
    <glyph glyph-name="e" unicode="e" horiz-adv-x="556" 
d="M506 237q0 59 -11.5 112.5t-36.5 93.5q-26 40 -67.5 64t-101.5 24q-52 0 -96 -20t-76 -56q-32 -35 -49.5 -83t-17.5 -103q0 -64 15 -117.5t47 -91.5q31 -39 81 -60t119 -21q65 0 103 11t62 26v88q-26 -24 -71.5 -41t-90.5 -17q-35 0 -67 14.5t-57 39.5q-24 26 -39 61
t-13 76h367zM417 298h-278q2 24 11 53t26 54t43 42t64 17q31 0 56 -14.5t42 -37.5q18 -24 27 -53.5t9 -60.5z" />
    <glyph glyph-name="f" unicode="f" horiz-adv-x="389" 
d="M365 745q-11 3 -25.5 5.5t-25.5 2.5q-57 0 -91.5 -14t-52.5 -41q-19 -27 -24.5 -67.5t-5.5 -94.5v-35h-110v-67h110v-443h78v443h138v67h-138v50q0 34 2.5 59.5t13.5 42.5q10 17 31 26t57 9q8 0 18.5 -1.5t18.5 -2.5z" />
    <glyph glyph-name="g" unicode="g" horiz-adv-x="611" 
d="M527 36v483h-71v-78h-2q-18 39 -58 64.5t-114 25.5q-58 0 -101.5 -24t-72.5 -62t-43.5 -87t-14.5 -98t14 -94t42 -79t69.5 -54t95.5 -20q45 0 93 18t83 60h2v-41q0 -92 -42 -133t-109 -41q-51 0 -106 14t-106 38l-6 -76q56 -19 103.5 -30t92.5 -11q124 0 187.5 52
t63.5 173zM449 256q0 -38 -13 -70.5t-35 -56.5t-51.5 -37.5t-62.5 -13.5q-35 0 -63 14t-48 40q-21 25 -31.5 59.5t-10.5 75.5q0 33 9.5 68.5t29.5 64.5q19 29 47 47.5t65 18.5q40 0 71 -17t51 -46q21 -29 31.5 -67t10.5 -80z" />
    <glyph glyph-name="h" unicode="h" horiz-adv-x="611" 
d="M527 -9v314q0 109 -48 167.5t-150 58.5q-54 0 -97 -22.5t-68 -63.5h-2v284h-78v-738h78v250q0 110 43 169t127 56q60 -3 88.5 -46.5t28.5 -148.5v-280h78z" />
    <glyph glyph-name="i" unicode="i" horiz-adv-x="278" 
d="M185 631v107h-94v-107h94zM177 -9v528h-78v-528h78z" />
    <glyph glyph-name="j" unicode="j" horiz-adv-x="278" 
d="M185 631v107h-94v-107h94zM177 23v496h-78v-523q0 -53 -13 -85t-44 -28l-41 5l-2 -75l55 -2q47 -2 72 16t36 49q12 30 13.5 69t1.5 78z" />
    <glyph glyph-name="k" unicode="k" horiz-adv-x="556" 
d="M523 -9l-242 304l219 224h-115l-223 -245v455h-78v-738h78v181l66 68l183 -249h112z" />
    <glyph glyph-name="l" unicode="l" horiz-adv-x="278" 
d="M177 -9v738h-78v-738h78z" />
    <glyph glyph-name="m" unicode="m" horiz-adv-x="889" 
d="M806 -9v348q0 81 -42 136.5t-140 55.5q-15 0 -36.5 -5.5t-43.5 -17.5q-23 -12 -43.5 -31.5t-33.5 -47.5q-20 53 -61.5 77.5t-80.5 24.5q-64 0 -102.5 -22t-63.5 -65h-2v75h-73v-528h78v280q0 39 9 74.5t27 62.5q19 26 46.5 42t64.5 16q28 0 46.5 -14.5t30.5 -36.5
q11 -22 15.5 -49t4.5 -52v-323h78v280q0 39 9 74.5t27 62.5q19 26 46.5 42t65.5 16q28 0 46.5 -14.5t29.5 -36.5t15.5 -49t4.5 -52v-323h78z" />
    <glyph glyph-name="n" unicode="n" horiz-adv-x="611" 
d="M527 -9v314q0 109 -48 167.5t-150 58.5q-54 0 -101 -27.5t-65 -69.5h-2v85h-77v-528h78v250q0 110 43 169t127 56q60 -3 88.5 -46.5t28.5 -148.5v-280h78z" />
    <glyph glyph-name="o" unicode="o" horiz-adv-x="611" 
d="M561 256q0 55 -18 105t-51 88q-34 37 -81 59.5t-105 22.5q-59 0 -106.5 -22.5t-80.5 -59.5q-34 -38 -51.5 -88t-17.5 -105t18 -105t52 -89q33 -38 80.5 -60.5t105.5 -22.5q55 0 102 22.5t81 60.5q34 39 53 89t19 105zM477 256q0 -33 -10 -70.5t-31 -68.5
q-21 -32 -53.5 -52.5t-76.5 -20.5q-46 0 -78.5 20.5t-53.5 52.5q-21 31 -30.5 68.5t-9.5 70.5q0 35 11.5 72.5t33.5 67.5q23 31 54.5 50.5t72.5 19.5q39 0 70.5 -19.5t53.5 -50.5q23 -30 35 -67.5t12 -72.5z" />
    <glyph glyph-name="p" unicode="p" horiz-adv-x="611" 
d="M561 267q0 50 -14.5 97.5t-42.5 84.5q-29 37 -70 59.5t-95 22.5q-36 0 -65 -8.5t-51 -21.5q-23 -12 -38.5 -27t-23.5 -27h-2v72h-75v-708h78v254h2q16 -33 58 -59.5t120 -26.5q56 0 97.5 25t68.5 66t40 92.5t13 104.5zM477 257q0 -32 -9 -69t-28 -69q-18 -32 -47 -53.5
t-68 -21.5q-43 0 -73.5 20t-50.5 50q-20 31 -29.5 68t-9.5 71q0 39 10 77t31 68q20 30 50.5 49t71.5 19q40 0 69 -18.5t47 -48.5t27 -67.5t9 -74.5z" />
    <glyph glyph-name="q" unicode="q" horiz-adv-x="611" 
d="M527 -189v708h-75v-73h-2q-9 12 -24.5 27t-38.5 27q-22 13 -51.5 22t-65.5 9q-54 0 -95 -22.5t-69 -59.5t-42 -84.5t-14 -97.5q0 -52 12.5 -103.5t39.5 -92.5t68.5 -66.5t98.5 -25.5q61 0 111 24.5t67 57.5h2v-250h78zM449 253q0 -34 -10 -71t-30 -68q-20 -30 -50.5 -50
t-72.5 -20q-40 0 -69 21.5t-47 53.5q-19 32 -27.5 69t-8.5 69q0 38 8.5 75.5t26.5 67.5q18 29 47 47.5t70 18.5q40 0 70.5 -19t51.5 -49q20 -30 30.5 -68t10.5 -77z" />
    <glyph glyph-name="r" unicode="r" horiz-adv-x="389" 
d="M372 459v64q-17 3 -36 5.5t-44 2.5q-33 0 -69.5 -17.5t-60.5 -58.5h-2v64h-76v-528h78v269q0 56 13 95.5t34 63.5q22 25 49 36.5t55 11.5q12 0 28 -1.5t31 -6.5z" />
    <glyph glyph-name="s" unicode="s" horiz-adv-x="444" 
d="M394 144q0 28 -11 50t-29 39q-17 16 -39.5 29t-45.5 25q-24 11 -46.5 22t-40.5 24t-28.5 29t-10.5 38q0 35 32.5 49.5t89.5 14.5q20 0 49 -7.5t53 -20.5l8 75q-26 9 -56 14.5t-61 5.5q-42 0 -78 -9.5t-63 -28.5t-42 -47.5t-15 -67.5q0 -48 38.5 -79.5t86.5 -56.5
q23 -13 45.5 -25.5t39.5 -25.5q18 -13 29 -27.5t11 -30.5q0 -22 -12.5 -38t-31.5 -27t-42 -16.5t-44 -5.5q-24 0 -63 11.5t-65 31.5l-4 -74q31 -18 69 -27t83 -9q34 0 69 11t62 32q28 21 45.5 52t17.5 70z" />
    <glyph glyph-name="t" unicode="t" horiz-adv-x="389" 
d="M362 -6l-1 69q-13 -8 -30.5 -13.5t-37.5 -5.5q-30 0 -57.5 22t-27.5 71v309h137v67h-137v141l-78 -25v-116h-93v-67h93v-327q0 -77 41.5 -108.5t112.5 -31.5q19 0 40.5 3.5t37.5 11.5z" />
    <glyph glyph-name="u" unicode="u" horiz-adv-x="611" 
d="M527 -9v528h-78v-250q0 -111 -43.5 -169.5t-126.5 -55.5q-61 2 -89 45.5t-28 149.5v280h-78v-314q0 -110 48 -168t150 -58q53 0 100.5 25.5t65.5 71.5h2v-85h77z" />
    <glyph glyph-name="v" unicode="v" horiz-adv-x="556" 
d="M531 519h-80l-168 -452h-2l-167 452h-87l205 -528h97z" />
    <glyph glyph-name="w" unicode="w" horiz-adv-x="869" 
d="M846 519h-77l-140 -458h-2l-144 458h-93l-149 -458h-2l-127 458h-88l169 -528h92l145 462h2l149 -462h92z" />
    <glyph glyph-name="x" unicode="x" horiz-adv-x="556" 
d="M525 -9l-202 274l179 254h-90l-132 -199l-124 199h-101l180 -254l-205 -274h94l151 215l151 -215h99z" />
    <glyph glyph-name="y" unicode="y" horiz-adv-x="556" 
d="M530 519h-79l-169 -417h-2l-164 417h-85l191 -453l18 -51q-18 -60 -46 -100.5t-79 -40.5q-13 0 -30.5 5.5t-32.5 14.5l-5 -68q13 -6 33 -11t43 -5q46 0 77.5 20t53.5 51q21 31 37 69.5t31 74.5z" />
    <glyph glyph-name="z" unicode="z" horiz-adv-x="500" 
d="M456 11v65h-311l297 379v64h-381v-65h282l-297 -375v-68h410z" />
    <glyph glyph-name="braceleft" unicode="{" horiz-adv-x="333" 
d="M310 -119v66h-56q-30 0 -40 26t-10 51v173q0 34 -10.5 57t-24.5 37q-14 13 -28 19t-21 8v2q7 1 21 8t28 21t24.5 36t10.5 55v174q0 25 10 51t40 26h56v66h-79q-15 0 -32 -8t-32 -24q-15 -15 -25 -38t-10 -52v-181q0 -45 -28.5 -74t-58.5 -29v-64q30 0 58.5 -29.5
t28.5 -77.5v-177q0 -30 10 -53t25 -38q15 -16 32.5 -23.5t31.5 -7.5h79z" />
    <glyph glyph-name="bar" unicode="|" horiz-adv-x="300" 
d="M192 -119v875h-82v-875h82z" />
    <glyph glyph-name="braceright" unicode="}" horiz-adv-x="333" 
d="M288 287v64q-31 0 -59 29.5t-28 80.5v174q0 29 -10.5 52t-25.5 38q-15 16 -32.5 24t-30.5 8h-79v-66h56q30 0 40 -26t10 -51v-170q0 -37 10 -60.5t24 -37.5t28 -19.5t22 -6.5v-2q-8 -2 -22 -9.5t-28 -21.5t-24 -35t-10 -51v-177q0 -25 -10 -51t-40 -26h-56v-66h79
q13 0 30.5 7.5t32.5 23.5q15 15 25.5 38t10.5 53v184q0 43 28 71.5t59 28.5z" />
    <glyph glyph-name="asciitilde" unicode="~" horiz-adv-x="556" 
d="M528 389l-34 43q-16 -28 -40.5 -50.5t-58.5 -22.5q-10 0 -23 3.5t-27 8.5q-15 6 -30.5 12.5t-30.5 12.5q-35 13 -67 21.5t-53 8.5q-29 0 -50 -9.5t-36 -24.5q-16 -15 -28 -33.5t-21 -36.5l36 -43q19 31 42.5 52.5t53.5 21.5q9 0 21 -4l27 -9q14 -6 30 -12.5t32 -12.5
q32 -12 64 -20.5t56 -8.5q60 0 92.5 32t44.5 71z" />
    <glyph glyph-name="uniE0BC" unicode="&#xe0bc;" horiz-adv-x="900" 
 />
    <glyph glyph-name="uniE0BD" unicode="&#xe0bd;" horiz-adv-x="900" 
 />
    <glyph glyph-name="uniE0BE" unicode="&#xe0be;" horiz-adv-x="900" 
 />
    <glyph glyph-name="uniE0BF" unicode="&#xe0bf;" horiz-adv-x="900" 
 />
    <glyph glyph-name="uniE0C0" unicode="&#xe0c0;" horiz-adv-x="900" 
 />
    <glyph glyph-name="uniE0C1" unicode="&#xe0c1;" horiz-adv-x="900" 
 />
    <glyph glyph-name="uniE0C2" unicode="&#xe0c2;" horiz-adv-x="900" 
 />
    <glyph glyph-name="uniE0C3" unicode="&#xe0c3;" horiz-adv-x="900" 
 />
    <glyph glyph-name="uniE0C4" unicode="&#xe0c4;" horiz-adv-x="900" 
 />
    <glyph glyph-name="uniE0C5" unicode="&#xe0c5;" horiz-adv-x="900" 
 />
    <glyph glyph-name="uniE0C6" unicode="&#xe0c6;" horiz-adv-x="900" 
 />
    <glyph glyph-name="uniE0C7" unicode="&#xe0c7;" horiz-adv-x="900" 
 />
    <glyph glyph-name="uniE0C8" unicode="&#xe0c8;" horiz-adv-x="900" 
 />
    <glyph glyph-name="uniE0C9" unicode="&#xe0c9;" horiz-adv-x="900" 
 />
    <glyph glyph-name="uniE0CA" unicode="&#xe0ca;" horiz-adv-x="900" 
 />
    <glyph glyph-name="uniE0CB" unicode="&#xe0cb;" horiz-adv-x="900" 
 />
    <glyph glyph-name="uniE0CC" unicode="&#xe0cc;" horiz-adv-x="900" 
 />
    <glyph glyph-name="uniE0CD" unicode="&#xe0cd;" horiz-adv-x="900" 
 />
    <glyph glyph-name="uniE0CE" unicode="&#xe0ce;" horiz-adv-x="900" 
 />
    <glyph glyph-name="uniE0CF" unicode="&#xe0cf;" horiz-adv-x="900" 
 />
    <glyph glyph-name="uniE0D0" unicode="&#xe0d0;" horiz-adv-x="900" 
 />
    <glyph glyph-name="uniE0D1" unicode="&#xe0d1;" horiz-adv-x="900" 
 />
    <glyph glyph-name="uniE0D2" unicode="&#xe0d2;" horiz-adv-x="900" 
 />
    <glyph glyph-name="uniE0D3" unicode="&#xe0d3;" horiz-adv-x="900" 
 />
    <glyph glyph-name="uniE0D4" unicode="&#xe0d4;" horiz-adv-x="900" 
 />
    <glyph glyph-name="uniE0D5" unicode="&#xe0d5;" horiz-adv-x="900" 
 />
    <glyph glyph-name="uniE0D6" unicode="&#xe0d6;" horiz-adv-x="900" 
 />
    <glyph glyph-name="uniE0D7" unicode="&#xe0d7;" horiz-adv-x="900" 
 />
    <glyph glyph-name="uni3016" unicode="&#x3016;" horiz-adv-x="900" 
 />
    <glyph glyph-name="uni3017" unicode="&#x3017;" horiz-adv-x="900" 
 />
    <glyph glyph-name="uni3018" unicode="&#x3018;" horiz-adv-x="900" 
 />
    <glyph glyph-name="uni3019" unicode="&#x3019;" horiz-adv-x="900" 
 />
    <glyph glyph-name="uniE0D8" unicode="&#xe0d8;" horiz-adv-x="900" 
 />
    <glyph glyph-name="uniE0D9" unicode="&#xe0d9;" horiz-adv-x="900" 
 />
    <glyph glyph-name="uniE0DA" unicode="&#xe0da;" horiz-adv-x="900" 
 />
    <glyph glyph-name="uniE0DB" unicode="&#xe0db;" horiz-adv-x="900" 
 />
    <glyph glyph-name="uniE0DC" unicode="&#xe0dc;" horiz-adv-x="900" 
 />
    <glyph glyph-name="uniE0DD" unicode="&#xe0dd;" horiz-adv-x="900" 
 />
    <glyph glyph-name="uniE0DE" unicode="&#xe0de;" horiz-adv-x="900" 
 />
    <glyph glyph-name="uniE0DF" unicode="&#xe0df;" horiz-adv-x="900" 
 />
    <glyph glyph-name="uniE0E0" unicode="&#xe0e0;" horiz-adv-x="900" 
 />
    <glyph glyph-name="uniE0E1" unicode="&#xe0e1;" horiz-adv-x="900" 
 />
    <glyph glyph-name="uniE0E2" unicode="&#xe0e2;" horiz-adv-x="900" 
 />
    <glyph glyph-name="uniE0E3" unicode="&#xe0e3;" horiz-adv-x="900" 
 />
    <glyph glyph-name="uniE0E4" unicode="&#xe0e4;" horiz-adv-x="900" 
 />
    <glyph glyph-name="uniE0E5" unicode="&#xe0e5;" horiz-adv-x="900" 
 />
    <glyph glyph-name="uni201F" unicode="&#x201f;" horiz-adv-x="900" 
 />
    <glyph glyph-name="quotereversed" unicode="&#x201b;" horiz-adv-x="900" 
 />
    <glyph glyph-name="uni207A" unicode="&#x207a;" horiz-adv-x="900" 
 />
    <glyph glyph-name="uni207B" unicode="&#x207b;" horiz-adv-x="900" 
 />
    <glyph glyph-name="uniE0E6" unicode="&#xe0e6;" horiz-adv-x="900" 
 />
    <glyph glyph-name="uniE0E7" unicode="&#xe0e7;" horiz-adv-x="900" 
 />
    <glyph glyph-name="uniE0E8" unicode="&#xe0e8;" horiz-adv-x="900" 
 />
    <glyph glyph-name="uniE0E9" unicode="&#xe0e9;" horiz-adv-x="900" 
 />
    <glyph glyph-name="uniE0EA" unicode="&#xe0ea;" horiz-adv-x="900" 
 />
    <glyph glyph-name="uniE0EB" unicode="&#xe0eb;" horiz-adv-x="900" 
 />
    <glyph glyph-name="uniE0EC" unicode="&#xe0ec;" horiz-adv-x="900" 
 />
    <glyph glyph-name="uni207C" unicode="&#x207c;" horiz-adv-x="900" 
 />
    <glyph glyph-name="uniE0ED" unicode="&#xe0ed;" horiz-adv-x="900" 
 />
    <glyph glyph-name="uni207D" unicode="&#x207d;" horiz-adv-x="900" 
 />
    <glyph glyph-name="uni207E" unicode="&#x207e;" horiz-adv-x="900" 
 />
    <glyph glyph-name="uniE0EE" unicode="&#xe0ee;" horiz-adv-x="900" 
 />
    <glyph glyph-name="uniE0EF" unicode="&#xe0ef;" horiz-adv-x="900" 
 />
    <glyph glyph-name="uniE0F0" unicode="&#xe0f0;" horiz-adv-x="900" 
 />
    <glyph glyph-name="uniE0F1" unicode="&#xe0f1;" horiz-adv-x="900" 
 />
    <glyph glyph-name="uniE0F2" unicode="&#xe0f2;" horiz-adv-x="900" 
 />
    <glyph glyph-name="uniE0F3" unicode="&#xe0f3;" horiz-adv-x="900" 
 />
    <glyph glyph-name="uniE0F4" unicode="&#xe0f4;" horiz-adv-x="900" 
 />
    <glyph glyph-name="uniE0F5" unicode="&#xe0f5;" horiz-adv-x="900" 
 />
    <glyph glyph-name="uniE0F6" unicode="&#xe0f6;" horiz-adv-x="900" 
 />
    <glyph glyph-name="uniE0F7" unicode="&#xe0f7;" horiz-adv-x="900" 
 />
    <glyph glyph-name="uniE0F8" unicode="&#xe0f8;" horiz-adv-x="900" 
 />
    <glyph glyph-name="uniE0F9" unicode="&#xe0f9;" horiz-adv-x="900" 
 />
    <glyph glyph-name="uniE0FA" unicode="&#xe0fa;" horiz-adv-x="900" 
 />
    <glyph glyph-name="uniE0FB" unicode="&#xe0fb;" horiz-adv-x="900" 
 />
    <glyph glyph-name="uniE0FC" unicode="&#xe0fc;" horiz-adv-x="900" 
 />
    <glyph glyph-name="uniE0FD" unicode="&#xe0fd;" horiz-adv-x="900" 
 />
    <glyph glyph-name="uniE0FE" unicode="&#xe0fe;" horiz-adv-x="900" 
 />
    <glyph glyph-name="uniE0FF" unicode="&#xe0ff;" horiz-adv-x="900" 
 />
    <glyph glyph-name="uniE100" unicode="&#xe100;" horiz-adv-x="900" 
 />
    <glyph glyph-name="uniE101" unicode="&#xe101;" horiz-adv-x="900" 
 />
    <glyph glyph-name="uniE102" unicode="&#xe102;" horiz-adv-x="900" 
 />
    <glyph glyph-name="uniE103" unicode="&#xe103;" horiz-adv-x="900" 
 />
    <glyph glyph-name="uniE104" unicode="&#xe104;" horiz-adv-x="900" 
 />
    <glyph glyph-name="uni02BC" unicode="&#x2bc;" horiz-adv-x="900" 
 />
    <glyph glyph-name="uniE105" unicode="&#xe105;" horiz-adv-x="900" 
 />
    <glyph glyph-name="uniE106" unicode="&#xe106;" horiz-adv-x="900" 
 />
    <glyph glyph-name="uniE107" unicode="&#xe107;" horiz-adv-x="900" 
 />
    <glyph glyph-name="uniE108" unicode="&#xe108;" horiz-adv-x="900" 
 />
    <glyph glyph-name="uniE109" unicode="&#xe109;" horiz-adv-x="900" 
 />
    <glyph glyph-name="uniE10A" unicode="&#xe10a;" horiz-adv-x="900" 
 />
    <glyph glyph-name="uniE10B" unicode="&#xe10b;" horiz-adv-x="900" 
 />
    <glyph glyph-name="uniE10C" unicode="&#xe10c;" horiz-adv-x="900" 
 />
    <glyph glyph-name="uni3000" unicode="&#x3000;" horiz-adv-x="900" 
d="M506 376h-43v-45h43v45z" />
    <glyph glyph-name="uni3001" unicode="&#x3001;" horiz-adv-x="900" 
d="M136 -103q1 -32 17 -52t43 -8q15 6 22 18t8 27t-2.5 29.5t-9.5 25.5q-21 34 -53.5 63.5t-73.5 53.5q-18 9 -30 11.5t-16 -1.5q-7 -6 -2.5 -15t11.5 -14q39 -29 61.5 -63.5t24.5 -74.5z" />
    <glyph glyph-name="uni3002" unicode="&#x3002;" horiz-adv-x="900" 
d="M167 70q-48 0 -80.5 -33t-32.5 -80q0 -48 32.5 -80.5t80.5 -32.5q47 0 80 32.5t33 80.5q0 47 -33 80t-80 33zM167 -108q-26 0 -44.5 19t-18.5 46q0 26 18.5 45.5t44.5 19.5q25 0 44 -19.5t19 -45.5q0 -27 -19 -46t-44 -19z" />
    <glyph glyph-name="periodcentered" unicode="&#xb7;" horiz-adv-x="900" 
d="M518 304q0 30 -19.5 50t-48.5 20q-33 0 -52.5 -19.5t-19.5 -50.5q0 -30 19 -50t49 -20q32 0 52 19.5t20 50.5z" />
    <glyph glyph-name="twodotenleader" unicode="&#x2025;" horiz-adv-x="900" 
d="M737 304q0 30 -19.5 50t-47.5 20q-33 0 -52.5 -19.5t-19.5 -50.5q0 -30 18.5 -50t48.5 -20q32 0 52 19.5t20 50.5zM302 304q0 30 -19 50t-48 20q-33 0 -52.5 -19.5t-19.5 -50.5q0 -30 19 -50t48 -20q33 0 52.5 19.5t19.5 50.5z" />
    <glyph glyph-name="ellipsis" unicode="&#x2026;" horiz-adv-x="900" 
d="M798 309q0 25 -16 42t-40 17q-28 0 -45 -16t-17 -43q0 -26 16.5 -42.5t41.5 -16.5q27 0 43.5 16t16.5 43zM509 309q0 25 -16.5 42t-40.5 17q-28 0 -44.5 -16t-16.5 -43q0 -26 16 -42.5t41 -16.5q27 0 44 16t17 43zM220 309q0 25 -17 42t-41 17q-28 0 -44.5 -16t-16.5 -43
q0 -26 16.5 -42.5t40.5 -16.5q27 0 44.5 16t17.5 43z" />
    <glyph glyph-name="dieresis" unicode="&#xa8;" horiz-adv-x="900" 
d="M678 772q0 27 -18.5 45.5t-45.5 18.5q-31 0 -49 -18t-18 -46q0 -29 18 -47.5t45 -18.5q30 0 49 18t19 48zM352 772q0 27 -18 45.5t-45 18.5q-31 0 -49.5 -18t-18.5 -46q0 -29 18 -47.5t46 -18.5q30 0 48.5 18t18.5 48z" />
    <glyph glyph-name="uni3003" unicode="&#x3003;" horiz-adv-x="900" 
d="M447 203l138 202q9 12 4 34t-32 25q-24 3 -37.5 -9.5t-19.5 -25.5l-86 -211q-6 -15 -4 -22.5t8 -9.5q7 -4 15 2t14 15zM326 216l138 202q7 12 3 34t-31 25q-25 2 -39 -10t-18 -26l-86 -210q-7 -15 -5 -23t8 -10q9 -3 16.5 2.5t13.5 15.5z" />
    <glyph glyph-name="uni00AD" unicode="&#xad;" horiz-adv-x="900" 
d="M635 171v72h-370v-72h370z" />
    <glyph glyph-name="uni2015" unicode="&#x2015;" horiz-adv-x="900" 
d="M735 326h-573v-73h573v73z" />
    <glyph glyph-name="uni2225" unicode="&#x2225;" horiz-adv-x="900" 
d="M580 -186v974h-54v-974h54zM374 -186v974h-54v-974h54z" />
    <glyph glyph-name="uniFF3C" unicode="&#xff3c;" horiz-adv-x="900" 
d="M884 -149l-835 936l-40 -39l835 -936z" />
    <glyph glyph-name="similar" unicode="&#x223c;" horiz-adv-x="900" 
d="M437 265q24 -15 55.5 -29t77.5 -16q36 -2 68.5 13t59.5 36q26 21 44 42.5t25 34.5q10 19 7 30.5t-12 14.5q-9 4 -22 -1t-23 -17q-15 -20 -56.5 -38t-93.5 -14q-12 0 -23.5 4t-21.5 9q-11 6 -21.5 12.5t-20.5 12.5q-26 15 -59.5 30.5t-77.5 18.5q-38 1 -72.5 -15
t-62.5 -38t-47.5 -45.5t-26.5 -36.5q-11 -18 -8.5 -30.5t17.5 -13.5q10 -2 21 2.5t22 11.5q10 7 19.5 15t18.5 14q23 17 55.5 28.5t82.5 3.5q9 -3 19.5 -7t19.5 -10q4 -3 9 -6t9 -6q5 -3 9 -5.5t9 -4.5z" />
    <glyph glyph-name="quoteleft" unicode="&#x2018;" horiz-adv-x="900" 
d="M806 676l-18 -4q-4 0 -7 1t-3 7q0 8 2 18t11 24t21 26.5t33 23.5l-13 17q-18 -9 -36.5 -23t-32.5 -32q-15 -21 -22 -44t-7 -45q0 -31 17 -56t51 -25q21 0 38 15t17 39q0 23 -15.5 40.5t-35.5 17.5z" />
    <glyph glyph-name="quoteright" unicode="&#x2019;" horiz-adv-x="900" 
d="M114 662q4 0 8 -1.5t4 -6.5q0 -9 -3 -19t-11 -23q-9 -15 -21.5 -27.5t-32.5 -22.5l13 -17q18 8 36.5 22t32.5 33q13 20 21.5 43t8.5 46q0 30 -18 55.5t-51 25.5q-22 0 -38 -15.5t-16 -39.5q0 -23 14.5 -40t35.5 -17z" />
    <glyph glyph-name="quotedblleft" unicode="&#x201c;" horiz-adv-x="900" 
d="M805 676l-18 -4q-6 0 -8.5 1t-2.5 7q0 8 2 18t10 24q9 14 21 26.5t33 23.5l-12 17q-19 -9 -37.5 -23t-31.5 -32q-15 -21 -22 -44t-7 -45q0 -31 16.5 -56t50.5 -25q21 0 38 15t17 39q0 23 -14.5 40.5t-34.5 17.5zM640 672q-6 0 -9.5 1t-3.5 7q0 8 2.5 18t11.5 24
t21.5 26.5t33.5 23.5l-15 17q-18 -9 -35.5 -23t-31.5 -32q-15 -21 -22.5 -44t-7.5 -45q0 -31 17 -56t51 -25q21 0 38 15t17 39q0 23 -15 40.5t-37 17.5z" />
    <glyph glyph-name="quotedblright" unicode="&#x201d;" horiz-adv-x="900" 
d="M260 662q4 0 8 -2t4 -7q0 -9 -2 -19t-10 -23q-9 -15 -23 -27t-32 -23l14 -17q17 8 35 22t33 34q14 19 22 42.5t8 45.5q0 31 -18 56.5t-51 25.5q-22 0 -38.5 -16t-16.5 -39q0 -24 14.5 -40.5t36.5 -16.5zM113 662q5 0 8.5 -2t3.5 -7q0 -9 -2.5 -19t-10.5 -23
q-9 -15 -22 -27t-32 -23l13 -17q18 8 36 22t33 34q13 19 21 42.5t8 45.5q0 31 -17.5 56.5t-50.5 25.5q-22 0 -38.5 -16t-16.5 -39q0 -24 14.5 -40.5t35.5 -16.5z" />
    <glyph glyph-name="uni3014" unicode="&#x3014;" horiz-adv-x="900" 
d="M536 -66l324 -98v90l-239 71v616l239 65v85l-324 -86v-743z" />
    <glyph glyph-name="uni3015" unicode="&#x3015;" horiz-adv-x="900" 
d="M45 -164l324 98v743l-324 86v-85l239 -65v-616l-239 -71v-90z" />
    <glyph glyph-name="uni3008" unicode="&#x3008;" horiz-adv-x="900" 
d="M625 300l238 427l-57 33l-254 -460l254 -458l55 35z" />
    <glyph glyph-name="uni3009" unicode="&#x3009;" horiz-adv-x="900" 
d="M277 300l-236 -423l55 -35l254 458l-254 460l-57 -33z" />
    <glyph glyph-name="uni300A" unicode="&#x300a;" horiz-adv-x="900" 
d="M815 -152h49l-233 447l233 452h-49l-234 -452zM709 -152h49l-233 447l233 452h-49l-234 -452z" />
    <glyph glyph-name="uni300B" unicode="&#x300b;" horiz-adv-x="900" 
d="M187 -152l233 447l-233 452h-49l234 -452l-234 -447h49zM82 -152l234 447l-234 452h-49l234 -452l-234 -447h49z" />
    <glyph glyph-name="uni300C" unicode="&#x300c;" horiz-adv-x="900" 
d="M862 730v50h-299v-440h50v390h249z" />
    <glyph glyph-name="uni300D" unicode="&#x300d;" horiz-adv-x="900" 
d="M337 -180v440h-50v-390h-250v-50h300z" />
    <glyph glyph-name="uni300E" unicode="&#x300e;" horiz-adv-x="900" 
d="M665 674h190v102h-292v-432h102v330zM595 376v368h228v-38h-190v-330h-38z" />
    <glyph glyph-name="uni300F" unicode="&#x300f;" horiz-adv-x="900" 
d="M336 256h-102v-330h-190v-102h292v432zM266 -106v330h37v-368h-227v38h190z" />
    <glyph glyph-name="uni3010" unicode="&#x3010;" horiz-adv-x="900" 
d="M875 -180q-60 38 -108 89.5t-82 112.5q-34 62 -52.5 132t-18.5 146q0 75 18.5 145t52.5 131q34 62 82 113.5t107 89.5h-331v-959h332z" />
    <glyph glyph-name="uni3011" unicode="&#x3011;" horiz-adv-x="900" 
d="M366 -179v959h-329q58 -38 106 -89.5t82 -113.5q34 -61 53 -131t19 -145q0 -76 -19 -146t-53 -132q-34 -61 -82.5 -112.5t-106.5 -89.5h330z" />
    <glyph glyph-name="plusminus" unicode="&#xb1;" horiz-adv-x="900" 
d="M726 348v70h-236v200h-80v-200h-237v-70h237v-197h80v197h236zM726 -11v65h-553v-65h553z" />
    <glyph glyph-name="multiply" unicode="&#xd7;" horiz-adv-x="900" 
d="M722 84l-219 215l201 204l-51 49l-203 -202l-202 206l-55 -53l208 -206l-215 -209l55 -52l209 211l221 -219z" />
    <glyph glyph-name="divide" unicode="&#xf7;" horiz-adv-x="900" 
d="M449 643q-30 0 -50 -22t-20 -51q0 -30 21 -49.5t51 -19.5q28 0 49 20t21 49t-20.5 51t-51.5 22zM777 268v67h-653v-67h653zM379 30q0 -33 21 -52t51 -19q27 0 49 21t22 50q0 28 -21 49.5t-52 21.5q-30 0 -50 -21.5t-20 -49.5z" />
    <glyph glyph-name="notequal" unicode="&#x2260;" horiz-adv-x="900" 
d="M657 632l-133 -172h-393v-64h343l-126 -162h-217v-64h166l-119 -154l54 -43l153 197h391v64h-340l125 162h215v64h-165l100 128z" />
    <glyph glyph-name="lessequal" unicode="&#x2264;" horiz-adv-x="900" 
d="M724 215l-403 215l386 209l-31 64l-497 -259q-2 -1 -5.5 -3.5t-7.5 -4.5t-7 -4.5l-3 -2.5q0 -2 10 -8.5t13 -6.5l510 -262zM752 -3v69h-605v-69h605z" />
    <glyph glyph-name="greaterequal" unicode="&#x2265;" horiz-adv-x="900" 
d="M718 444l-497 259l-31 -64l385 -209l-401 -215l35 -63l509 262q2 0 13 6.5t11 8.5l-3.5 2.5t-7.5 4.5q-5 2 -8.5 4.5t-4.5 3.5zM752 -3v69h-606v-69h606z" />
    <glyph glyph-name="infinity" unicode="&#x221e;" horiz-adv-x="900" 
d="M630 481q-39 0 -69.5 -14.5t-52.5 -34.5q-22 -19 -36.5 -40t-21.5 -33q-7 12 -21.5 33t-36.5 40q-23 20 -53.5 34.5t-69.5 14.5t-72.5 -14.5t-59.5 -38.5q-25 -25 -39.5 -58t-14.5 -70q0 -38 14.5 -71t39.5 -57q26 -25 59.5 -39t72.5 -14t69.5 14t53.5 34q22 19 36.5 40
t21.5 34q7 -13 21.5 -34t36.5 -40q22 -20 52.5 -34t69.5 -14q38 0 72 14t59 39q25 24 40 57t15 71q0 37 -15 70t-40 58q-25 24 -59 38.5t-72 14.5zM269 176q-53 0 -89.5 36t-36.5 88q0 51 36.5 87.5t89.5 36.5q34 0 59 -17t43 -39q17 -21 26.5 -41.5t12.5 -26.5
q-3 -7 -12.5 -27.5t-26.5 -41.5q-18 -22 -43 -38.5t-59 -16.5zM630 424q52 0 89.5 -36.5t37.5 -87.5q0 -52 -37.5 -88t-89.5 -36q-35 0 -60 16.5t-42 38.5q-18 21 -27.5 41.5t-11.5 27.5q2 6 11.5 26.5t27.5 41.5q17 22 42 39t60 17z" />
    <glyph glyph-name="therefore" unicode="&#x2234;" horiz-adv-x="900" 
d="M452 591q-30 0 -50.5 -21t-20.5 -50q0 -30 21 -50t51 -20q28 0 49.5 20t21.5 50q0 29 -21.5 50t-50.5 21zM718 155q-29 0 -49.5 -21t-20.5 -50q0 -30 20.5 -50t50.5 -20t50.5 20t20.5 50q0 29 -21 50t-51 21zM247 83q0 29 -21 50t-50 21q-30 0 -50.5 -21t-20.5 -50
q0 -30 21 -50t51 -20q29 0 50 20t21 50h-1z" />
    <glyph glyph-name="degree" unicode="&#xb0;" horiz-adv-x="900" 
d="M221 773q-48 0 -81 -33t-33 -80q0 -48 33 -80.5t81 -32.5q46 0 79.5 32.5t33.5 80.5q0 47 -33.5 80t-79.5 33zM221 595q-26 0 -44.5 19t-18.5 46q0 26 18.5 45.5t44.5 19.5q24 0 43 -19.5t19 -45.5q0 -27 -19 -46t-43 -19z" />
    <glyph glyph-name="minute" unicode="&#x2032;" horiz-adv-x="900" 
d="M267 765q-15 9 -33.5 0t-24.5 -26l-62 -157q-7 -18 5.5 -25t23.5 8q20 27 45 56.5t43 56.5q18 28 21.5 50.5t-18.5 36.5z" />
    <glyph glyph-name="second" unicode="&#x2033;" horiz-adv-x="900" 
d="M355 683q12 14 8.5 34.5t-20.5 31.5q-15 9 -34.5 1t-26.5 -26l-68 -166q-6 -16 6.5 -23.5t24.5 7.5zM219 702q12 15 10.5 35.5t-19.5 30.5q-16 10 -35.5 1.5t-26.5 -26.5l-67 -166q-6 -16 7 -23.5t24 7.5z" />
    <glyph glyph-name="uni2103" unicode="&#x2103;" horiz-adv-x="900" 
d="M248 253q0 -81 19.5 -148t57.5 -115q37 -48 90.5 -74t120.5 -26q62 0 108.5 22.5t79.5 56.5q33 35 52 74.5t27 74.5h-79q-7 -27 -21.5 -55t-38.5 -50q-23 -23 -55 -37t-73 -14q-48 0 -86.5 21t-65.5 59t-41.5 92t-14.5 119q0 64 14.5 117t41.5 91t65.5 59.5t86.5 21.5
q42 0 74 -14t55 -36t37 -47.5t21 -49.5h80q-6 30 -25 68t-52 71q-33 34 -80.5 57t-109.5 23q-67 0 -120.5 -27t-90.5 -74q-38 -48 -57.5 -114.5t-19.5 -145.5zM158 730q-48 0 -81.5 -34t-33.5 -81q0 -48 33.5 -81.5t81.5 -33.5q47 0 81.5 33.5t34.5 81.5q0 47 -34.5 81
t-81.5 34zM158 550q-28 0 -46.5 18t-18.5 47q0 28 18.5 46.5t46.5 18.5t47 -18.5t19 -46.5q0 -29 -19 -47t-47 -18z" />
    <glyph glyph-name="uni212B" unicode="&#x212b;" horiz-adv-x="900" 
d="M333 665q0 -48 33 -81.5t81 -33.5q47 0 81.5 33.5t34.5 81.5q0 47 -34.5 81t-81.5 34q-48 0 -81 -34t-33 -81zM730 -95l-247 619h-72l-246 -619h74l64 160h288l64 -160h75zM511 665q0 -27 -18.5 -45t-45.5 -18t-45 18t-18 45t18 45t45 18t45.5 -18t18.5 -45zM566 130
h-237l118 303z" />
    <glyph glyph-name="uniFFE0" unicode="&#xffe0;" horiz-adv-x="900" 
d="M263 44h3q31 -30 73.5 -47.5t97.5 -17.5q67 -1 123.5 23t92.5 70q12 15 20.5 29.5t15.5 32.5q7 19 12 43t11 58h-69q-5 -48 -19.5 -83.5t-39.5 -58.5q-32 -29 -74 -40t-90 -6q-33 3 -60.5 16.5t-54.5 40.5q9 9 26 27.5t40 42.5q22 25 47.5 53.5t51.5 58.5q26 29 51 58
t47 54t39 44t26 29q1 -7 3 -13.5t3 -12.5q2 -6 3 -12.5t2 -13.5h68q-2 32 -8 59.5t-19 54.5l106 123l-57 48q-8 -9 -22 -26t-29 -34q-15 -18 -27.5 -32.5t-16.5 -17.5q-32 27 -77.5 44.5t-106.5 19.5q-65 1 -118.5 -22.5t-91.5 -68.5q-38 -44 -58.5 -107.5t-20.5 -140.5
q0 -51 12.5 -109t42.5 -109l-113 -132l50 -46l54 64l38 42l12 13zM579 521q-20 -22 -38.5 -44t-36.5 -44q-19 -21 -37.5 -43t-37.5 -44q-28 -32 -54.5 -63t-47.5 -57q-22 -26 -38 -44t-22 -24q-16 36 -23.5 75.5t-7.5 80.5q0 54 13 106t41 92q28 39 73.5 61.5t110.5 17.5
q33 -3 62 -17.5t52 -40.5z" />
    <glyph glyph-name="uniFFE1" unicode="&#xffe1;" horiz-adv-x="900" 
d="M776 120l-88 11q-26 -78 -55.5 -108.5t-75.5 -30.5q-34 0 -63 10t-65 34q14 35 20 63.5t6 58.5q0 25 -4.5 51.5t-16.5 66.5h219v65h-245q-10 17 -21 36t-20 39t-14.5 40.5t-5.5 41.5q0 57 33 89.5t91 32.5q61 0 97.5 -37t56.5 -120l77 13q-9 46 -19 73.5t-29 52.5
q-32 42 -79 64.5t-103 22.5q-93 0 -149 -53.5t-56 -143.5q0 -19 1.5 -34t7.5 -31q5 -17 14.5 -37.5t25.5 -48.5h-164v-65h194q15 -38 22.5 -68t7.5 -65q0 -19 -2 -32.5t-8 -32.5q-37 24 -65 33.5t-58 9.5q-53 0 -85.5 -27.5t-32.5 -71.5q0 -47 38 -77.5t95 -30.5
q37 0 68.5 15t64.5 48q48 -36 85 -50t78 -14q79 0 135 51.5t87 155.5zM335 19l-5 -4q-12 -14 -32 -21.5t-38 -7.5q-30 0 -47 13t-17 28q0 9 12 17.5t38 8.5q21 0 38.5 -6.5t50.5 -27.5z" />
    <glyph glyph-name="uniFFE5" unicode="&#xffe5;" horiz-adv-x="900" 
d="M495 277h207v78h-159l207 318h-117l-191 -294l-191 294h-117l207 -318h-159v-78h207v-79h-207v-78h207v-204h106v204h207v78h-207v79z" />
    <glyph glyph-name="male" unicode="&#x2642;" horiz-adv-x="900" 
d="M720 426l44 52l-318 264l-310 -287l46 -46l232 220v-319q-44 -8 -80.5 -27t-62.5 -47q-26 -27 -40.5 -62t-14.5 -74q0 -44 18 -83t50 -68q31 -29 73.5 -45.5t90.5 -16.5t90.5 16.5t74.5 45.5q31 29 49.5 68t18.5 83q0 39 -15 74.5t-42 63.5q-26 28 -63 47t-81 26v325z
M616 100q0 -32 -13.5 -60t-36.5 -49q-22 -21 -53 -32.5t-65 -11.5q-35 0 -65 11.5t-53 32.5q-22 21 -35 49t-13 60q0 31 13 59t35 49q23 21 53 33t65 12q34 0 65 -12t53 -33q23 -21 36.5 -49t13.5 -59z" />
    <glyph glyph-name="female" unicode="&#x2640;" horiz-adv-x="900" 
d="M483 154h286v61h-286v89q43 7 79.5 26t62.5 47q26 27 41 62.5t15 74.5q0 44 -18.5 82.5t-49.5 67.5q-32 29 -74.5 46t-90.5 17t-90.5 -17t-73.5 -46t-49 -67.5t-18 -82.5q0 -40 14.5 -75.5t41.5 -63.5t64 -47t82 -25v-88h-287v-61h287v-257h64v257zM616 514
q0 -32 -13.5 -60t-36.5 -49q-22 -21 -53 -32.5t-65 -11.5q-35 0 -65 11.5t-52 32.5q-23 21 -35.5 49t-12.5 60q0 31 12.5 59t35.5 49q22 21 52 33t65 12q34 0 65 -12t53 -33q23 -21 36.5 -49t13.5 -59z" />
    <glyph glyph-name="angle" unicode="&#x2220;" horiz-adv-x="900" 
d="M814 -28v56h-618l562 565l-43 41l-604 -609q-3 -3 -7 -7.5t-8 -9.5t-6 -10t0 -9q2 -9 10.5 -13t16.5 -4h697z" />
    <glyph glyph-name="perpendicular" unicode="&#x22a5;" horiz-adv-x="900" 
d="M107 38v-58h684v58h-308v562h-68v-562h-308z" />
    <glyph glyph-name="uni2312" unicode="&#x2312;" horiz-adv-x="900" 
d="M807 551q-11 53 -43 98t-80 78t-109 51.5t-129 18.5t-129 -18.5t-108 -51.5q-48 -33 -80 -78t-42 -98h56q10 45 37.5 82t67.5 63t90.5 40.5t107.5 14.5q56 0 107 -14.5t92 -40.5q40 -27 68 -63.5t38 -81.5h56z" />
    <glyph glyph-name="partialdiff" unicode="&#x2202;" horiz-adv-x="900" 
d="M450 719q-31 0 -62.5 -15t-58.5 -42q-10 -11 -23 -32t-22 -42l67 -37q18 44 44 70t57 26q43 0 67.5 -36.5t24.5 -86.5q0 -15 -1.5 -29.5t-4.5 -32.5q-3 -19 -8 -45t-12 -64q-21 45 -51 65.5t-66 19.5q-38 -2 -73.5 -23.5t-62.5 -58.5t-43.5 -87.5t-16.5 -108.5
q0 -32 6.5 -55.5t18.5 -40.5q19 -27 52 -43t70 -16q42 0 83 29.5t71 86.5q21 41 39.5 93t32.5 105t22.5 104t8.5 90q0 93 -45 149.5t-114 56.5zM436 140q-17 -32 -39 -49.5t-49 -17.5q-38 0 -58 28.5t-20 70.5t11 77t36 68q16 24 36.5 39.5t44.5 15.5q36 0 55.5 -32.5
t19.5 -71.5q0 -30 -11 -64t-26 -64z" />
    <glyph glyph-name="gradient" unicode="&#x2207;" horiz-adv-x="900" 
d="M10 675l440 -761l439 761h-879zM450 17l-351 609h701z" />
    <glyph glyph-name="equivalence" unicode="&#x2261;" horiz-adv-x="900" 
d="M128 431h644v55h-644v-55zM127 272h645v56h-645v-56zM127 114h645v55h-645v-55z" />
    <glyph glyph-name="uni2252" unicode="&#x2252;" horiz-adv-x="900" 
d="M86 415v-62h728v62h-728zM86 247v-62h728v62h-728zM178 564q0 -30 20 -50.5t50 -20.5t51 20.5t21 50.5t-21 51t-51 21t-50 -21t-20 -51zM581 37q0 -30 20.5 -51t50.5 -21q28 0 49.5 21t21.5 51q0 28 -21.5 49.5t-49.5 21.5q-30 0 -50.5 -21.5t-20.5 -49.5z" />
    <glyph glyph-name="section" unicode="&#xa7;" horiz-adv-x="900" 
d="M626 -1q0 21 -11.5 45t-27.5 42q-14 15 -37 33.5t-49 38.5h7q45 -1 76 32.5t31 81.5q0 21 -6.5 40t-22.5 39q-15 20 -41 44t-64 55q-76 60 -104.5 94.5t-28.5 65.5q0 33 23 53.5t65 20.5q33 0 56.5 -16.5t23.5 -36.5q0 -6 -1.5 -11t-3.5 -10t-3 -10t-1 -10q0 -24 13 -39
t34 -15q20 0 33 15.5t13 38.5q0 28 -13 53t-35 44q-22 18 -51.5 29t-62.5 11q-31 0 -59 -11t-49 -30t-33 -44t-12 -52q0 -37 27.5 -78t81.5 -86q-3 0 -5.5 0.5t-4.5 0.5q-3 0 -5 0.5t-4 0.5q-42 0 -71.5 -33.5t-29.5 -78.5q0 -22 7.5 -43.5t23.5 -39.5q18 -24 55.5 -56.5
t85.5 -68.5q33 -25 62.5 -50t37.5 -37q5 -7 7 -15t2 -19q0 -27 -26.5 -47.5t-65.5 -20.5q-34 0 -57.5 16.5t-23.5 37.5q0 4 1 9l2 10q1 6 2.5 11.5t1.5 11.5q0 20 -13 34.5t-32 14.5q-22 0 -36 -15t-14 -37q0 -27 14.5 -50.5t39.5 -41.5t57.5 -28t68.5 -10q63 0 107.5 33
t44.5 84zM545 247q0 -27 -14.5 -42t-39.5 -15q-21 0 -38 8t-44 29q-37 28 -54 53.5t-17 49.5q0 26 20.5 44t51.5 18h10q2 0 5.5 -2t6.5 -4q4 -2 7 -4t5 -3q10 -8 18.5 -14.5t16.5 -13.5q9 -6 16.5 -14t16.5 -17q18 -21 25.5 -37.5t7.5 -35.5z" />
    <glyph glyph-name="uni203B" unicode="&#x203b;" horiz-adv-x="900" 
d="M694 309q0 -27 18.5 -43.5t42.5 -16.5q27 0 45.5 17t18.5 44t-18.5 44t-45.5 17q-26 0 -43.5 -18.5t-17.5 -43.5zM80 309q0 -27 18.5 -43.5t45.5 -16.5q25 0 43 17t18 44t-18.5 44t-42.5 17q-28 0 -46 -18.5t-18 -43.5zM387 617q0 -26 18.5 -44t44.5 -18q27 0 44.5 18
t17.5 44t-19 44.5t-43 18.5q-29 0 -46 -18.5t-17 -44.5zM387 3q0 -27 18.5 -45t44.5 -18q27 0 44.5 18t17.5 46q0 24 -19 42t-43 18q-29 0 -46 -18.5t-17 -42.5zM807 627l-41 41l-316 -315l-317 315l-41 -41l315 -317l-315 -317l41 -41l317 315l316 -315l41 41l-315 317z
" />
    <glyph glyph-name="uni2606" unicode="&#x2606;" horiz-adv-x="900" 
d="M728 -101l-107 327l288 205h-355l-100 306l-108 -306h-353l281 -203l-116 -331l290 207zM453 568l58 -190h235l-190 -129l67 -205l-177 127l-180 -128l73 207l-182 128h227z" />
    <glyph glyph-name="uni2605" unicode="&#x2605;" horiz-adv-x="900" 
d="M617 233l284 201h-350l-98 300l-106 -300h-347l275 -200l-113 -324l285 202l276 -201z" />
    <glyph glyph-name="circle" unicode="&#x25cb;" horiz-adv-x="900" 
d="M450 -99q82 0 155 31t127 86q55 54 86.5 127t31.5 156t-31.5 156t-86.5 127q-54 54 -127 85.5t-155 31.5q-83 0 -156 -31.5t-127 -86.5q-55 -54 -86 -127t-31 -155q0 -83 31 -156t86 -127q54 -55 127 -86t156 -31zM450 652q72 0 135.5 -28t111.5 -76q47 -47 75 -111
t28 -136q0 -73 -28 -137t-75 -111q-48 -48 -111.5 -75.5t-135.5 -27.5q-73 0 -137 27.5t-111 75.5q-48 47 -75.5 111t-27.5 137q0 72 27.5 136t75.5 112q47 47 111 75t137 28z" />
    <glyph glyph-name="H18533" unicode="&#x25cf;" horiz-adv-x="900" 
d="M847 301q0 82 -31.5 154.5t-84.5 126.5q-54 54 -126.5 85.5t-154.5 31.5q-83 0 -155.5 -31.5t-126.5 -85.5t-85 -126.5t-31 -154.5q0 -83 31 -155.5t85 -126.5t126.5 -85t155.5 -31q82 0 154.5 31t126.5 85q53 54 84.5 126.5t31.5 155.5z" />
    <glyph glyph-name="uni25CE" unicode="&#x25ce;" horiz-adv-x="900" 
d="M450 62q49 0 92 18.5t76 50.5q32 32 51 75.5t19 93.5q0 49 -19 92.5t-51 75.5q-33 32 -76 51t-92 19q-50 0 -93.5 -19t-75.5 -51t-50.5 -75.5t-18.5 -92.5q0 -50 18.5 -93.5t50.5 -75.5t75.5 -50.5t93.5 -18.5zM450 488q39 0 73 -15t59 -40q25 -26 40 -60t15 -73
t-15 -73.5t-40 -59.5q-25 -26 -59 -40.5t-73 -14.5t-73.5 14.5t-59.5 40.5q-26 25 -40.5 59.5t-14.5 73.5t14.5 73t40.5 60q25 25 59.5 40t73.5 15zM450 -99q82 0 155 31t127 86q55 54 86.5 127t31.5 156t-31.5 156t-86.5 127q-54 54 -127 85.5t-155 31.5q-83 0 -156 -31.5
t-127 -86.5q-55 -54 -86 -127t-31 -155q0 -83 31 -156t86 -127q54 -55 127 -86t156 -31zM450 652q72 0 135.5 -28t111.5 -76q47 -47 75 -111t28 -136q0 -73 -28 -137t-75 -111q-48 -48 -111.5 -75.5t-135.5 -27.5q-73 0 -137 27.5t-111 75.5q-48 47 -75.5 111t-27.5 137
q0 72 27.5 136t75.5 112q47 47 111 75t137 28z" />
    <glyph glyph-name="uni25C7" unicode="&#x25c7;" horiz-adv-x="900" 
d="M16 300l434 -434l433 434l-433 434zM87 300l363 363l362 -363l-362 -363z" />
    <glyph glyph-name="uni25C6" unicode="&#x25c6;" horiz-adv-x="900" 
d="M450 -130l429 430l-429 430l-430 -430z" />
    <glyph glyph-name="H22073" unicode="&#x25a1;" horiz-adv-x="900" 
d="M72 678v-756h755v756h-755zM122 628h656v-656h-656v656z" />
    <glyph glyph-name="filledbox" unicode="&#x25a0;" horiz-adv-x="900" 
d="M74 -76h751v752h-751v-752z" />
    <glyph glyph-name="uni25B3" unicode="&#x25b3;" horiz-adv-x="900" 
d="M450 687l-440 -761h879zM99 -25l351 609l350 -609h-701z" />
    <glyph glyph-name="triagup" unicode="&#x25b2;" horiz-adv-x="900" 
d="M14 -72h871l-435 754z" />
    <glyph glyph-name="uni25BD" unicode="&#x25bd;" horiz-adv-x="900" 
d="M10 675l440 -761l439 761h-879zM450 17l-351 609h701z" />
    <glyph glyph-name="triagdn" unicode="&#x25bc;" horiz-adv-x="900" 
d="M450 -81l435 754h-871z" />
    <glyph glyph-name="arrowright" unicode="&#x2192;" horiz-adv-x="900" 
d="M580 181l311 122l-311 117l30 -93h-590v-55h590z" />
    <glyph glyph-name="arrowleft" unicode="&#x2190;" horiz-adv-x="900" 
d="M294 273h589v55h-589l30 92l-312 -117l312 -122z" />
    <glyph glyph-name="arrowup" unicode="&#x2191;" horiz-adv-x="900" 
d="M478 488l92 -30l-120 312l-121 -312l94 30v-641h55v641z" />
    <glyph glyph-name="arrowdown" unicode="&#x2193;" horiz-adv-x="900" 
d="M450 -169l120 313l-94 -30v641h-55v-642l-92 30z" />
    <glyph glyph-name="arrowboth" unicode="&#x2194;" horiz-adv-x="900" 
d="M629 144l273 156l-273 155l30 -127h-420l30 127l-272 -155l272 -156l-30 128h420z" />
    <glyph glyph-name="uni3013" unicode="&#x3013;" horiz-adv-x="900" 
d="M784 386v56h-669v-56h669zM784 158v56h-669v-56h669z" />
    <glyph glyph-name="uni226A" unicode="&#x226a;" horiz-adv-x="900" 
d="M851 -30l-476 330l473 327l-32 44l-493 -345l-7 -4q-3 -2 -5.5 -4.5l-5.5 -5.5q-2 -3 -3.5 -6t-1.5 -6q0 -8 5 -13.5t11 -8.5q63 -43 122 -84t119 -83q60 -43 123.5 -88t134.5 -94zM610 -30l-474 330l472 327l-32 44l-493 -345l-7 -4q-3 -2 -5.5 -4.5l-5.5 -5.5
q-2 -3 -3.5 -6t-1.5 -6q0 -8 5 -13.5t11 -8.5q63 -43 122.5 -84t119.5 -83q60 -43 123 -88t134 -94z" />
    <glyph glyph-name="uni226B" unicode="&#x226b;" horiz-adv-x="900" 
d="M837 300q0 6 -6 12t-11 10l-6 4l-494 345l-32 -44l473 -327l-476 -330l35 -41l494 345q1 1 3 2t3 2q2 1 3.5 2.5l3.5 3.5q3 2 6.5 6t3.5 10zM598 300q0 6 -6 12t-11 10l-8 4l-493 345l-32 -44l472 -327l-474 -330l35 -41l492 345q4 2 7.5 4.5t7.5 5.5l2.5 2.5l3.5 3.5
q1 2 2.5 4.5t1.5 5.5z" />
    <glyph glyph-name="radical" unicode="&#x221a;" horiz-adv-x="900" 
d="M538 730h299v45h-336l-217 -700l-127 328l-114 -119l20 -32l54 58l158 -406z" />
    <glyph glyph-name="uni223D" unicode="&#x223d;" horiz-adv-x="900" 
d="M848 288q1 48 -15.5 84.5t-43.5 61.5t-61.5 38t-68.5 15q-78 2 -125.5 -37.5t-83.5 -99.5q-17 -27 -35 -60t-41 -61q-24 -29 -53 -47t-67 -16q-67 3 -99 44.5t-31 90.5q0 48 32 88t94 40q19 0 37 -5t31 -10q14 -6 22.5 -11t9.5 -5l29 51q-4 2 -14 8.5t-26 13.5
q-15 7 -36.5 12.5t-48.5 5.5q-44 0 -79 -16t-59 -41q-25 -26 -39 -58.5t-15 -66.5q-2 -48 14.5 -84t43.5 -61t61 -38.5t69 -15.5q53 -3 92.5 16.5t67.5 47.5q28 29 45.5 58.5t26.5 47.5q13 26 28.5 53t36.5 49q20 21 47 34t63 12q60 -3 94 -43.5t34 -100.5
q-1 -45 -36.5 -79.5t-87.5 -34.5q-19 0 -37 4.5t-32 10.5t-22.5 11.5t-9.5 6.5l-29 -55q3 -3 13 -9.5t26 -13.5t37.5 -12t48.5 -5q43 0 78 14.5t60 38.5q25 25 38.5 58t15.5 71z" />
    <glyph glyph-name="proportional" unicode="&#x221d;" horiz-adv-x="900" 
d="M811 143l-37 49q-21 -15 -40 -21t-45 -6q-42 0 -71.5 18t-48.5 41t-28.5 45t-12.5 31q3 8 12.5 30t28.5 45q19 24 48.5 42t71.5 18q27 0 45 -5.5t41 -22.5l34 50q-30 21 -58.5 30.5t-61.5 9.5q-41 0 -73.5 -14t-56.5 -34t-40 -41.5t-25 -36.5q-9 15 -24.5 36.5
t-39.5 41.5t-56 34t-72 14q-42 0 -79 -15.5t-64 -42.5q-28 -27 -43.5 -63t-15.5 -76q0 -41 15.5 -77t43.5 -63q27 -27 64 -42t79 -15q40 0 72 13.5t55 33.5q24 19 40 40.5t25 37.5q9 -16 24.5 -37.5t39.5 -41.5q23 -19 55.5 -32.5t75.5 -13.5q34 0 61.5 9t60.5 31zM461 300
q-4 -9 -15 -31t-30 -46q-20 -23 -48.5 -40.5t-65.5 -17.5q-29 0 -54.5 10.5t-44.5 28.5t-30 42.5t-11 53.5q0 28 11 52.5t30 42.5t44.5 29t54.5 11q37 0 65.5 -18t48.5 -41q19 -24 30 -46z" />
    <glyph glyph-name="uni2235" unicode="&#x2235;" horiz-adv-x="900" 
d="M718 597q-29 0 -50 -20.5t-21 -49.5q0 -30 21 -50.5t50 -20.5t50 20.5t21 50.5q0 29 -21 49.5t-50 20.5zM456 154q-29 0 -50 -20.5t-21 -49.5q0 -30 21 -50.5t50 -20.5q30 0 50.5 20.5t20.5 50.5q0 29 -20.5 49.5t-50.5 20.5zM181 597q-30 0 -50.5 -20.5t-20.5 -49.5
q0 -30 20.5 -50.5t50.5 -20.5q29 0 50 20.5t21 50.5q0 29 -21 49.5t-50 20.5z" />
    <glyph glyph-name="integral" unicode="&#x222b;" horiz-adv-x="900" 
d="M580 731q-38 0 -69.5 -16.5t-52.5 -46.5q-21 -31 -32 -88t-11 -131q0 -39 2 -85t6 -94q0 -5 0.5 -8t0.5 -6t0.5 -5.5t0.5 -4.5q0 -5 0.5 -8.5t0.5 -7.5t0.5 -8t1.5 -10l1 -35v-10.5t1 -11.5q1 -7 1.5 -12.5t0.5 -9.5q0 -36 -8.5 -70.5t-22.5 -62.5q-14 -27 -32.5 -43.5
t-39.5 -16.5q-13 0 -16.5 6t-3.5 20q-2 26 -15.5 40t-35.5 14q-23 0 -36.5 -13.5t-13.5 -32.5q0 -30 22 -48.5t62 -18.5q63 0 113.5 37t70.5 100q10 29 16 78.5t6 108.5q0 37 -2 76t-5 86q-2 20 -3 41t-2 41q-1 19 -1.5 35.5t-0.5 27.5q0 38 5.5 65.5t18.5 54.5
q11 23 22 34.5t28 11.5q11 0 16 -6t5 -17v-20q0 -23 12 -35t35 -12q21 0 36.5 14.5t15.5 37.5q0 27 -26.5 46t-71.5 19z" />
    <glyph glyph-name="uni222C" unicode="&#x222c;" horiz-adv-x="900" 
d="M696 730q-32 0 -61 -18.5t-52 -49.5q-22 -31 -35 -72.5t-12 -86.5l2 -111l4 -110l2 -111q0 -3 -0.5 -6t-0.5 -7t-0.5 -9.5t-0.5 -12.5q-2 -8 -2.5 -14.5t-1.5 -12.5t-1.5 -11.5t-0.5 -10.5q-6 -32 -13.5 -59.5t-16.5 -51.5q-7 -16 -16.5 -26.5t-19.5 -10.5q-5 0 -11 6
t-9 18q-6 17 -15.5 24t-23.5 7q-16 0 -27 -11.5t-11 -28.5q0 -21 15 -35t42 -14q36 0 72.5 25.5t57.5 66.5q21 43 32 99.5t11 129.5v30l-0.5 10t-0.5 25t-0.5 32.5t-0.5 32.5l-2 94l-1 95q0 15 1.5 33.5t6.5 35.5q0 2 0.5 3.5t0.5 3.5q1 2 1 3.5t1 4.5t2 5.5l3 7.5l5.5 11
t8.5 19q5 9 10 15.5t7 6.5q1 0 6.5 -6.5t10.5 -18.5q6 -18 19 -27t29 -9q21 0 34 12.5t13 30.5q0 21 -18 37.5t-43 16.5zM481 730q-36 0 -71.5 -26t-56.5 -69q-18 -34 -25.5 -73.5t-4.5 -114.5l2 -83l2 -83l2 -83q0 -57 -10 -118.5t-28 -104.5q-6 -13 -16 -25t-19 -12
q-6 0 -12 6t-9 19q-5 18 -14.5 26t-23.5 8q-16 0 -27.5 -13t-11.5 -30q0 -20 14.5 -34t38.5 -14q34 0 73.5 26.5t60.5 65.5q21 42 32.5 100.5t11.5 134.5v26v11.5t-1 27.5q0 19 -1 55t-2 99l-2 94q0 23 4.5 48.5t12.5 46.5q7 18 18 35.5t14 17.5q1 0 6.5 -6.5t8.5 -18.5
q6 -17 19.5 -26.5t29.5 -9.5q18 0 30 11.5t12 31.5q0 21 -16.5 37.5t-40.5 16.5z" />
    <glyph glyph-name="element" unicode="&#x2208;" horiz-adv-x="900" 
d="M802 272v56h-667q2 31 16.5 66.5t44.5 65.5q29 30 73 50t105 20h429v55h-419q-72 0 -129 -22.5t-97 -60.5t-61 -90t-21 -112q0 -61 21 -113t61 -90q40 -39 97 -60.5t129 -21.5h419v55h-429q-61 0 -105 19t-73 49q-30 30 -44.5 65.5t-16.5 68.5h667z" />
    <glyph glyph-name="suchthat" unicode="&#x220b;" horiz-adv-x="900" 
d="M97 272h667q-3 -33 -17.5 -68.5t-43.5 -65.5t-73 -49t-104 -19h-430v-55h419q72 0 129 21.5t97 60.5q40 38 61.5 90t21.5 113q0 60 -21.5 112t-61.5 90t-97 60.5t-129 22.5h-419v-55h430q60 0 104 -20t73 -50t43.5 -65.5t17.5 -66.5h-667v-56z" />
    <glyph glyph-name="reflexsubset" unicode="&#x2286;" horiz-adv-x="900" 
d="M378 126h438v66h-445q-66 0 -112 16t-74 42q-29 27 -41.5 61t-12.5 70q0 34 12.5 68t40.5 61q29 27 74.5 44t112.5 17h445v65h-433q-81 0 -141 -20.5t-100 -54.5q-40 -35 -59.5 -81.5t-19.5 -98.5q0 -54 19.5 -100.5t58.5 -81.5q39 -34 98 -54t139 -20v1zM63 -36h773v66
h-773v-66z" />
    <glyph glyph-name="reflexsuperset" unicode="&#x2287;" horiz-adv-x="900" 
d="M517 126q81 0 140.5 19.5t99.5 54.5q40 34 59.5 80.5t19.5 100.5q0 52 -20 98.5t-60 81.5q-40 34 -100 54.5t-139 20.5h-434v-66h445q65 0 111 -16.5t75 -43.5q28 -27 41.5 -61t13.5 -68q0 -36 -13.5 -70t-41.5 -61q-29 -27 -75 -43t-111 -16h-445v-66zM63 -36h773v66
h-773v-66z" />
    <glyph glyph-name="propersubset" unicode="&#x2282;" horiz-adv-x="900" 
d="M378 5h438v66h-444q-64 0 -109.5 21t-74.5 53q-29 33 -42.5 72.5t-13.5 77.5v10q0 36 13.5 76t42.5 73t74.5 54.5t109.5 21.5h444v66h-433q-74 0 -133 -23t-101 -63q-41 -40 -63.5 -94t-22.5 -116q0 -63 22.5 -117t63.5 -94t99 -62.5t130 -22.5v1z" />
    <glyph glyph-name="propersuperset" unicode="&#x2283;" horiz-adv-x="900" 
d="M517 5q73 0 132 22.5t100 61.5q42 40 64.5 94t22.5 117q0 62 -22.5 116t-64.5 94q-41 40 -100 63t-132 23h-434v-67h444q64 0 109.5 -21.5t74.5 -54.5t42.5 -72.5t13.5 -75.5v-10q0 -38 -13.5 -77.5t-42.5 -72.5t-74.5 -54t-109.5 -21h-444v-66z" />
    <glyph glyph-name="union" unicode="&#x222a;" horiz-adv-x="900" 
d="M732 233v434h-68v-445q0 -64 -21.5 -109.5t-54.5 -74.5q-32 -29 -71.5 -42.5t-75.5 -13.5h-11q-37 0 -76.5 13.5t-72.5 42.5t-54 74.5t-21 109.5v445h-66v-434q0 -74 22.5 -133t62.5 -101q40 -41 94 -63.5t117 -22.5q61 0 115 22.5t94 63.5q40 42 63.5 101t23.5 133z" />
    <glyph glyph-name="intersection" unicode="&#x2229;" horiz-adv-x="900" 
d="M680 -67h65v434q0 73 -23 132t-63 101q-39 42 -93 64.5t-116 22.5q-63 0 -117 -22.5t-94 -64.5t-62.5 -101t-22.5 -132v-434h67v445q0 63 21 108.5t53 74.5q33 29 72.5 43t77.5 14h10q36 0 76 -14t73 -43t54.5 -74.5t21.5 -108.5v-445z" />
    <glyph glyph-name="logicaland" unicode="&#x2227;" horiz-adv-x="900" 
d="M745 -60l58 32l-321 659q-6 9 -14 18.5t-18 9.5t-20 -12t-12 -16l-321 -659l57 -32l296 606z" />
    <glyph glyph-name="logicalor" unicode="&#x2228;" horiz-adv-x="900" 
d="M803 630l-58 32l-295 -606l-296 606l-57 -32l321 -659q2 -5 12 -16.5t20 -11.5t18 9t14 19z" />
    <glyph glyph-name="uniFFE2" unicode="&#xffe2;" horiz-adv-x="900" 
d="M641 166v283h-409v-52h356v-231h53z" />
    <glyph glyph-name="uniE10D" unicode="&#xe10d;" horiz-adv-x="900" 
 />
    <glyph glyph-name="uniE10E" unicode="&#xe10e;" horiz-adv-x="900" 
 />
    <glyph glyph-name="uniE10F" unicode="&#xe10f;" horiz-adv-x="900" 
 />
    <glyph glyph-name="uniE110" unicode="&#xe110;" horiz-adv-x="900" 
 />
    <glyph glyph-name="uniE111" unicode="&#xe111;" horiz-adv-x="900" 
 />
    <glyph glyph-name="uniE112" unicode="&#xe112;" horiz-adv-x="900" 
 />
    <glyph glyph-name="uniE113" unicode="&#xe113;" horiz-adv-x="900" 
 />
    <glyph glyph-name="uniE114" unicode="&#xe114;" horiz-adv-x="900" 
 />
    <glyph glyph-name="uniE115" unicode="&#xe115;" horiz-adv-x="900" 
 />
    <glyph glyph-name="uniE116" unicode="&#xe116;" horiz-adv-x="900" 
 />
    <glyph glyph-name="uniE117" unicode="&#xe117;" horiz-adv-x="900" 
 />
    <glyph glyph-name="uniE118" unicode="&#xe118;" horiz-adv-x="900" 
 />
    <glyph glyph-name="uniEE68" unicode="&#xee68;" horiz-adv-x="900" 
 />
    <glyph glyph-name="uniEE69" unicode="&#xee69;" horiz-adv-x="900" 
 />
    <glyph glyph-name="uniEE6A" unicode="&#xee6a;" horiz-adv-x="900" 
 />
    <glyph glyph-name="uniEE6B" unicode="&#xee6b;" horiz-adv-x="900" 
 />
    <glyph glyph-name="uniEE6C" unicode="&#xee6c;" horiz-adv-x="900" 
 />
    <glyph glyph-name="uniEE6D" unicode="&#xee6d;" horiz-adv-x="900" 
 />
    <glyph glyph-name="uniEE6E" unicode="&#xee6e;" horiz-adv-x="900" 
 />
    <glyph glyph-name="uniEE6F" unicode="&#xee6f;" horiz-adv-x="900" 
 />
    <glyph glyph-name="uniEE70" unicode="&#xee70;" horiz-adv-x="900" 
 />
    <glyph glyph-name="uniEE71" unicode="&#xee71;" horiz-adv-x="900" 
 />
    <glyph glyph-name="uniEE72" unicode="&#xee72;" horiz-adv-x="900" 
 />
    <glyph glyph-name="uniEE73" unicode="&#xee73;" horiz-adv-x="900" 
 />
    <glyph glyph-name="uniEE74" unicode="&#xee74;" horiz-adv-x="900" 
 />
    <glyph glyph-name="uniEE75" unicode="&#xee75;" horiz-adv-x="900" 
 />
    <glyph glyph-name="uniEE76" unicode="&#xee76;" horiz-adv-x="900" 
 />
    <glyph glyph-name="uniEE77" unicode="&#xee77;" horiz-adv-x="900" 
 />
    <glyph glyph-name="uniEE78" unicode="&#xee78;" horiz-adv-x="900" 
 />
    <glyph glyph-name="uniEE79" unicode="&#xee79;" horiz-adv-x="900" 
 />
    <glyph glyph-name="uniEE7A" unicode="&#xee7a;" horiz-adv-x="900" 
 />
    <glyph glyph-name="uniEE7B" unicode="&#xee7b;" horiz-adv-x="900" 
 />
    <glyph glyph-name="uniEE7C" unicode="&#xee7c;" horiz-adv-x="900" 
 />
    <glyph glyph-name="uniEE7D" unicode="&#xee7d;" horiz-adv-x="900" 
 />
    <glyph glyph-name="uniEE7E" unicode="&#xee7e;" horiz-adv-x="900" 
 />
    <glyph glyph-name="uniEE7F" unicode="&#xee7f;" horiz-adv-x="900" 
 />
    <glyph glyph-name="uniEE80" unicode="&#xee80;" horiz-adv-x="900" 
 />
    <glyph glyph-name="uniEE81" unicode="&#xee81;" horiz-adv-x="900" 
 />
    <glyph glyph-name="uniEE82" unicode="&#xee82;" horiz-adv-x="900" 
 />
    <glyph glyph-name="uniEE83" unicode="&#xee83;" horiz-adv-x="900" 
 />
    <glyph glyph-name="uniEE84" unicode="&#xee84;" horiz-adv-x="900" 
 />
    <glyph glyph-name="uniEE85" unicode="&#xee85;" horiz-adv-x="900" 
 />
    <glyph glyph-name="uniEE86" unicode="&#xee86;" horiz-adv-x="900" 
 />
    <glyph glyph-name="uniEE87" unicode="&#xee87;" horiz-adv-x="900" 
 />
    <glyph glyph-name="uniEE88" unicode="&#xee88;" horiz-adv-x="900" 
 />
    <glyph glyph-name="uniEE89" unicode="&#xee89;" horiz-adv-x="900" 
 />
    <glyph glyph-name="uniEE8A" unicode="&#xee8a;" horiz-adv-x="900" 
 />
    <glyph glyph-name="uniEE8B" unicode="&#xee8b;" horiz-adv-x="900" 
 />
    <glyph glyph-name="uniEE8C" unicode="&#xee8c;" horiz-adv-x="900" 
 />
    <glyph glyph-name="uniEE8D" unicode="&#xee8d;" horiz-adv-x="900" 
 />
    <glyph glyph-name="uniEE8E" unicode="&#xee8e;" horiz-adv-x="900" 
 />
    <glyph glyph-name="uniEE8F" unicode="&#xee8f;" horiz-adv-x="900" 
 />
    <glyph glyph-name="uniEE90" unicode="&#xee90;" horiz-adv-x="900" 
 />
    <glyph glyph-name="uniEE91" unicode="&#xee91;" horiz-adv-x="900" 
 />
    <glyph glyph-name="uniEE92" unicode="&#xee92;" horiz-adv-x="900" 
 />
    <glyph glyph-name="uniEE93" unicode="&#xee93;" horiz-adv-x="900" 
 />
    <glyph glyph-name="uniEE94" unicode="&#xee94;" horiz-adv-x="900" 
 />
    <glyph glyph-name="uniEE95" unicode="&#xee95;" horiz-adv-x="900" 
 />
    <glyph glyph-name="uniEE96" unicode="&#xee96;" horiz-adv-x="900" 
 />
    <glyph glyph-name="uniEE97" unicode="&#xee97;" horiz-adv-x="900" 
 />
    <glyph glyph-name="uniEE98" unicode="&#xee98;" horiz-adv-x="900" 
 />
    <glyph glyph-name="uniEE99" unicode="&#xee99;" horiz-adv-x="900" 
 />
    <glyph glyph-name="uniEE9A" unicode="&#xee9a;" horiz-adv-x="900" 
 />
    <glyph glyph-name="uniEE9B" unicode="&#xee9b;" horiz-adv-x="900" 
 />
    <glyph glyph-name="uniEE9C" unicode="&#xee9c;" horiz-adv-x="900" 
 />
    <glyph glyph-name="uniEE9D" unicode="&#xee9d;" horiz-adv-x="900" 
 />
    <glyph glyph-name="uniEE9E" unicode="&#xee9e;" horiz-adv-x="900" 
 />
    <glyph glyph-name="uniEE9F" unicode="&#xee9f;" horiz-adv-x="900" 
 />
    <glyph glyph-name="uniEEA0" unicode="&#xeea0;" horiz-adv-x="900" 
 />
    <glyph glyph-name="uniEEA1" unicode="&#xeea1;" horiz-adv-x="900" 
 />
    <glyph glyph-name="uniEEA2" unicode="&#xeea2;" horiz-adv-x="900" 
 />
    <glyph glyph-name="uniEEA3" unicode="&#xeea3;" horiz-adv-x="900" 
 />
    <glyph glyph-name="uniEEA4" unicode="&#xeea4;" horiz-adv-x="900" 
 />
    <glyph glyph-name="uniEEA5" unicode="&#xeea5;" horiz-adv-x="900" 
 />
    <glyph glyph-name="uniEEA6" unicode="&#xeea6;" horiz-adv-x="900" 
 />
    <glyph glyph-name="uniEEA7" unicode="&#xeea7;" horiz-adv-x="900" 
 />
    <glyph glyph-name="uniEEA8" unicode="&#xeea8;" horiz-adv-x="900" 
 />
    <glyph glyph-name="uniEEA9" unicode="&#xeea9;" horiz-adv-x="900" 
 />
    <glyph glyph-name="uniEEAA" unicode="&#xeeaa;" horiz-adv-x="900" 
 />
    <glyph glyph-name="uniEEAB" unicode="&#xeeab;" horiz-adv-x="900" 
 />
    <glyph glyph-name="uniEEAC" unicode="&#xeeac;" horiz-adv-x="900" 
 />
    <glyph glyph-name="uniEEAD" unicode="&#xeead;" horiz-adv-x="900" 
 />
    <glyph glyph-name="uniEEAE" unicode="&#xeeae;" horiz-adv-x="900" 
 />
    <glyph glyph-name="uniEEAF" unicode="&#xeeaf;" horiz-adv-x="900" 
 />
    <glyph glyph-name="uniEEB0" unicode="&#xeeb0;" horiz-adv-x="900" 
 />
    <glyph glyph-name="uniEEB1" unicode="&#xeeb1;" horiz-adv-x="900" 
 />
    <glyph glyph-name="uniEEB2" unicode="&#xeeb2;" horiz-adv-x="900" 
 />
    <glyph glyph-name="uniEEB3" unicode="&#xeeb3;" horiz-adv-x="900" 
 />
    <glyph glyph-name="uniEEB4" unicode="&#xeeb4;" horiz-adv-x="900" 
 />
    <glyph glyph-name="uniEEB5" unicode="&#xeeb5;" horiz-adv-x="900" 
 />
    <glyph glyph-name="uniEEB6" unicode="&#xeeb6;" horiz-adv-x="900" 
 />
    <glyph glyph-name="uniEEB7" unicode="&#xeeb7;" horiz-adv-x="900" 
 />
    <glyph glyph-name="uniEEB8" unicode="&#xeeb8;" horiz-adv-x="900" 
 />
    <glyph glyph-name="arrowdblright" unicode="&#x21d2;" horiz-adv-x="900" 
d="M570 50l38 -38l288 287l-288 287l-38 -38l124 -123h-680v-51h730l77 -75l-77 -75h-730v-51h680z" />
    <glyph glyph-name="arrowdblboth" unicode="&#x21d4;" horiz-adv-x="900" 
d="M580 50l38 -38l282 287l-282 287l-38 -38l121 -123h-498l121 123l-39 38l-281 -287l281 -287l39 38l-121 123h498zM152 374h600l74 -75l-74 -75h-600l-75 75z" />
    <glyph glyph-name="universal" unicode="&#x2200;" horiz-adv-x="900" 
d="M769 671h-76l-72 -190h-335l-71 192h-76l269 -737h92zM597 410l-144 -388l-142 388h286z" />
    <glyph glyph-name="existential" unicode="&#x2203;" horiz-adv-x="900" 
d="M706 -63v734h-471v-72h397v-272h-372v-70h372v-250h-386v-70h460z" />
    <glyph glyph-name="acute" unicode="&#xb4;" horiz-adv-x="900" 
d="M558 860q-13 16 -31 12t-30 -13q-8 -5 -32 -28t-51 -50q-27 -26 -49.5 -48t-24.5 -24q2 -4 33.5 6.5t70.5 29.5q36 17 70 35.5t43 30.5q8 10 9.5 22.5t-8.5 26.5z" />
    <glyph glyph-name="uniFF5E" unicode="&#xff5e;" horiz-adv-x="900" 
d="M675 820q6 15 -4.5 23t-17.5 -3q-14 -21 -44.5 -43.5t-63.5 -19.5q-11 0 -20 3.5t-18 9.5q-9 5 -17.5 11t-16.5 12q-18 13 -39.5 25t-50.5 14q-23 1 -45 -10.5t-40 -28.5q-18 -16 -31.5 -34t-18.5 -29q-8 -18 5.5 -21t19.5 3q32 38 60.5 53.5t67.5 8.5q8 -2 16 -6.5
t16 -9.5q7 -5 14.5 -11t14.5 -10q15 -12 35.5 -23t49.5 -12q22 -1 43.5 10.5t38.5 27.5t29 32.5t17 27.5z" />
    <glyph glyph-name="caron" unicode="&#x2c7;" horiz-adv-x="900" 
d="M652 827q21 17 10 28t-35 -1l-178 -92l-177 91q-25 12 -35.5 1t10.5 -28l190 -152q6 -5 13 -5.5t13 5.5z" />
    <glyph glyph-name="breve" unicode="&#x2d8;" horiz-adv-x="900" 
d="M661 843l-50 18q-34 -49 -71 -70t-88 -22q-56 -2 -97 20t-77 76l-45 -28q45 -68 99 -97t125 -25q66 3 114 32.5t90 95.5z" />
    <glyph glyph-name="hungarumlaut" unicode="&#x2dd;" horiz-adv-x="900" 
d="M490 873q-9 13 -30 10t-30 -11q-15 -14 -33 -31t-37 -36q-19 -18 -36.5 -36.5t-32.5 -33.5q-6 -7 -5 -11t9 -3q6 1 31 11t56 25t60.5 32t46.5 32q9 7 9.5 22t-8.5 30zM658 873q-9 13 -30 10t-30 -11q-15 -14 -33 -31t-37 -36q-19 -18 -36.5 -36.5t-32.5 -33.5
q-6 -7 -5 -11t9 -3q6 1 31 11t56 25t60.5 32t46.5 32q9 7 9.5 22t-8.5 30z" />
    <glyph glyph-name="ring" unicode="&#x2da;" horiz-adv-x="900" 
d="M555 801q0 41 -30.5 70t-73.5 29t-73 -29t-30 -70q0 -42 30 -70.5t73 -28.5t73.5 28.5t30.5 70.5zM510 801q0 -23 -17.5 -39.5t-41.5 -16.5t-41 16.5t-17 39.5q0 22 17 39t41 17t41.5 -17t17.5 -39z" />
    <glyph glyph-name="dotaccent" unicode="&#x2d9;" horiz-adv-x="900" 
d="M518 775q0 27 -20.5 47.5t-47.5 20.5q-26 0 -47 -19.5t-21 -46.5t18.5 -48.5t48.5 -21.5q27 0 48 20t21 48z" />
    <glyph glyph-name="cedilla" unicode="&#xb8;" horiz-adv-x="900" 
d="M345 -258q26 -9 41.5 -13t27.5 -4q22 0 43.5 8.5t37.5 21.5q17 14 27 32t10 39t-10 36.5t-29 30.5l36 78h-92l-55 -120q35 -1 50 -13t15 -31q0 -15 -13 -27.5t-34 -12.5q-9 0 -20 1t-26 4z" />
    <glyph glyph-name="ogonek" unicode="&#x2db;" horiz-adv-x="900" 
d="M452 -248q30 0 52.5 26.5t22.5 59.5q0 6 -2.5 11t-8.5 5t-12 -6l-12 -12q-7 -7 -14.5 -12.5t-17.5 -5.5q-13 0 -22.5 10.5t-9.5 28.5t5 32.5t18 36.5l2.5 7.5t1.5 8.5t-3 7.5t-8 3.5q-2 0 -6.5 -2.5t-9.5 -6.5q-26 -23 -40 -50.5t-14 -53.5q0 -36 22.5 -62t55.5 -26z" />
    <glyph glyph-name="exclamdown" unicode="&#xa1;" horiz-adv-x="900" 
d="M422 462l-15 -483q-1 -23 -3.5 -53t-7.5 -56h110q-6 29 -8 57t-2 52l-15 483h-59zM391 650q0 -28 17.5 -45.5t41.5 -17.5t41.5 17.5t17.5 45.5t-17 46.5t-41 18.5t-42 -19t-18 -46z" />
    <glyph glyph-name="questiondown" unicode="&#xbf;" horiz-adv-x="900" 
d="M268 57q0 -42 14.5 -76t40.5 -58q25 -25 58.5 -38.5t71.5 -13.5q27 0 54.5 5t54.5 15q26 9 49.5 23.5t41.5 33.5l-36 52q-12 -11 -27.5 -21t-34.5 -18q-19 -9 -40.5 -14t-43.5 -5q-29 0 -50.5 8.5t-36.5 24.5q-15 15 -22 37.5t-7 49.5q0 22 7.5 44t20.5 43t30 39.5
t36 34.5q18 15 33 34t27 40t18.5 42t6.5 42q0 7 -0.5 19.5t-0.5 26.5q-1 13 -1.5 24t-1.5 16h-76v-61q0 -25 -5 -47t-14 -41q-10 -20 -25 -38t-36 -34q-24 -19 -43.5 -42.5t-33.5 -48.5q-14 -26 -21.5 -51.5t-7.5 -46.5zM416 654q0 -28 19 -46t41 -18q24 0 43.5 17.5
t19.5 46.5q0 28 -19 48t-43 20q-25 0 -43 -19.5t-18 -48.5z" />
    <glyph glyph-name="uni02D0" unicode="&#x2d0;" horiz-adv-x="900" 
d="M455 409l97 172h-197zM355 115h197l-97 172z" />
    <glyph glyph-name="uni222E" unicode="&#x222e;" horiz-adv-x="900" 
d="M680 648q0 30 -19.5 46t-52.5 16q-54 0 -93.5 -38.5t-60.5 -107.5q-8 -25 -13.5 -55.5t-10.5 -73.5q-62 -18 -93.5 -54t-31.5 -90q0 -52 29 -87t83 -50q-1 -14 -2 -25.5t-2 -20.5q0 -10 -0.5 -17t-0.5 -11q-2 -21 -5 -43.5t-7 -38.5q-12 -36 -30.5 -56.5t-32.5 -20.5
q-7 0 -10.5 3t-5.5 8l-2 12t-1 12q-5 19 -18.5 30t-33.5 11q-21 0 -34 -14t-13 -35q0 -30 22 -45t61 -15q51 0 87.5 25t57.5 76q11 24 18 61.5t10 99.5q64 12 98 48.5t34 93.5q0 52 -28 87t-85 53q2 17 3.5 30.5t2.5 23.5q0 11 1 18.5t2 12.5q3 24 5.5 40t5.5 28
q4 13 8.5 25t12.5 29q8 18 15 25t19 8q7 1 11.5 -3.5t6.5 -10.5q2 -7 3 -14.5t2 -11.5q1 -11 11 -20.5t31 -9.5t33.5 11.5t12.5 34.5zM575 294q0 -42 -23 -71t-72 -44v28v8v13q1 7 1.5 18t1.5 27l7 83v4.5v9.5t0.5 14t2.5 19q50 -27 66 -50t16 -59zM428 405q-2 -28 -4 -53
t-3 -50q-1 -26 -2 -53.5t-1 -61.5q-43 20 -62 44.5t-19 60.5q0 38 21.5 65t69.5 48z" />
    <glyph glyph-name="summation" unicode="&#x2211;" horiz-adv-x="900" 
d="M776 685h-467l-22 -75l180 -246l-297 -297l-16 -72h517l19 80h-419l291 279l-188 250h391z" />
    <glyph glyph-name="product" unicode="&#x220f;" horiz-adv-x="900" 
d="M774 562v79h-645v-79h142v-600h72v600h214v-600h72v600h145z" />
    <glyph glyph-name="currency" unicode="&#xa4;" horiz-adv-x="900" 
d="M450 572q56 0 105.5 -21.5t86.5 -58.5t59 -86.5t22 -105.5q0 -57 -22 -106.5t-59 -86.5t-86.5 -58t-105.5 -21q-57 0 -106.5 21t-86.5 58t-58 86.5t-21 106.5q0 56 21 105.5t58 86.5t86.5 58.5t106.5 21.5zM119 -70l117 118q42 -37 97.5 -58t116.5 -21t115.5 20.5
t97.5 57.5l117 -117l40 40l-117 118q36 42 56.5 96.5t20.5 115.5t-21 116.5t-59 98.5q5 5 24 23.5t39 38.5q21 21 38 37.5t19 18.5l-40 40l-118 -119q-43 36 -97.5 56.5t-114.5 20.5q-61 0 -115.5 -21t-96.5 -57l-119 120l-40 -40l118 -120q-36 -43 -56.5 -98t-20.5 -115
q0 -61 20 -115.5t56 -96.5l-117 -118z" />
    <glyph glyph-name="uni2109" unicode="&#x2109;" horiz-adv-x="900" 
d="M767 533v67h-432v-682h71v306h319v69h-319v240h361zM165 730q-48 0 -81.5 -34t-33.5 -81q0 -48 33.5 -81.5t81.5 -33.5q47 0 81 33.5t34 81.5q0 47 -34 81t-81 34zM165 551q-27 0 -45.5 18.5t-18.5 45.5t18.5 45.5t45.5 18.5t45.5 -18.5t18.5 -45.5t-18.5 -45.5
t-45.5 -18.5z" />
    <glyph glyph-name="perthousand" unicode="&#x2030;" horiz-adv-x="900" 
d="M629 172q-22 -31 -33 -64t-11 -64q0 -30 10.5 -56t32.5 -41q22 -16 50.5 -17.5t57.5 9.5q29 10 56.5 32t49.5 53q21 30 31.5 63t11.5 64q0 30 -10.5 56t-32.5 42q-24 15 -52 16.5t-56 -9.5q-29 -11 -56.5 -32.5t-48.5 -51.5zM100 560q-22 -31 -33 -64t-11 -64
q-1 -30 9.5 -56t33.5 -41q22 -16 50 -17.5t57 9.5q29 10 56.5 31.5t48.5 52.5q21 30 32 63.5t11 64.5q0 30 -10.5 56t-32.5 42q-23 15 -51 16t-56 -9q-29 -11 -56 -32.5t-48 -51.5zM642 673h-62l-560 -748h63zM325 173q-22 -31 -33.5 -64t-11.5 -64t11 -57t34 -41
q21 -16 49 -17t57 10q29 10 56.5 32t48.5 52t32 63t11 64q0 30 -10.5 56t-32.5 42q-23 15 -51 16.5t-56 -9.5q-29 -10 -56 -31.5t-48 -51.5zM792 58q-35 -50 -73 -68t-61 -2q-23 15 -18.5 58.5t38.5 91.5q34 47 71.5 65t60.5 3q24 -16 19.5 -58.5t-37.5 -89.5zM263 447
q-35 -51 -73.5 -69t-59.5 -1q-24 16 -20 58.5t38 90.5q33 47 71.5 65t60.5 3q23 -17 19 -58.5t-36 -88.5zM488 59q-35 -50 -73.5 -68t-59.5 -2q-24 15 -19.5 58.5t37.5 91.5q33 47 71 65t61 3q23 -17 18.5 -59t-35.5 -89z" />
    <glyph glyph-name="uni25C1" unicode="&#x25c1;" horiz-adv-x="900" 
d="M42 303l760 -439v880zM752 655v-702l-607 350z" />
    <glyph glyph-name="uni25C0" unicode="&#x25c0;" horiz-adv-x="900" 
d="M42 303l760 -439v880z" />
    <glyph glyph-name="uni25B7" unicode="&#x25b7;" horiz-adv-x="900" 
d="M87 -136l760 439l-760 441v-880zM137 655l607 -352l-607 -350v702z" />
    <glyph glyph-name="uni25B6" unicode="&#x25b6;" horiz-adv-x="900" 
d="M97 -136l760 439l-760 441v-880z" />
    <glyph glyph-name="uni2664" unicode="&#x2664;" horiz-adv-x="900" 
d="M794 216q0 71 -40.5 123.5t-91.5 95.5q-69 54 -128 139t-84 208q-27 -123 -85.5 -208t-126.5 -139q-52 -43 -92.5 -95.5t-40.5 -123.5q0 -67 41.5 -112.5t107.5 -45.5q39 0 69.5 9t54.5 24q-2 -63 -12 -100.5t-32 -57.5q-22 -21 -57 -29.5t-87 -12.5l-9 -25h537l-9 25
q-53 4 -88 12.5t-57 29.5q-22 20 -32 57.5t-11 100.5q23 -15 53.5 -24t70.5 -9q66 0 107.5 45.5t41.5 112.5zM735 206q-1 -50 -34.5 -76t-92.5 -20q-33 3 -73.5 28.5t-67.5 74.5q0 -65 1.5 -113t6.5 -83q5 -36 15 -61.5t27 -43.5h-134q16 18 26 43.5t15 61.5q6 36 7.5 84
t1.5 112q-27 -49 -67 -74.5t-73 -28.5q-60 -5 -93.5 20.5t-35.5 75.5q-2 39 8.5 68.5t28.5 53.5q9 11 19 21t21 20q10 9 21.5 18.5t22.5 18.5q54 45 98 103t67 111q22 -53 65.5 -111.5t98.5 -103.5q5 -5 10.5 -9.5t10.5 -9.5q6 -4 11.5 -9t10.5 -9q38 -34 58.5 -71t19.5 -91
z" />
    <glyph glyph-name="spade" unicode="&#x2660;" horiz-adv-x="900" 
d="M794 216q0 71 -40.5 124t-91.5 96q-68 54 -127.5 138.5t-84.5 207.5q-27 -123 -86 -207.5t-126 -138.5q-52 -43 -92.5 -96t-40.5 -124q0 -67 41.5 -112.5t107.5 -45.5q46 0 83 7.5t64 24.5q-2 -62 -16 -99t-40 -58q-26 -20 -64.5 -29t-90.5 -13l-9 -25h537l-9 25
q-53 4 -92 13t-64 29q-26 21 -39.5 58t-14.5 99q26 -17 62.5 -24.5t83.5 -7.5q66 0 107.5 45.5t41.5 112.5z" />
    <glyph glyph-name="uni2661" unicode="&#x2661;" horiz-adv-x="900" 
d="M814 509q-2 37 -16 69t-38 55q-24 24 -56 37t-69 13q-57 0 -106 -29.5t-79 -86.5q-29 58 -78.5 87t-106.5 29q-38 0 -70.5 -13.5t-56.5 -36.5t-38 -55t-14 -69q-2 -42 10.5 -81.5t33.5 -76.5q20 -37 45.5 -71t51.5 -63q17 -21 34 -40.5t34 -38.5q17 -20 32.5 -38.5
t30.5 -37.5q28 -36 51 -76.5t41 -102.5q17 62 39.5 102.5t51.5 76.5q14 19 30 37.5t32 38.5q17 19 34 38.5t35 40.5q25 29 50.5 63t45.5 71q21 37 33.5 76.5t12.5 81.5zM756 495q0 -35 -11.5 -68t-29.5 -64t-40.5 -59.5t-44.5 -53.5q-15 -18 -28.5 -34.5t-27.5 -31.5
q-13 -15 -25.5 -29.5t-23.5 -28.5q-21 -26 -39.5 -52t-35.5 -57q-17 32 -35 58t-39 51q-12 14 -25 28.5t-26 29.5q-14 15 -28 31.5t-28 34.5q-22 25 -44.5 53.5t-40.5 59.5t-29.5 64t-11.5 68q0 60 33.5 100.5t102.5 37.5q29 -2 55.5 -19t47.5 -45q22 -28 39 -63.5t29 -74.5
q10 39 26.5 74.5t38.5 63.5q22 27 48 44t57 19q70 3 103 -37t33 -100z" />
    <glyph glyph-name="heart" unicode="&#x2665;" horiz-adv-x="900" 
d="M814 509q0 37 -14.5 69t-38.5 55q-24 24 -56.5 37t-69.5 13q-66 0 -114 -43t-71 -109q-24 65 -72.5 108t-112.5 43q-38 0 -70.5 -13t-56.5 -37q-25 -23 -38.5 -55t-13.5 -69q0 -65 29 -125t71 -116t89 -107.5t83 -98.5q28 -36 51 -76t41 -102q17 62 39.5 102.5t51.5 76.5
q14 19 30 37.5t32 38.5q17 19 34 38.5t35 40.5q25 29 50 63t46 71q20 37 33 76.5t13 81.5z" />
    <glyph glyph-name="uni2667" unicode="&#x2667;" horiz-adv-x="900" 
d="M839 257q0 45 -20 82.5t-51 62.5q-32 25 -72.5 35t-81.5 1q10 20 15.5 40.5t5.5 47.5q0 39 -16 72t-41 57q-26 24 -59 38t-68 14q-37 0 -71 -14t-60 -38q-26 -25 -41.5 -58t-15.5 -72q0 -28 3.5 -46.5t16.5 -39.5q-17 4 -29.5 4.5t-24.5 -0.5q-38 -4 -69.5 -21t-53.5 -43
q-22 -25 -34 -57t-12 -65q0 -39 14.5 -72.5t39.5 -58.5q26 -25 60.5 -39.5t75.5 -14.5q36 0 70 16t61 43q-2 -71 -13 -115t-34 -70q-22 -26 -58 -37.5t-87 -15.5l-9 -25h538l-9 25q-52 4 -88 16t-59 38q-22 25 -32.5 69t-11.5 114q29 -30 63 -44.5t71 -14.5q39 0 73.5 15
t59.5 40q25 26 39.5 59.5t14.5 71.5zM781 257q0 -54 -33 -91.5t-86 -37.5q-40 0 -75 17.5t-51 52.5h-71q0 -102 12 -173.5t48 -110.5h-150q38 37 48.5 110.5t10.5 173.5h-71q-19 -36 -53.5 -52.5t-72.5 -16.5q-53 0 -86 37.5t-33 91.5q0 27 9 51t24 43q16 18 36.5 29.5
t44.5 12.5q22 0 40.5 -2.5t38.5 -15.5l51 51q-26 21 -34.5 51.5t-8.5 60.5q0 23 10 45t28 39q17 16 40.5 26.5t50.5 10.5t50.5 -10.5t41.5 -26.5q18 -17 28.5 -39t10.5 -45q0 -31 -9.5 -62.5t-35.5 -54.5l51 -50q20 15 40 19t42 4q22 -1 42.5 -12.5t36.5 -30.5t25.5 -43.5
t9.5 -51.5z" />
    <glyph glyph-name="club" unicode="&#x2663;" horiz-adv-x="900" 
d="M839 257q0 45 -20 82.5t-51 62.5q-32 25 -72.5 35t-81.5 1q10 20 15.5 40.5t5.5 47.5q0 39 -16 72t-42 57t-59 38t-67 14q-36 0 -69.5 -14t-60.5 -38q-26 -25 -42 -58t-16 -72q0 -28 3.5 -46.5t16.5 -39.5q-17 4 -29.5 4.5t-24.5 -0.5q-38 -4 -69.5 -21t-53.5 -43
q-22 -25 -34 -57t-12 -65q0 -39 14.5 -72.5t39.5 -58.5q26 -25 60.5 -39.5t75.5 -14.5q39 0 80.5 13t70.5 44q-2 -70 -16 -113.5t-41 -69.5q-26 -26 -65 -37.5t-90 -15.5l-9 -25h538l-9 25q-52 4 -91 16t-65 37q-26 26 -40.5 69.5t-15.5 112.5q29 -31 71 -44t84 -13
q39 0 73.5 15t59.5 40q25 26 39.5 59.5t14.5 71.5z" />
    <glyph glyph-name="uni2299" unicode="&#x2299;" horiz-adv-x="900" 
d="M871 299q0 88 -32 164.5t-88 133.5q-56 56 -132 88.5t-164 32.5q-91 0 -169 -32.5t-136 -88.5q-58 -57 -90.5 -133.5t-32.5 -164.5q0 -90 32.5 -167t89.5 -133q58 -57 136 -89t169 -32q88 0 164.5 32t132.5 88q56 57 88 134t32 167zM819 296q0 -78 -29 -145.5t-79 -118.5
q-50 -50 -116.5 -79t-142.5 -29q-77 0 -144.5 29t-117.5 79q-51 51 -79.5 118.5t-28.5 145.5q0 77 28.5 145.5t77.5 119.5q50 52 116 82t141 30q78 0 146 -30t119 -81q50 -51 79.5 -119.5t29.5 -146.5zM652 300q0 42 -15 77.5t-42 60.5q-26 26 -63 40.5t-81 14.5
t-80.5 -14.5t-62.5 -40.5q-27 -25 -41.5 -61t-14.5 -78q0 -43 14.5 -79t41.5 -62q26 -26 62.5 -40.5t80.5 -14.5q43 0 79.5 14.5t63.5 40.5q27 27 42.5 63t15.5 79z" />
    <glyph glyph-name="uni25C8" unicode="&#x25c8;" horiz-adv-x="900" 
d="M448 -179l454 478l-449 473l-454 -477zM452 700l381 -402l-384 -406l-381 404zM448 26l259 273l-253 270l-260 -275z" />
    <glyph glyph-name="uni25A3" unicode="&#x25a3;" horiz-adv-x="900" 
d="M63 -102h775v810h-775v-810zM788 663v-717h-671v717h671zM248 89h408v428h-408v-428z" />
    <glyph glyph-name="uni25D0" unicode="&#x25d0;" horiz-adv-x="900" 
d="M870 301q0 89 -32 165.5t-88 133.5q-57 56 -133.5 88.5t-166.5 32.5t-167 -32.5t-134 -89.5q-57 -56 -89 -133t-32 -165q0 -90 32 -167t89 -134t134.5 -89.5t167.5 -32.5q89 0 165.5 32t133.5 89q56 56 88 133.5t32 168.5zM452 674q81 -2 148.5 -34t115.5 -83
q49 -52 76 -119t27 -138q0 -73 -27 -140t-75 -119t-115.5 -83.5t-149.5 -32.5v749z" />
    <glyph glyph-name="uni25D1" unicode="&#x25d1;" horiz-adv-x="900" 
d="M870 300q0 87 -32.5 163.5t-87.5 133.5q-56 57 -131.5 90t-161.5 33q-102 0 -182 -35t-135 -94q-55 -58 -83.5 -134t-28.5 -157q0 -90 32.5 -167.5t89.5 -134.5t134.5 -89t167.5 -32q88 0 164.5 32t132.5 89q57 56 89 133.5t32 168.5zM450 -75q-82 1 -149.5 33t-116.5 84
t-75.5 118t-26.5 135q0 72 26 139.5t75 119.5q48 53 116 85t151 34v-748z" />
    <glyph glyph-name="shade" unicode="&#x2592;" horiz-adv-x="900" 
d="M60 -90h779v780h-779v-780zM800 651v-702h-701v702h701zM711 596q0 10 -8 17.5t-18 7.5q-11 0 -17 -8t-6 -17q0 -11 6 -17.5t17 -6.5t18.5 6t7.5 18zM554 596q0 10 -8 17.5t-19 7.5q-10 0 -17 -8t-7 -17q0 -11 7 -17.5t17 -6.5q11 0 19 6t8 18zM751 399q0 9 -7 16t-19 7
q-10 0 -16.5 -7t-6.5 -16q0 -12 6.5 -18.5t17.5 -6.5t18 6.5t7 18.5zM614 399q0 9 -8 16.5t-18 7.5q-12 0 -18 -7.5t-6 -16.5q0 -12 6 -18.5t18 -6.5q11 0 18.5 6.5t7.5 18.5zM394 595q0 11 -7 18t-17 7q-11 0 -17.5 -7t-6.5 -18q0 -12 6.5 -17.5t18.5 -5.5q9 0 16 6.5
t7 16.5zM691 201q0 10 -7.5 17.5t-18.5 7.5q-10 0 -16 -7.5t-6 -17.5q0 -11 6 -17.5t16 -6.5q12 0 19 6.5t7 17.5zM474 399q0 9 -7.5 16.5t-18.5 7.5q-10 0 -16.5 -7.5t-6.5 -16.5q0 -12 6.5 -18.5t16.5 -6.5q11 0 18.5 6.5t7.5 18.5zM238 596q0 11 -8 18t-18 7
q-11 0 -17.5 -8t-6.5 -17q0 -11 6.5 -17.5t17.5 -6.5t18.5 6t7.5 18zM752 4q0 11 -7.5 17.5t-19.5 6.5q-10 0 -16.5 -7t-6.5 -17q0 -12 6.5 -18.5t16.5 -6.5q12 0 19.5 6.5t7.5 18.5zM544 201q0 10 -7.5 17.5t-18.5 7.5q-12 0 -18.5 -7.5t-6.5 -17.5q0 -11 6.5 -17.5
t18.5 -6.5q10 0 18 6t8 18zM335 398q0 10 -7 17t-17 7q-11 0 -17.5 -7t-6.5 -17q0 -12 6 -18t18 -6q10 0 17 6.5t7 17.5zM614 4q0 11 -7.5 17.5t-18.5 6.5q-12 0 -18 -7t-6 -17q0 -12 6 -18.5t18 -6.5q9 0 17.5 6.5t8.5 18.5zM199 399q0 11 -7.5 17.5t-17.5 6.5
q-11 0 -17.5 -7.5t-6.5 -16.5q0 -12 6.5 -18.5t17.5 -6.5t18 6.5t7 18.5zM385 200q0 11 -7 18t-17 7q-11 0 -17.5 -7t-6.5 -18t6.5 -17t18.5 -6q9 0 16 6.5t7 16.5zM473 4q0 11 -7.5 17.5t-17.5 6.5q-11 0 -17.5 -7t-6.5 -17q0 -12 6.5 -18.5t17.5 -6.5t18 7t7 18zM250 201
q0 11 -8 18t-18 7q-11 0 -17.5 -7.5t-6.5 -17.5q0 -11 6.5 -17.5t17.5 -6.5t18.5 6.5t7.5 17.5zM335 4q0 10 -7 17t-17 7q-12 0 -19 -7t-7 -17q0 -12 7 -18.5t19 -6.5q10 0 17 6.5t7 18.5zM198 4q0 10 -7 17t-17 7q-12 0 -18.5 -7t-6.5 -17q0 -12 6.5 -18.5t18.5 -6.5
q9 0 16.5 6.5t7.5 18.5z" />
    <glyph glyph-name="uni25A4" unicode="&#x25a4;" horiz-adv-x="900" 
d="M60 -90h779v780h-779v-780zM800 651v-139h-701v139h701zM800 473v-153h-701v153h701zM800 280v-153h-701v153h701zM800 88v-139h-701v139h701z" />
    <glyph glyph-name="uni25A5" unicode="&#x25a5;" horiz-adv-x="900" 
d="M60 -90h779v780h-779v-780zM800 651v-702h-138v702h138zM623 651v-702h-153v702h153zM429 651v-702h-153v702h153zM238 651v-702h-139v702h139z" />
    <glyph glyph-name="uni25A8" unicode="&#x25a8;" horiz-adv-x="900" 
d="M60 -90h779v780h-779v-780zM548 651h217l-666 -667v217zM99 651h143l-143 -143v143zM298 651h194l-393 -395v196zM644 -51l154 156v-156h-154zM798 628v-216l-461 -463h-217zM798 353v-193l-210 -211h-196z" />
    <glyph glyph-name="uni25A7" unicode="&#x25a7;" horiz-adv-x="900" 
d="M60 -90h779v780h-779v-780zM800 651v-143l-143 143h143zM800 452v-196l-394 395h195zM800 201v-217l-666 667h217zM101 628l678 -679h-216l-462 463v216zM101 353l406 -404h-196l-210 211v193zM101 105l155 -156h-155v156z" />
    <glyph glyph-name="uni25A6" unicode="&#x25a6;" horiz-adv-x="900" 
d="M59 -90h780v781h-780v-781zM799 649v-148h-151v148h151zM614 649v-148h-150v148h150zM799 465v-146h-151v146h151zM428 649v-148h-149v148h149zM614 465v-146h-150v146h150zM799 282v-147h-151v147h151zM244 649v-148h-145v148h145zM428 465v-146h-149v146h149zM614 282
v-147h-150v147h150zM799 99v-147h-151v147h151zM244 465v-146h-145v146h145zM428 282v-147h-149v147h149zM614 99v-147h-150v147h150zM244 282v-147h-145v147h145zM428 99v-147h-149v147h149zM244 99v-147h-145v147h145z" />
    <glyph glyph-name="uni25A9" unicode="&#x25a9;" horiz-adv-x="900" 
d="M60 -92h779v780h-779v-780zM590 649h189l-95 -95zM800 628v-190l-94 95zM566 630l97 -97l-97 -97l-95 97zM684 512l97 -97l-97 -96l-96 96zM355 649h190l-95 -95zM800 393v-190l-94 95zM333 630l95 -97l-95 -97l-97 97zM450 512l96 -97l-96 -96l-97 96zM566 395l97 -97
l-97 -97l-95 97zM684 277l97 -96l-97 -97l-96 97zM120 649h190l-95 -95zM800 158v-190l-94 95zM99 628l95 -95l-95 -95v190zM684 42l95 -95h-189zM215 512l96 -97l-96 -96l-97 96zM333 395l95 -97l-95 -97l-97 97zM450 277l96 -96l-96 -97l-97 97zM566 160l97 -97l-97 -97
l-95 97zM450 42l95 -95h-190zM99 393l95 -95l-95 -95v190zM333 160l95 -97l-95 -97l-97 97zM215 277l96 -96l-96 -97l-97 97zM99 158l95 -95l-95 -95v190zM215 42l95 -95h-190z" />
    <glyph glyph-name="uni2668" unicode="&#x2668;" horiz-adv-x="900" 
d="M616 545q10 87 -0.5 129t-16.5 42q-3 -1 -3.5 -10t-0.5 -22q-1 -14 -3 -30t-7 -29q-11 -30 -19 -58t-10 -58q-1 -31 5 -65.5t24 -77.5q12 -30 12.5 -62.5t-5.5 -64.5q-5 -33 -15 -63t-19 -55q-6 -17 -9 -38t-2 -39q0 -18 2.5 -30.5t7.5 -10.5q5 1 7 8t5 19q2 12 6.5 28
t13.5 34q7 17 21.5 38t28.5 47q13 27 21.5 59.5t5.5 74.5q-5 41 -15 68.5t-20 51.5t-15.5 49.5t0.5 64.5zM475 578q12 36 14 71t-2 62q-3 28 -10 45t-13 17q-1 0 -1 -10t-1 -27q-1 -16 -5.5 -37.5t-13.5 -44.5q-11 -24 -24 -50.5t-21 -58.5q-7 -32 -4 -72t26 -90
q6 -14 13 -39t9 -57q3 -32 -0.5 -69t-18.5 -76q-12 -29 -16 -55t-3 -47q1 -20 5 -32t9 -12q4 -1 5.5 4.5t3.5 16.5t7.5 28.5t19.5 42.5q7 14 20 39.5t25 55.5q12 29 19 59.5t3 54.5q-8 43 -21 77t-23 66q-10 31 -12.5 63.5t10.5 74.5zM318 542q21 87 18.5 131t-11.5 46
q-2 0 -4 -8l-5 -20t-7 -25.5t-9 -24.5q-32 -63 -41 -132t19 -146q11 -32 13 -67.5t-1 -68.5t-9.5 -60t-10.5 -42q-9 -24 -10 -45.5t1 -37.5t6.5 -25.5t7.5 -9.5q5 -1 6.5 3t3.5 14q1 9 5 24.5t15 37.5q24 50 43.5 100t16.5 84q-4 41 -14 79.5t-19 73.5q-10 34 -15 64t1 55z
M700 248q-10 0 -13.5 -5.5t10.5 -8.5q12 -4 34 -15.5t44 -28.5q21 -17 37 -38.5t16 -44.5q-1 -35 -35.5 -64.5t-88.5 -51.5t-120 -34.5t-128 -13.5q-73 -2 -140.5 7.5t-119.5 28.5q-52 18 -83 44.5t-31 60.5q0 36 22.5 64.5t51.5 48.5q28 20 53 31t30 13q15 5 13 12.5
t-14 4.5q-24 -7 -63 -21.5t-76 -38.5q-38 -24 -65 -57.5t-27 -78.5q0 -48 41 -86t110 -64q68 -25 156.5 -36.5t183.5 -5.5q66 4 137 20t129 44t94 67.5t33 90.5q-3 37 -29.5 65.5t-58.5 48.5q-33 20 -63 30.5t-40 11.5z" />
    <glyph glyph-name="uni260F" unicode="&#x260f;" horiz-adv-x="900" 
d="M755 546q-70 20 -149.5 30.5t-154.5 10.5q-72 0 -154 -10.5t-151 -30.5q-57 -16 -79.5 -49t-31.5 -99q-6 -42 12.5 -50.5t44.5 -7.5l80 3q27 0 42 11.5t23 54.5q4 25 20 41t51 25v-51q0 -25 -5.5 -34.5t-26.5 -26.5q-9 -8 -16.5 -13.5t-13.5 -12.5q-7 -6 -12 -14t-9 -20
l-76 -221q0 -7 1 -20t3 -26q2 -12 4 -22t3 -11q0 -2 1.5 -2.5t3.5 -0.5q3 -1 5.5 -0.5t5.5 0.5h549q2 0 5 -0.5t6 0.5q2 0 4 0.5t2 2.5q0 1 1.5 11t3.5 22q2 13 3.5 26t1.5 20l-76 221q-5 12 -10 20t-11 14q-7 7 -14.5 12.5t-15.5 13.5q-21 17 -26.5 26.5t-5.5 34.5v51
q34 -9 50 -25t21 -41q7 -43 22 -54.5t43 -11.5l80 -3q25 -1 43.5 7.5t13.5 50.5q-9 66 -32 99t-79 49zM514 440q-11 1 -30 2t-34 1q-17 0 -35.5 -1t-29.5 -2l-9 49q6 0 28 2t46 2q21 0 43.5 -2t29.5 -2zM802 365l-64 2q-21 0 -31 11t-16 49q-7 39 -43.5 56.5t-77.5 24.5
q-54 9 -120 9t-118 -9q-42 -7 -79 -24.5t-43 -56.5q-7 -38 -16.5 -49t-30.5 -11l-64 -2q-25 -1 -31 9.5t0 43.5q8 51 37 73.5t86 37.5q60 15 130 22.5t130 7.5q59 0 129 -7.5t130 -22.5q57 -15 86 -37.5t37 -73.5q6 -33 -0.5 -43.5t-30.5 -9.5zM724 75l-8 -45h-531l-7 45
l70 205q6 17 12.5 28t14.5 18q7 8 15.5 13.5t17.5 12.5q20 14 25 32.5t5 43.5v55l13 2l11 -72l8.5 0.5t20.5 1.5q13 1 28.5 2t30.5 1q14 0 29.5 -1t27.5 -1q13 -1 21 -1.5t9 -0.5l14 70q1 0 2.5 -0.5t3.5 -0.5h2.5h3.5v-55q0 -25 4.5 -43.5t25.5 -32.5q9 -7 17 -12.5
t16 -13.5q7 -7 14 -18t13 -28zM451 370q-52 0 -90 -36t-38 -89q0 -26 9 -50t26 -42q16 -19 39 -29.5t50 -10.5q54 0 91.5 37.5t37.5 92.5q0 25 -10 48t-27 41q-17 17 -40 27.5t-48 10.5zM447 141q-42 0 -69.5 31.5t-27.5 72.5t30 69t71 28q40 0 68.5 -30t28.5 -69
q0 -43 -29 -72.5t-72 -29.5z" />
    <glyph glyph-name="uni260E" unicode="&#x260e;" horiz-adv-x="900" 
d="M779 372q-36 1 -59.5 4.5t-50.5 12.5q3 -26 19.5 -36t40.5 -10l80 -3q25 -1 42.5 5t17.5 33q-14 -4 -42 -5.5t-48 -0.5zM755 548q-73 20 -151 29.5t-153 9.5q-72 0 -152.5 -9.5t-152.5 -29.5q-35 -10 -55 -22.5t-31 -29.5q-12 -18 -17 -41.5t-8 -56.5q14 -4 43 -5.5
t50 -0.5q35 1 56.5 4.5t52.5 12.5q1 23 22.5 42t48.5 24v-51q0 -13 -1.5 -20.5t-5.5 -13.5q-3 -6 -9.5 -12t-15.5 -15q-9 -10 -17 -16t-14 -12t-11 -13t-9 -19l-76 -221q0 -7 1 -20t3 -27q2 -13 4 -23t3 -11q0 -2 1.5 -2.5t3.5 -0.5q3 -1 5.5 -0.5t5.5 0.5h549q2 0 5 -0.5
t6 0.5q2 0 4 0.5t2 2.5q0 1 1.5 11t3.5 23q2 14 3.5 27t1.5 20l-76 221q-5 12 -10 19t-11 13t-13.5 12t-16.5 16q-10 9 -16.5 15t-9.5 12q-4 6 -5 13.5t-1 20.5v51q26 -5 47.5 -24t23.5 -42q31 -9 52 -12.5t57 -4.5q21 -1 49.5 0.5t43.5 5.5q-4 33 -9 56.5t-17 41.5
q-11 17 -31 29.5t-54 22.5zM123 372q-21 -1 -49 0.5t-42 5.5q0 -27 17 -33t43 -5l80 3q24 0 40.5 10t20.5 36q-27 -9 -51 -12.5t-59 -4.5zM537 409l-87 4l-88 -5l-14 74q9 0 20.5 1.5t24.5 2.5q13 2 27.5 3t29.5 1q14 0 28 -1t27 -2t24.5 -2.5t21.5 -1.5zM447 113
q-27 0 -50 10.5t-39 29.5q-17 18 -26 42t-9 50q0 53 38 89t90 36q25 0 48 -10.5t40 -27.5q17 -18 27 -41t10 -48q0 -55 -37.5 -92.5t-91.5 -37.5z" />
    <glyph glyph-name="uni261C" unicode="&#x261c;" horiz-adv-x="900" 
d="M828 136v326h-129v-43h-12t-7 1l-6 2t-8 4q-22 11 -44.5 23.5t-46.5 23.5t-49.5 18.5t-52.5 7.5q-14 0 -26.5 -4.5t-21.5 -11.5l-88 2l-161 -5q-18 -1 -38 -2.5t-38 -6.5q-17 -5 -28.5 -15t-11.5 -26q0 -23 13.5 -35.5t32.5 -18.5q19 -5 38.5 -6.5t31.5 -1.5l105 -6
q-7 -8 -11 -16.5t-4 -17.5q0 -6 2.5 -12.5t6.5 -9.5q-15 -6 -23.5 -18t-8.5 -27q0 -8 2 -16t8 -14q-11 -6 -17.5 -16.5t-6.5 -22.5q0 -20 13 -34t32 -23q19 -10 40 -14t37 -4q17 0 34 5t26 20q26 -1 50.5 -2.5t48.5 0.5q25 2 51.5 8.5t57.5 21.5q12 5 22.5 7.5t20.5 3.5
t19 1h18v-46h129zM765 163h-39v272h39v-272zM699 207h-20t-21 -1q-10 -2 -21 -4.5t-22 -8.5q-48 -24 -99.5 -28.5t-97.5 -1.5v15q18 3 25 17t7 31q25 4 34 16.5t17 36.5l7.5 -1t18.5 -1q12 -1 27.5 -0.5t32.5 2.5q8 1 19.5 4t21.5 7q11 3 18.5 6t8.5 4v6l-7 8l-6 -2
q-12 -4 -28 -8t-31 -5q-15 -2 -29.5 -1t-26.5 2q-13 1 -21 2.5l-8 1.5q-7 9 -18 20t-19 17l41 47l-11 13l-44 -37q-13 -12 -29.5 -21.5t-34.5 -9.5q-11 0 -24.5 6t-13.5 20q0 4 2.5 9.5t6.5 10.5l8.5 8.5l8.5 8.5l48 49q13 15 26 22t35 7q21 0 44.5 -9t47.5 -21t47.5 -25
t45.5 -22q4 -2 7 -3t6 -1q4 0 8.5 0.5t12.5 0.5v-187zM441 252q-7 0 -20 3.5t-28 8.5q-14 5 -27 10t-19 8q-7 3 -16 7.5t-17 10.5q-9 6 -14.5 13.5t-5.5 16.5q0 8 4.5 13t10.5 9q13 -18 31 -28.5t42 -10.5q9 0 17.5 1.5t14.5 4.5q7 2 12 4t8 2q13 0 27 -15t14 -27
q0 -16 -11 -23.5t-23 -7.5zM403 460l-71 -74h-57l-132 5q-15 0 -36 8t-21 29q0 11 11 17t27 9q15 3 30.5 3.5t24.5 0.5l141 2h83zM398 198q-17 0 -46.5 7.5t-44.5 13.5q-12 4 -24.5 15.5t-12.5 26.5q0 9 6 16t16 7q5 0 11.5 -3t11.5 -5q14 -9 41.5 -21.5t48.5 -17.5
q1 -1 4 -2l6 -2t5.5 -3t2.5 -5q1 -12 -6 -19.5t-19 -7.5zM351 136q-10 0 -25.5 3.5t-30.5 10.5q-15 6 -26.5 16t-12.5 23q-2 11 3.5 19.5t11.5 5.5q15 -12 41 -21.5t66 -15.5q6 -1 11 -4.5t5 -10.5q0 -17 -15 -21.5t-28 -4.5z" />
    <glyph glyph-name="uni261E" unicode="&#x261e;" horiz-adv-x="900" 
d="M721 500l-159 5l-89 -2q-10 7 -22.5 11.5t-25.5 4.5q-28 0 -53.5 -7.5t-49.5 -18.5t-46.5 -23.5t-43.5 -23.5q-5 -3 -8 -4l-6 -2t-7.5 -1h-11.5v43h-129v-326h129v46h17t19 -1t20.5 -3.5t22.5 -7.5q31 -15 57.5 -21.5t51.5 -8.5t49 -0.5t51 2.5q9 -15 26 -20t33 -5t37 4
t41 14q19 9 32.5 23t13.5 34q0 12 -8 22.5t-17 16.5q6 6 7.5 14t1.5 16q0 15 -8 27t-22 18q3 3 6 9.5t3 12.5q0 9 -5 17.5t-11 16.5l104 6q12 0 31.5 1.5t38.5 6.5q19 6 33 18.5t14 35.5q0 16 -12 26t-30 15q-17 5 -37.5 6.5t-37.5 2.5zM755 411l-132 -5h-57l-72 74h84
l141 -2q8 0 23.5 -0.5t31.5 -3.5q15 -3 26.5 -9t11.5 -17q0 -21 -21 -29t-36 -8zM551 302q-6 -3 -19 -8t-28 -10q-14 -5 -27.5 -8.5t-19.5 -3.5q-14 0 -25 7.5t-11 23.5q0 12 14.5 27t28.5 15q3 0 8 -2t12 -4q6 -3 14.5 -4.5t18.5 -1.5q21 0 40 10.5t33 28.5q6 -4 9.5 -9
t3.5 -13q0 -9 -6 -16.5t-14 -13.5q-9 -6 -17.5 -10.5t-14.5 -7.5zM591 239q-8 -3 -20 -7t-25 -7q-14 -3 -26.5 -5t-19.5 -2q-13 0 -20 7.5t-6 19.5q0 3 2.5 5t5.5 3l6 2t5 2q19 5 47 17.5t43 21.5q2 1 5 2t6 3q3 1 6.5 2t6.5 1q8 0 14 -7t6 -16q0 -15 -12 -26.5t-24 -15.5z
M547 156q-14 0 -29 4.5t-15 21.5q0 7 5 10.5t11 4.5q40 6 66.5 15.5t41.5 21.5q6 3 11 -5.5t5 -19.5q-2 -13 -14 -23t-27 -16q-15 -7 -30.5 -10.5t-24.5 -3.5zM515 353q-18 0 -35 9.5t-29 21.5l-44 37l-11 -13l41 -47q-8 -6 -19 -17t-17 -20q-1 0 -9 -1.5t-21 -2.5
q-12 -1 -27 -2t-30 1q-15 1 -30 5t-27 8l-7 2l-7 -8v-6q0 -1 7.5 -4t18.5 -6q10 -4 21.5 -7t20.5 -4q16 -2 31.5 -2.5t26.5 0.5q12 0 19 1t9 1q7 -24 15.5 -36.5t35.5 -16.5q0 -17 7 -31t26 -17v-15q-47 -3 -98.5 1.5t-98.5 28.5q-12 6 -23.5 8.5t-21.5 4.5q-11 1 -21 1h-19
v187q7 0 12 -0.5t8 -0.5t6 1t8 3q21 9 44.5 22t47.5 25t47.5 21t46.5 9q21 0 33.5 -7t27.5 -22l47 -49q3 -4 7.5 -8.5l8.5 -8.5q5 -5 8 -10.5t3 -9.5q0 -14 -15 -20t-24 -6zM172 183h-39v272h39v-272z" />
    <glyph glyph-name="paragraph" unicode="&#xb6;" horiz-adv-x="900" 
d="M630 -149h69v879h-69v-879zM445 -149h67v877l-63 2q-10 0 -17 -0.5t-16 -0.5q-9 -1 -23 -2t-37 -2q-110 -8 -166.5 -60t-56.5 -143q0 -97 66 -153t174 -54l71 1zM444 666v-282l-60 -2q-78 -3 -128.5 36.5t-50.5 105.5t51.5 104t143.5 38h44z" />
    <glyph glyph-name="dagger" unicode="&#x2020;" horiz-adv-x="900" 
d="M703 425v67h-216v241h-72v-241h-216v-67h216v-561h72v561h216z" />
    <glyph glyph-name="daggerdbl" unicode="&#x2021;" horiz-adv-x="900" 
d="M707 541v66h-221v129h-71v-129h-218v-66h218v-97h-199v-67h199v-510h71v510h203v67h-203v97h221z" />
    <glyph glyph-name="arrowupdn" unicode="&#x2195;" horiz-adv-x="900" 
d="M450 -184l156 273l-128 -30v481l128 -30l-156 273l-157 -273l128 30v-481l-128 30z" />
    <glyph glyph-name="uni2197" unicode="&#x2197;" horiz-adv-x="900" 
d="M736 431l143 298l-298 -143l88 -28l-638 -640l39 -39l639 640z" />
    <glyph glyph-name="uni2199" unicode="&#x2199;" horiz-adv-x="900" 
d="M236 47l640 639l-39 39l-639 -639l-28 88l-143 -298l298 143z" />
    <glyph glyph-name="uni2196" unicode="&#x2196;" horiz-adv-x="900" 
d="M833 -121l38 39l-639 640l88 28l-298 143l143 -298l28 88z" />
    <glyph glyph-name="uni2198" unicode="&#x2198;" horiz-adv-x="900" 
d="M576 19l298 -143l-142 298l-29 -88l-638 639l-39 -39l639 -639z" />
    <glyph glyph-name="uni266D" unicode="&#x266d;" horiz-adv-x="900" 
d="M589 409q-37 12 -66.5 8t-53.5 -19q-24 -14 -42 -35t-31 -42v351h-69v-726q18 0 61 7t93 32q50 24 98 72t75 132q10 31 13 65t-4 65t-25 55t-49 35zM537 84q-23 -30 -48 -46.5t-46 -24.5q-10 -4 -22.5 -7.5t-21.5 -3.5q-1 0 -1.5 -0.5l-0.5 -0.5v-1v1v247q0 3 9 23.5
t28 41.5q18 22 46 35t66 1q25 -9 36.5 -40t9.5 -71t-16.5 -82t-38.5 -72z" />
    <glyph glyph-name="uni2669" unicode="&#x2669;" horiz-adv-x="900" 
d="M537 706h-52l-1 -601h-10q-42 0 -78 -11t-63 -29q-27 -19 -42 -43.5t-15 -52.5q0 -34 19 -49.5t61 -15.5q78 0 129.5 50t51.5 129v623z" />
    <glyph glyph-name="musicalnote" unicode="&#x266a;" horiz-adv-x="900" 
d="M407 708v-605q-9 1 -12 1h-3q-42 0 -77 -11t-61 -29t-40.5 -43t-14.5 -53q0 -29 18.5 -45t55.5 -16q80 0 130.5 50.5t50.5 130.5l1 443q37 -20 63 -38t60 -47q42 -39 62 -75t20 -75q0 -42 -27.5 -92t-70.5 -89q-13 -12 -16.5 -16.5t-3.5 -5.5l2 -3.5l2 -3.5v0
q12 1 32.5 13.5t42.5 32.5t43 44.5t36 49.5q12 19 19 47.5t7 56.5q0 27 -8.5 54.5t-26.5 55.5q-13 21 -32 42t-52 54l-6 4.5t-2 2.5l-1.5 2t-1.5 3q-5 3 -14 10.5t-30 27.5l-17 15q-7 6 -15.5 14.5t-16.5 17.5q-9 9 -17 18t-14 17q-24 25 -33.5 32t-20.5 9z" />
    <glyph glyph-name="uni266C" unicode="&#x266c;" horiz-adv-x="900" 
d="M753 718l-450 -99v-523h-20q-39 0 -73.5 -11.5t-61.5 -30.5q-26 -18 -41.5 -42.5t-15.5 -49.5q0 -30 20.5 -46.5t58.5 -16.5q29 0 56.5 9t54.5 28q38 25 55.5 61t17.5 93v299l349 82v-285q-43 0 -68 -4t-51 -16q-38 -17 -64 -52t-26 -67q0 -27 20.5 -42.5t59.5 -15.5
q32 0 62.5 10.5t54.5 31.5q33 24 47.5 56t14.5 83v548zM703 551l-349 -79v77l349 79v-77z" />
    <glyph glyph-name="uni327F" unicode="&#x327f;" horiz-adv-x="900" 
d="M850 326q-9 76 -42.5 144t-86.5 119q-52 51 -121.5 81t-148.5 30q-83 0 -157 -33.5t-129 -92.5t-86 -139t-28 -174h187v48h-136q4 75 34 137.5t78 108.5q47 45 108.5 70.5t128.5 25.5q70 0 130 -25.5t105 -69.5q46 -45 76 -104t40 -126h48zM689 36l-242 301q45 42 94 96
t100 117h-67q-27 -35 -60 -71t-67 -70t-66 -65t-57 -54v260h-57v-514h57v148l0.5 6t1.5 13q0 7 0.5 13t1.5 7q6 5 14.5 13t19.5 18q10 9 22 20.5t26 23.5l214 -262h65zM662 307v-48h138q-6 -76 -36.5 -139t-78.5 -108t-109 -70t-128 -25q-70 0 -129.5 26t-105.5 70
q-45 44 -75 103t-39 125h-50q9 -77 43 -144.5t87 -118.5q52 -51 120.5 -80.5t148.5 -29.5q83 0 157.5 34t130.5 93q55 59 86 139t28 173h-188z" />
    <glyph glyph-name="uni321C" unicode="&#x321c;" horiz-adv-x="900" 
d="M741 640h-43q56 -76 87 -172t31 -198q0 -103 -31 -198.5t-87 -171.5h43q18 23 41 58t42 81q20 47 33.5 104.5t13.5 126.5q0 72 -13.5 130t-32.5 103q-20 46 -42.5 79.5t-41.5 57.5zM718 329q-28 3 -67 13.5t-79 34.5q-36 21 -64.5 53t-28.5 57q-1 0 -1 2.5v6.5q0 3 0.5 6
t0.5 4h191v49h-441v-49h191q0 -2 -0.5 -10.5l-0.5 -8.5q0 -25 -28.5 -57t-62.5 -53q-40 -24 -80 -34.5t-67 -13.5l36 -45q21 3 59 14t77 33q30 18 57.5 44.5t39.5 43.5q10 -17 37.5 -43.5t58.5 -44.5q39 -22 76.5 -33t58.5 -14zM738 181v51h-580v-51h262v-232h58v232h260z
M201 -100q-57 76 -87.5 171.5t-30.5 198.5q0 102 30.5 198t87.5 172h-43q-20 -24 -42.5 -57.5t-42.5 -79.5q-19 -45 -32 -103t-13 -130q0 -69 13 -126.5t33 -104.5q19 -46 42 -81t42 -58h43z" />
    <glyph glyph-name="uni2116" unicode="&#x2116;" horiz-adv-x="900" 
d="M839 49q-20 0 -35 -16.5t-15 -37.5q0 -22 15 -37.5t35 -15.5t35.5 15.5t15.5 37.5q0 21 -15.5 37.5t-35.5 16.5zM626 429q-44 0 -76.5 -19.5t-54.5 -51.5q-22 -33 -33 -76.5t-11 -92.5t11 -92.5t33 -76.5q22 -32 54.5 -51t76.5 -19q42 0 74.5 19t54.5 51q22 33 33.5 76.5
t11.5 92.5t-11.5 92.5t-33.5 76.5q-22 32 -54.5 51.5t-74.5 19.5zM415 -42v690h-59v-572l-250 572h-70v-690h59v573l251 -573h69zM626 10q-56 0 -86.5 51t-30.5 128q0 75 31 127.5t86 52.5q54 0 85.5 -52.5t31.5 -127.5q0 -77 -31.5 -128t-85.5 -51z" />
    <glyph glyph-name="uni33C7" unicode="&#x33c7;" horiz-adv-x="900" 
d="M834 51q-18 0 -32 -16.5t-14 -36.5q0 -22 14 -37t32 -15q19 0 33.5 15t14.5 37q0 20 -14.5 36.5t-33.5 16.5zM636 428q-40 0 -70.5 -19t-51.5 -52q-20 -32 -30.5 -75t-10.5 -91q0 -49 10.5 -92.5t30.5 -75.5q21 -33 51.5 -51.5t70.5 -18.5q39 0 69.5 18.5t50.5 51.5
q20 32 30.5 75.5t10.5 92.5q0 48 -10.5 91t-30.5 75q-20 33 -50.5 52t-69.5 19zM39 301q0 -78 14.5 -142.5t42.5 -111.5q29 -47 70 -73t95 -26q52 -1 87.5 19.5t58.5 52.5t34.5 70t15.5 72h-54q-4 -26 -13 -53t-26 -49t-42 -36t-61 -13q-37 0 -67.5 21.5t-52.5 59.5
q-22 39 -34 92.5t-12 117.5q0 63 12 117t34 93t52.5 61.5t67.5 22.5t62.5 -14t41.5 -35q17 -21 26 -46.5t14 -48.5h54q-2 29 -12.5 65t-33.5 68q-24 32 -60.5 54t-90.5 22q-50 0 -91.5 -27t-70.5 -75t-45 -114t-16 -144zM636 13q-51 0 -80 51t-29 127q0 75 29 126.5t80 51.5
t79.5 -51.5t28.5 -126.5q0 -77 -28.5 -127.5t-79.5 -50.5z" />
    <glyph glyph-name="trademark" unicode="&#x2122;" horiz-adv-x="900" 
d="M625 281l96 275v-275h54v358h-83l-91 -262l-98 262h-74v-358h53v267l99 -267h44zM217 593v-312h57v312h119v46h-298v-46h122z" />
    <glyph glyph-name="uni33C2" unicode="&#x33c2;" horiz-adv-x="900" 
d="M822 81q-18 0 -30 -14.5t-12 -33.5q0 -20 12 -33.5t30 -13.5q15 0 28 13.5t13 33.5q0 19 -13 33.5t-28 14.5zM762 -4v313q0 60 -18 106t-63 49q-20 1 -34 -5.5t-24 -16.5q-10 -11 -16 -23t-9 -21q-6 24 -23.5 44.5t-43.5 21.5q-25 1 -42 -13.5t-24 -32.5v32h-48v-454
l47 1v284q0 54 13.5 90.5t42.5 36.5q27 -1 37 -33t10 -83v-295h50v291q0 49 11.5 84.5t42.5 35.5q27 0 36 -32.5t9 -83.5v-295zM356 81q-18 0 -30 -14.5t-12 -33.5q0 -20 12 -33.5t30 -13.5q15 0 28 13.5t13 33.5q0 19 -13 33.5t-28 14.5zM300 -3l-1.5 7t-3.5 17
q-2 11 -3 23.5t-1 26.5v243q0 72 -33.5 112.5t-90.5 40.5q-59 0 -93 -43t-31 -113h48q-3 48 18 75t58 27q39 0 57.5 -26.5t18.5 -59.5q0 -23 -11 -36t-24 -19q-9 -4 -20 -7l-22 -6q-9 -3 -17.5 -5t-17.5 -4q-9 -3 -18 -6.5t-18 -8.5q-27 -15 -50 -48.5t-19 -90.5
q4 -63 40 -91.5t81 -22.5q30 3 54.5 18.5t41.5 41.5q0 -14 2.5 -25.5t6.5 -19.5h48zM243 121q-2 -30 -30.5 -56t-60.5 -30q-30 -5 -48.5 13.5t-21.5 55.5q-2 20 4 35.5t18 27.5q4 5 10 9.5t13 8.5q7 3 14 7l14 8q8 4 17 6.5t19 5.5q10 2 19 4.5t18 5.5q5 1 10.5 4.5t9.5 8.5
q0 -2 -0.5 -19.5t-0.5 -38.5q-1 -20 -2 -37.5t-2 -18.5z" />
    <glyph glyph-name="uni33D8" unicode="&#x33d8;" horiz-adv-x="900" 
d="M871 35q0 21 -13.5 36.5t-32.5 15.5q-18 0 -32 -15.5t-14 -36.5t14 -35.5t32 -14.5t32 14.5t14 35.5zM711 -8h52v305q0 29 -4.5 57.5t-15.5 50.5q-10 23 -28 37t-44 15q-33 0 -52 -16.5t-28 -35.5q-9 20 -25.5 36t-42.5 16q-18 0 -33 -7t-26 -19v12h-54v-451h54v285
q0 53 16 85.5t39 32.5q21 -1 31.5 -29.5t10.5 -79.5v-294h56v294q0 48 13.5 78.5t40.5 30.5q21 -1 30.5 -29.5t9.5 -79.5v-294zM396 35q0 21 -14 36.5t-32 15.5q-19 0 -32.5 -15.5t-13.5 -36.5t14 -35.5t32 -14.5t32 14t14 36zM327 225q0 47 -10 90t-28 76t-44.5 52.5
t-59.5 19.5q-27 0 -49.5 -10.5t-40.5 -28.5v24h-55v-596h55v174q18 -20 40.5 -29.5t49.5 -9.5q33 0 59.5 19.5t44.5 52.5t28 76t10 90zM269 225q0 -78 -25 -126.5t-61 -48.5q-45 0 -66 48t-21 127q0 78 21 126.5t66 48.5q36 0 61 -48.5t25 -126.5z" />
    <glyph glyph-name="uni2121" unicode="&#x2121;" horiz-adv-x="900" 
d="M846 -40v629h-64v-629h64zM724 150q1 57 -14.5 100.5t-42.5 73.5q-27 29 -62.5 44.5t-74.5 15.5q-44 0 -79.5 -17.5t-60.5 -47.5t-38.5 -69.5t-13.5 -83.5q0 -45 13.5 -85t39.5 -70q25 -29 60.5 -46.5t78.5 -17.5q39 0 69.5 11t52.5 30q21 18 35.5 42t23.5 49h-68
q-12 -33 -38.5 -54.5t-74.5 -21.5q-22 0 -44 10t-40 29t-30 46.5t-13 61.5h321zM456 532v56h-423v-56h54h31h32.5t61.5 1v-574h64v573h180zM407 204q6 58 41.5 91.5t81.5 33.5q48 0 83.5 -34.5t41.5 -90.5h-248z" />
    <glyph glyph-name="uniE119" unicode="&#xe119;" horiz-adv-x="900" 
d="M376 495v-401q0 -24 -12.5 -36t-30.5 -14q-25 -3 -39 -9t-14 -26v-41h345v41q0 20 -14.5 26t-38.5 9q-20 2 -32 14t-12 36v497v9v10q0 4 -1.5 7.5t-4.5 6.5q-5 3 -15 4.5t-20 1.5h-18.5h-7.5l-196 -72v-63h111zM155 -146q-21 0 -41.5 7.5t-32.5 19.5q-17 16 -24.5 42.5
t-7.5 53.5v649q0 21 6 45.5t16 38.5q16 21 39.5 28.5t47.5 7.5h584q23 0 46.5 -7.5t40.5 -28.5q9 -14 15.5 -38.5t6.5 -45.5v-649q0 -27 -7.5 -53.5t-24.5 -42.5q-12 -12 -33 -19.5t-41 -7.5h-590zM170 780q-9 0 -25 -1t-33 -6q-18 -4 -35 -13t-28 -25q-20 -26 -25.5 -56.5
t-5.5 -49.5v-640q0 -11 1 -28t5 -36q4 -20 12 -38.5t23 -30.5q23 -21 50.5 -28.5t47.5 -7.5h586q20 0 47 7.5t51 28.5q14 12 22 30.5t12 38.5q4 19 5.5 36t1.5 28v640q0 19 -6 49.5t-25 56.5q-12 16 -29 25t-35 13q-17 5 -32.5 6t-24.5 1h-560z" />
    <glyph glyph-name="uniE11A" unicode="&#xe11a;" horiz-adv-x="900" 
d="M742 196h-42q-14 0 -18.5 -4t-7.5 -11t-6.5 -16.5t-13.5 -20.5q-9 -10 -23 -16.5t-23 -6.5l-316 1q-9 0 45 33t163 69q32 10 65.5 23.5t63.5 32.5q30 18 53.5 43t37.5 59q17 44 12 84.5t-27 73.5q-21 33 -56.5 56t-78.5 33q-23 4 -60.5 8.5t-80.5 2.5q-44 -2 -90 -14
t-84 -39q-21 -15 -38.5 -35t-26.5 -44q-10 -24 -9 -50.5t17 -54.5q11 -21 32 -30.5t44 -6.5q22 2 42 17.5t29 44.5q6 19 3 36.5t-9 30.5t-11.5 20.5t-4.5 7.5l7.5 6.5t25.5 13.5q17 7 45.5 12t69.5 2q33 -3 55.5 -20t31.5 -43q10 -25 4.5 -56t-27.5 -61q-16 -21 -39 -36.5
t-52 -30.5q-29 -16 -63 -33.5t-70 -41.5q-67 -45 -107 -93.5t-40 -95.5v-76h560zM155 -146q-21 0 -41.5 7.5t-32.5 19.5q-17 16 -24.5 42.5t-7.5 53.5v649q0 21 6 45.5t16 38.5q16 21 39.5 28.5t47.5 7.5h584q23 0 46.5 -7.5t40.5 -28.5q9 -14 15.5 -38.5t6.5 -45.5v-649
q0 -27 -7.5 -53.5t-24.5 -42.5q-12 -12 -33 -19.5t-41 -7.5h-590zM170 780q-9 0 -25 -1t-33 -6q-18 -4 -35 -13t-28 -25q-20 -26 -25.5 -56.5t-5.5 -49.5v-640q0 -11 1 -28t5 -36q4 -20 12 -38.5t23 -30.5q23 -21 50.5 -28.5t47.5 -7.5h586q20 0 47 7.5t51 28.5
q14 12 22 30.5t12 38.5q4 19 5.5 36t1.5 28v640q0 19 -6 49.5t-25 56.5q-12 16 -29 25t-35 13q-17 5 -32.5 6t-24.5 1h-560z" />
    <glyph glyph-name="uniE11B" unicode="&#xe11b;" horiz-adv-x="900" 
d="M566 326q-1 0 17 5t42 18q24 12 47.5 33.5t34.5 56.5q15 49 0 85.5t-49 60.5q-34 25 -82.5 38t-100.5 16q-56 3 -113.5 -4t-106.5 -40q-15 -10 -31.5 -29t-25.5 -43q-10 -24 -9 -50.5t21 -51.5q12 -17 32 -24t41 -4t39 17t26 40q6 19 3.5 35t-6.5 27q-5 12 -10 18t-4 6
l31.5 13.5t95.5 7.5q29 -3 51.5 -19.5t32.5 -39.5q11 -23 8 -49t-24 -49t-42.5 -30.5t-40.5 -8.5q-19 -2 -33.5 -2.5t-21.5 -9.5t-7 -28.5t4 -28.5q4 -11 16 -13t30 -2q18 -1 40 -4t47 -15q25 -14 40.5 -42t15.5 -60t-17.5 -62t-56.5 -46q-33 -14 -68 -14t-64 6t-48 13
t-19 8q-2 0 7 11t17 30q7 18 7.5 41.5t-17.5 47.5q-17 21 -39.5 29.5t-44.5 4.5q-23 -4 -41.5 -19.5t-25.5 -42.5q-13 -45 11 -94t70 -74q36 -21 78 -30.5t84 -10.5q42 -2 80.5 2t67.5 11q84 19 135.5 67.5t51.5 118.5q0 59 -28 93t-62 52q-33 17 -60.5 21.5t-25.5 6.5z
M155 -146q-21 0 -41.5 7.5t-32.5 19.5q-17 16 -24.5 42.5t-7.5 53.5v649q0 21 6 45.5t16 38.5q16 21 39.5 28.5t47.5 7.5h584q23 0 46.5 -7.5t40.5 -28.5q9 -14 15.5 -38.5t6.5 -45.5v-649q0 -27 -7.5 -53.5t-24.5 -42.5q-12 -12 -33 -19.5t-41 -7.5h-590zM170 780
q-9 0 -25 -1t-33 -6q-18 -4 -35 -13t-28 -25q-20 -26 -25.5 -56.5t-5.5 -49.5v-640q0 -11 1 -28t5 -36q4 -20 12 -38.5t23 -30.5q23 -21 50.5 -28.5t47.5 -7.5h586q20 0 47 7.5t51 28.5q14 12 22 30.5t12 38.5q4 19 5.5 36t1.5 28v640q0 19 -6 49.5t-25 56.5q-12 16 -29 25
t-35 13q-17 5 -32.5 6t-24.5 1h-560z" />
    <glyph glyph-name="uniE11C" unicode="&#xe11c;" horiz-adv-x="900" 
d="M247 219l221 264v-264h-221zM678 -32v40q0 13 -5.5 19.5t-12.5 10.5q-8 4 -17 7t-16 11q-4 3 -5.5 14.5t-1.5 24.5q0 12 0.5 22t0.5 11h139v91h-140l-1 383v7.5v6.5t-0.5 6t-1.5 8q-3 4 -11.5 6.5t-14.5 2.5h-91l-356 -420v-91h324v-11v-22q0 -13 -1.5 -24.5t-4.5 -14.5
q-8 -8 -17 -11t-16 -7q-8 -4 -13 -10.5t-5 -19.5v-40h267zM155 -146q-21 0 -41.5 7.5t-32.5 19.5q-17 16 -24.5 42.5t-7.5 53.5v649q0 21 6 45.5t16 38.5q16 21 39.5 28.5t47.5 7.5h584q23 0 46.5 -7.5t40.5 -28.5q9 -14 15.5 -38.5t6.5 -45.5v-649q0 -27 -7.5 -53.5
t-24.5 -42.5q-12 -12 -33 -19.5t-41 -7.5h-590zM170 780q-9 0 -25 -1t-33 -6q-18 -4 -35 -13t-28 -25q-20 -26 -25.5 -56.5t-5.5 -49.5v-640q0 -11 1 -28t5 -36q4 -20 12 -38.5t23 -30.5q23 -21 50.5 -28.5t47.5 -7.5h586q20 0 47 7.5t51 28.5q14 12 22 30.5t12 38.5
q4 19 5.5 36t1.5 28v640q0 19 -6 49.5t-25 56.5q-12 16 -29 25t-35 13q-17 5 -32.5 6t-24.5 1h-560z" />
    <glyph glyph-name="uniE11D" unicode="&#xe11d;" horiz-adv-x="900" 
d="M689 470l9 199h-37q-12 0 -17.5 -3.5t-9.5 -8.5l-6 -12t-8 -12q-5 -5 -10.5 -7.5t-11.5 -3.5t-12 -1h-11h-371l-14 -305l63 -55q1 0 14.5 4.5t35.5 9.5t51.5 9.5t62.5 4.5q32 0 61.5 -8t51.5 -24q22 -17 34 -42t11 -59q-3 -59 -44 -93t-94 -35q-63 -3 -99 12.5t-36 18.5
q-1 0 5.5 11t12.5 28q5 18 5 39.5t-13 43.5q-12 19 -32.5 27.5t-41.5 6.5q-21 -1 -40.5 -12.5t-29.5 -30.5q-10 -18 -10.5 -42.5t6.5 -48.5q7 -25 21.5 -46.5t35.5 -34.5q20 -13 42 -24t52 -18t70 -10t97 1q44 2 90.5 16t84.5 41q38 26 63 66t27 94q1 58 -22 100t-61 69
q-37 27 -83.5 40.5t-90.5 14.5q-53 0 -93 -5.5t-67 -12.5t-40.5 -12.5t-13.5 -4.5l6 116zM155 -146q-21 0 -41.5 7.5t-32.5 19.5q-17 16 -24.5 42.5t-7.5 53.5v649q0 21 6 45.5t16 38.5q16 21 39.5 28.5t47.5 7.5h584q23 0 46.5 -7.5t40.5 -28.5q9 -14 15.5 -38.5t6.5 -45.5
v-649q0 -27 -7.5 -53.5t-24.5 -42.5q-12 -12 -33 -19.5t-41 -7.5h-590zM170 780q-9 0 -25 -1t-33 -6q-18 -4 -35 -13t-28 -25q-20 -26 -25.5 -56.5t-5.5 -49.5v-640q0 -11 1 -28t5 -36q4 -20 12 -38.5t23 -30.5q23 -21 50.5 -28.5t47.5 -7.5h586q20 0 47 7.5t51 28.5
q14 12 22 30.5t12 38.5q4 19 5.5 36t1.5 28v640q0 19 -6 49.5t-25 56.5q-12 16 -29 25t-35 13q-17 5 -32.5 6t-24.5 1h-560z" />
    <glyph glyph-name="uniE11E" unicode="&#xe11e;" horiz-adv-x="900" 
d="M554 465q13 -25 35.5 -37.5t46.5 -10.5q23 2 44 18t32 49q5 16 2.5 41t-18.5 50q-17 24 -50 43.5t-89 24.5q-109 9 -187.5 -22.5t-127.5 -86.5q-50 -56 -72 -127.5t-19 -141.5q2 -62 22.5 -118.5t58.5 -99.5q38 -44 93.5 -70t129.5 -27q48 -1 96.5 10.5t89.5 36.5
q40 25 68.5 64t36.5 93q12 80 -29.5 139.5t-148.5 83.5q-53 12 -98.5 4.5t-78.5 -20.5q-34 -14 -52.5 -27t-18.5 -12q-1 -1 0.5 19t6.5 49q6 28 17 59.5t30 53.5q28 33 59.5 45t58.5 13q26 1 43.5 -4l17.5 -5q1 0 -2 -8t-5 -20q-2 -13 -1.5 -28.5t9.5 -30.5zM469 288
q30 -1 52.5 -16t36.5 -38q13 -23 16.5 -51t-2.5 -55q-9 -36 -32 -59.5t-52 -31.5q-30 -7 -61.5 1.5t-56.5 37.5q-19 20 -29.5 48t-14.5 53q-5 25 -5.5 43t0.5 18q-1 1 10 9t31 17t47 16.5t60 7.5zM155 -146q-21 0 -41.5 7.5t-32.5 19.5q-17 16 -24.5 42.5t-7.5 53.5v649
q0 21 6 45.5t16 38.5q16 21 39.5 28.5t47.5 7.5h584q23 0 46.5 -7.5t40.5 -28.5q9 -14 15.5 -38.5t6.5 -45.5v-649q0 -27 -7.5 -53.5t-24.5 -42.5q-12 -12 -33 -19.5t-41 -7.5h-590zM170 780q-9 0 -25 -1t-33 -6q-18 -4 -35 -13t-28 -25q-20 -26 -25.5 -56.5t-5.5 -49.5
v-640q0 -11 1 -28t5 -36q4 -20 12 -38.5t23 -30.5q23 -21 50.5 -28.5t47.5 -7.5h586q20 0 47 7.5t51 28.5q14 12 22 30.5t12 38.5q4 19 5.5 36t1.5 28v640q0 19 -6 49.5t-25 56.5q-12 16 -29 25t-35 13q-17 5 -32.5 6t-24.5 1h-560z" />
    <glyph glyph-name="uniE11F" unicode="&#xe11f;" horiz-adv-x="900" 
d="M441 -46q33 10 48 34.5t23 57.5q7 33 12.5 72.5t19.5 80.5q27 81 58 143t57 105q27 42 44.5 64t18.5 23v96h-440q-15 1 -32 3t-32 4q-14 1 -24 2.5l-10 1.5l-7 -240h35q13 0 20 6t11 15q3 8 5.5 17.5t7.5 16.5q7 12 17.5 18.5t28.5 6.5h299l-10 -11t-26 -29t-37.5 -42.5
t-44.5 -52.5q-24 -28 -47 -57.5t-44 -58.5q-20 -28 -36 -54.5t-23 -46.5q-19 -50 -14.5 -87t23.5 -59q18 -23 45.5 -30.5t53.5 1.5zM155 -146q-21 0 -41.5 7.5t-32.5 19.5q-17 16 -24.5 42.5t-7.5 53.5v649q0 21 6 45.5t16 38.5q16 21 39.5 28.5t47.5 7.5h584
q23 0 46.5 -7.5t40.5 -28.5q9 -14 15.5 -38.5t6.5 -45.5v-649q0 -27 -7.5 -53.5t-24.5 -42.5q-12 -12 -33 -19.5t-41 -7.5h-590zM170 780q-9 0 -25 -1t-33 -6q-18 -4 -35 -13t-28 -25q-20 -26 -25.5 -56.5t-5.5 -49.5v-640q0 -11 1 -28t5 -36q4 -20 12 -38.5t23 -30.5
q23 -21 50.5 -28.5t47.5 -7.5h586q20 0 47 7.5t51 28.5q14 12 22 30.5t12 38.5q4 19 5.5 36t1.5 28v640q0 19 -6 49.5t-25 56.5q-12 16 -29 25t-35 13q-17 5 -32.5 6t-24.5 1h-560z" />
    <glyph glyph-name="uniE120" unicode="&#xe120;" horiz-adv-x="900" 
d="M288 284q0 -1 -21.5 -8.5t-47.5 -23.5t-49 -41.5t-26 -62.5q-5 -55 17 -90.5t61 -57.5q38 -21 86.5 -30.5t97.5 -11.5q85 -5 149 8.5t108 40.5t67.5 65.5t28.5 84.5q6 62 -19.5 101.5t-58.5 62.5t-63 32t-33 10q2 0 22.5 9t44.5 27q23 18 40.5 45.5t14.5 66.5
q-4 42 -30.5 68.5t-64.5 41.5q-39 15 -85.5 19.5t-89.5 3.5q-43 -2 -86.5 -13.5t-78.5 -35.5q-35 -23 -57 -58.5t-23 -85.5q-2 -44 13.5 -75.5t33.5 -51.5q19 -20 34 -30zM538 195q30 -9 48.5 -31.5t17.5 -47.5q0 -25 -23.5 -46.5t-77.5 -28.5q-29 -4 -62.5 -4t-64.5 7
t-55 22t-32 41q-12 34 -2.5 60t25.5 44t31 27.5t16 9.5q0 1 11.5 -2.5l34.5 -10.5l55 -17.5t78 -22.5zM504 391q-1 -1 -27 4t-57 17q-31 11 -57.5 29t-27.5 42q-2 21 7.5 36.5t25.5 25.5t36.5 14.5t40.5 4.5q22 0 46 -2.5t44 -10.5q20 -9 32.5 -25.5t12.5 -44.5
q-1 -21 -12.5 -38t-25.5 -29t-26 -18t-12 -5zM155 -146q-21 0 -41.5 7.5t-32.5 19.5q-17 16 -24.5 42.5t-7.5 53.5v649q0 21 6 45.5t16 38.5q16 21 39.5 28.5t47.5 7.5h584q23 0 46.5 -7.5t40.5 -28.5q9 -14 15.5 -38.5t6.5 -45.5v-649q0 -27 -7.5 -53.5t-24.5 -42.5
q-12 -12 -33 -19.5t-41 -7.5h-590zM170 780q-9 0 -25 -1t-33 -6q-18 -4 -35 -13t-28 -25q-20 -26 -25.5 -56.5t-5.5 -49.5v-640q0 -11 1 -28t5 -36q4 -20 12 -38.5t23 -30.5q23 -21 50.5 -28.5t47.5 -7.5h586q20 0 47 7.5t51 28.5q14 12 22 30.5t12 38.5q4 19 5.5 36t1.5 28
v640q0 19 -6 49.5t-25 56.5q-12 16 -29 25t-35 13q-17 5 -32.5 6t-24.5 1h-560z" />
    <glyph glyph-name="uniE121" unicode="&#xe121;" horiz-adv-x="900" 
d="M576 350q0 -1 -17.5 -11.5t-44.5 -19.5q-28 -9 -61 -11.5t-64 12.5q-26 11 -41 33.5t-21 48.5t-3 52.5t14 46.5q15 28 42.5 44t58.5 18q31 1 61 -14.5t49 -49.5q12 -23 18 -49.5t8 -48.5t1.5 -36.5zM529 97q-31 -37 -64 -50t-61 -14q-27 -1 -44.5 4.5t-17.5 6.5
q-2 -1 2 9t7 25t1.5 32.5t-12.5 33.5q-22 29 -61 34t-67 -22q-17 -16 -23 -41t-1 -52q6 -27 23.5 -51t48.5 -36q42 -18 91 -22t96 3q48 7 90.5 24.5t72.5 42.5q80 66 115 159.5t14 228.5q-6 34 -28 76t-62 78q-39 36 -95 59t-129 20q-50 -3 -98 -17t-86 -40t-61.5 -66
t-23.5 -95q-2 -87 41.5 -135t111.5 -68q59 -18 109 -12.5t86 19.5q36 13 56 27l20 14l-1.5 -20t-7.5 -48q-5 -27 -15.5 -57t-26.5 -50zM155 -146q-21 0 -41.5 7.5t-32.5 19.5q-17 16 -24.5 42.5t-7.5 53.5v649q0 21 6 45.5t16 38.5q16 21 39.5 28.5t47.5 7.5h584
q23 0 46.5 -7.5t40.5 -28.5q9 -14 15.5 -38.5t6.5 -45.5v-649q0 -27 -7.5 -53.5t-24.5 -42.5q-12 -12 -33 -19.5t-41 -7.5h-590zM170 780q-9 0 -25 -1t-33 -6q-18 -4 -35 -13t-28 -25q-20 -26 -25.5 -56.5t-5.5 -49.5v-640q0 -11 1 -28t5 -36q4 -20 12 -38.5t23 -30.5
q23 -21 50.5 -28.5t47.5 -7.5h586q20 0 47 7.5t51 28.5q14 12 22 30.5t12 38.5q4 19 5.5 36t1.5 28v640q0 19 -6 49.5t-25 56.5q-12 16 -29 25t-35 13q-17 5 -32.5 6t-24.5 1h-560z" />
    <glyph glyph-name="uniE122" unicode="&#xe122;" horiz-adv-x="900" 
d="M656 311q0 -36 -2 -83t-9 -89t-21 -72t-37 -33q-28 -5 -43.5 20.5t-23.5 65.5q-7 41 -8.5 88.5t-1.5 88.5q0 31 1.5 77t8.5 89q8 43 24 73t45 29q23 -2 36.5 -28t19.5 -64q7 -38 8.5 -82t2.5 -80zM582 645q-47 -3 -82.5 -31.5t-59.5 -75.5q-25 -46 -38 -106t-14 -123
q-2 -69 10.5 -136t38.5 -118t66.5 -80t95.5 -21q46 6 78.5 39.5t54.5 82.5q21 49 31 107.5t12 113.5q1 61 -10.5 124t-35.5 113q-24 51 -61 82t-86 29zM149 -32h212v41q0 8 -2 13.5t-7 8.5q-4 4 -10.5 7.5t-15.5 8.5q-6 2 -9 9t-4 16q-1 8 -1 16.5v14.5v490v9v10q0 4 -1 7.5
t-2 6.5q-3 3 -12 4t-18 1h-17.5h-8.5l-119 -72v-64h64v-392q0 -6 -0.5 -14.5t-1.5 -16.5q-1 -9 -3.5 -16t-7.5 -9l-17 -8.5t-11 -7.5q-5 -3 -6.5 -8.5t-1.5 -13.5v-41zM155 -146q-21 0 -41.5 7.5t-32.5 19.5q-17 16 -24.5 42.5t-7.5 53.5v649q0 21 6 45.5t16 38.5
q16 21 39.5 28.5t47.5 7.5h584q23 0 46.5 -7.5t40.5 -28.5q9 -14 15.5 -38.5t6.5 -45.5v-649q0 -27 -7.5 -53.5t-24.5 -42.5q-12 -12 -33 -19.5t-41 -7.5h-590zM170 780q-9 0 -25 -1t-33 -6q-18 -4 -35 -13t-28 -25q-20 -26 -25.5 -56.5t-5.5 -49.5v-640q0 -11 1 -28t5 -36
q4 -20 12 -38.5t23 -30.5q23 -21 50.5 -28.5t47.5 -7.5h586q20 0 47 7.5t51 28.5q14 12 22 30.5t12 38.5q4 19 5.5 36t1.5 28v640q0 19 -6 49.5t-25 56.5q-12 16 -29 25t-35 13q-17 5 -32.5 6t-24.5 1h-560z" />
    <glyph glyph-name="uniE123" unicode="&#xe123;" horiz-adv-x="900" 
d="M185 -32h211v41q0 8 -2 13.5t-7 8.5q-4 4 -10.5 7.5t-15.5 8.5q-11 5 -12.5 24.5t-1.5 31.5v490v9v10q0 4 -1 7.5t-2 6.5q-3 3 -12 4t-18 1h-17.5h-8.5l-119 -72v-64h64v-392q0 -6 -0.5 -14.5t-1.5 -16.5q-1 -9 -3.5 -16t-7.5 -9l-17 -8.5t-11 -7.5q-4 -3 -5.5 -8.5
t-1.5 -13.5v-41zM525 -32h211v41q0 8 -2 13.5t-7 8.5q-4 4 -10.5 7.5t-15.5 8.5q-6 2 -8.5 9t-3.5 16q-1 8 -1 16.5v14.5v490v9t-1 10q0 4 -1 7.5t-2 6.5q-3 3 -12 4t-18 1h-17.5h-8.5l-119 -72v-64h64v-392q0 -6 -0.5 -14.5t-1.5 -16.5q-1 -9 -3.5 -16t-7.5 -9
q-10 -5 -16.5 -8.5t-10.5 -7.5q-5 -3 -6.5 -8.5t-1.5 -13.5v-41zM155 -146q-21 0 -41.5 7.5t-32.5 19.5q-17 16 -24.5 42.5t-7.5 53.5v649q0 21 6 45.5t16 38.5q16 21 39.5 28.5t47.5 7.5h584q23 0 46.5 -7.5t40.5 -28.5q9 -14 15.5 -38.5t6.5 -45.5v-649q0 -27 -7.5 -53.5
t-24.5 -42.5q-12 -12 -33 -19.5t-41 -7.5h-590zM170 780q-9 0 -25 -1t-33 -6q-18 -4 -35 -13t-28 -25q-20 -26 -25.5 -56.5t-5.5 -49.5v-640q0 -11 1 -28t5 -36q4 -20 12 -38.5t23 -30.5q23 -21 50.5 -28.5t47.5 -7.5h586q20 0 47 7.5t51 28.5q14 12 22 30.5t12 38.5
q4 19 5.5 36t1.5 28v640q0 19 -6 49.5t-25 56.5q-12 16 -29 25t-35 13q-17 5 -32.5 6t-24.5 1h-560z" />
    <glyph glyph-name="uniE124" unicode="&#xe124;" horiz-adv-x="900" 
d="M770 192h-24q-9 0 -13 -6.5t-7 -16.5t-6.5 -23t-9.5 -26q-6 -12 -16.5 -17t-15.5 -5h-201q-1 0 2 10t17 27q13 17 39.5 39t72.5 47q16 9 37.5 21.5t42.5 30.5q21 17 38.5 40t26.5 54q25 87 3 158t-83 100q-15 6 -41 11t-56 3t-60.5 -13.5t-52.5 -38.5q-26 -30 -41.5 -75
t4.5 -100q6 -19 24.5 -29t39.5 -9q20 1 38.5 15t25.5 44q4 23 -0.5 40t-11.5 28q-8 11 -15.5 16t-8.5 6q0 1 5 12t16 20q11 10 28.5 12.5t43.5 -12.5q11 -7 19 -26t11 -45q2 -25 -2.5 -55.5t-18.5 -59.5q-9 -19 -24.5 -36.5t-35.5 -36.5q-20 -20 -43 -41.5t-45 -48.5
q-40 -48 -53.5 -95t-13.5 -74v-69h356zM149 -32h212v41q0 8 -2 13.5t-7 8.5q-4 4 -10.5 7.5t-15.5 8.5q-6 2 -9 9t-4 16q-1 8 -1 16.5v14.5v490v9v10q0 4 -1 7.5t-2 6.5q-3 3 -12 4t-18 1h-17.5h-8.5l-119 -72v-64h64v-392q0 -6 -0.5 -14.5t-1.5 -16.5q-1 -9 -3.5 -16
t-7.5 -9l-17 -8.5t-11 -7.5q-5 -3 -6.5 -8.5t-1.5 -13.5v-41zM155 -146q-21 0 -41.5 7.5t-32.5 19.5q-17 16 -24.5 42.5t-7.5 53.5v649q0 21 6 45.5t16 38.5q16 21 39.5 28.5t47.5 7.5h584q23 0 46.5 -7.5t40.5 -28.5q9 -14 15.5 -38.5t6.5 -45.5v-649q0 -27 -7.5 -53.5
t-24.5 -42.5q-12 -12 -33 -19.5t-41 -7.5h-590zM170 780q-9 0 -25 -1t-33 -6q-18 -4 -35 -13t-28 -25q-20 -26 -25.5 -56.5t-5.5 -49.5v-640q0 -11 1 -28t5 -36q4 -20 12 -38.5t23 -30.5q23 -21 50.5 -28.5t47.5 -7.5h586q20 0 47 7.5t51 28.5q14 12 22 30.5t12 38.5
q4 19 5.5 36t1.5 28v640q0 19 -6 49.5t-25 56.5q-12 16 -29 25t-35 13q-17 5 -32.5 6t-24.5 1h-560z" />
    <glyph glyph-name="uniE125" unicode="&#xe125;" horiz-adv-x="900" 
d="M658 330q-1 0 12.5 6.5t30.5 22.5q16 16 31.5 43t18.5 69q2 36 -7 63.5t-25 48.5q-16 20 -37 33.5t-42 20.5q-45 13 -93.5 4t-81.5 -43q-8 -9 -19.5 -27.5t-18.5 -41.5q-8 -23 -9 -49t11 -50q8 -17 24.5 -25.5t33.5 -6.5q18 3 32.5 16t20.5 40q4 19 -0.5 34.5t-11.5 26.5
t-14 17t-7 7t7 9t19 15t28.5 8t37.5 -12q12 -8 20 -27t11 -41q4 -23 2 -46.5t-9 -41.5q-9 -23 -20.5 -30t-22.5 -9q-11 -1 -20 -1t-14 -8q-6 -9 -7 -32.5t9 -30.5q7 -6 13.5 -6.5t14.5 -1.5q7 0 17 -3.5t24 -15.5q13 -13 21 -43t7 -63q-1 -34 -11.5 -65.5t-33.5 -46.5
q-27 -18 -48 -17.5t-35 9.5t-21.5 19.5t-7.5 12.5q-1 0 9 9t20 25t15 37.5t-7 45.5q-11 21 -30 29.5t-38 5.5q-20 -3 -36 -17.5t-20 -39.5q-9 -45 7.5 -93.5t47.5 -75.5q41 -36 96 -42t106 17q52 24 81 69t29 115q0 59 -18 93t-39 52q-21 17 -38 22t-15 7zM152 -32h212v41
q0 8 -2 13.5t-7 8.5q-4 4 -10.5 7.5t-15.5 8.5q-6 2 -9 9t-4 16q-1 8 -1 16.5v14.5v490v9v10q0 4 -1 7.5t-3 6.5q-3 3 -12 4t-18 1h-17.5h-7.5l-119 -72v-64h64v-392q0 -6 -0.5 -14.5t-1.5 -16.5q-1 -9 -4 -16t-8 -9q-10 -5 -16.5 -8.5t-10.5 -7.5q-5 -3 -6.5 -8.5
t-1.5 -13.5v-41zM155 -146q-21 0 -41.5 7.5t-32.5 19.5q-17 16 -24.5 42.5t-7.5 53.5v649q0 21 6 45.5t16 38.5q16 21 39.5 28.5t47.5 7.5h584q23 0 46.5 -7.5t40.5 -28.5q9 -14 15.5 -38.5t6.5 -45.5v-649q0 -27 -7.5 -53.5t-24.5 -42.5q-12 -12 -33 -19.5t-41 -7.5h-590z
M170 780q-9 0 -25 -1t-33 -6q-18 -4 -35 -13t-28 -25q-20 -26 -25.5 -56.5t-5.5 -49.5v-640q0 -11 1 -28t5 -36q4 -20 12 -38.5t23 -30.5q23 -21 50.5 -28.5t47.5 -7.5h586q20 0 47 7.5t51 28.5q14 12 22 30.5t12 38.5q4 19 5.5 36t1.5 28v640q0 19 -6 49.5t-25 56.5
q-12 16 -29 25t-35 13q-17 5 -32.5 6t-24.5 1h-560z" />
    <glyph glyph-name="uniE126" unicode="&#xe126;" horiz-adv-x="900" 
d="M585 208h-126l126 235v-235zM152 -32h212v41q0 8 -2 13.5t-7 8.5q-4 4 -10.5 7.5t-15.5 8.5q-6 2 -9 9t-4 16q-1 8 -1 16.5v14.5v490v9v10q0 4 -1 7.5t-3 6.5q-3 3 -12 4t-18 1h-17.5h-7.5l-119 -72v-64h64v-392q0 -6 -0.5 -14.5t-1.5 -16.5q-1 -9 -4 -16t-8 -9
q-10 -5 -16.5 -8.5t-10.5 -7.5q-5 -3 -6.5 -8.5t-1.5 -13.5v-41zM686 103v26h87v79h-88v395q0 6 -0.5 12.5t-1.5 15.5q-1 4 -7.5 6.5t-9.5 2.5h-58l-230 -415v-93h199v-29q0 -1 -1 -8.5t-3 -17.5t-5 -19t-8 -11q-10 -5 -16.5 -8.5t-10.5 -7.5q-5 -3 -6.5 -8.5t-1.5 -13.5
v-41h211v41q0 8 -2 13.5t-7 8.5q-4 4 -10.5 7.5t-15.5 8.5q-6 2 -9 11t-4 18q-2 10 -2 18v9zM155 -146q-21 0 -41.5 7.5t-32.5 19.5q-17 16 -24.5 42.5t-7.5 53.5v649q0 21 6 45.5t16 38.5q16 21 39.5 28.5t47.5 7.5h584q23 0 46.5 -7.5t40.5 -28.5q9 -14 15.5 -38.5
t6.5 -45.5v-649q0 -27 -7.5 -53.5t-24.5 -42.5q-12 -12 -33 -19.5t-41 -7.5h-590zM170 780q-9 0 -25 -1t-33 -6q-18 -4 -35 -13t-28 -25q-20 -26 -25.5 -56.5t-5.5 -49.5v-640q0 -11 1 -28t5 -36q4 -20 12 -38.5t23 -30.5q23 -21 50.5 -28.5t47.5 -7.5h586q20 0 47 7.5
t51 28.5q14 12 22 30.5t12 38.5q4 19 5.5 36t1.5 28v640q0 19 -6 49.5t-25 56.5q-12 16 -29 25t-35 13q-17 5 -32.5 6t-24.5 1h-560z" />
    <glyph glyph-name="uniE127" unicode="&#xe127;" horiz-adv-x="900" 
d="M727 491l6 182h-18q-10 0 -15 -3.5t-7 -7.5q-2 -5 -4 -11t-5 -12q-4 -6 -8 -8.5t-9 -3.5q-4 -1 -8.5 -0.5t-7.5 0.5l-231 -2l-10 -306l38 -50l7 6t19 12q13 6 31 10.5t41 3.5q38 -3 66.5 -33t27.5 -94q-2 -57 -23 -97t-60 -43q-22 -2 -35.5 3t-21.5 12q-7 7 -10 13.5
t-2 8.5q-1 0 8 7t18 20t12.5 33t-6.5 46q-8 18 -24.5 27.5t-34.5 9.5q-19 0 -36.5 -10.5t-27.5 -31.5q-9 -18 -10 -41.5t5 -47.5t17.5 -45.5t27.5 -35.5q27 -27 67.5 -41t113.5 1q56 11 100 66.5t44 151.5q0 51 -12.5 88.5t-31.5 62.5q-18 26 -39.5 40t-39.5 19
q-38 9 -68.5 6t-51.5 -9q-21 -7 -32 -14.5t-11 -6.5l2 126zM144 -32h212v41q0 8 -2 13.5t-7 8.5q-4 4 -11 7.5t-16 8.5q-6 2 -8.5 9t-3.5 16q-1 8 -1 16.5v14.5v490v9v10q0 4 -1 7.5t-3 6.5q-3 3 -12 4t-18 1h-17.5h-7.5l-119 -72v-64h64v-392q0 -6 -0.5 -14.5t-1.5 -16.5
q-1 -9 -4 -16t-8 -9q-10 -5 -16.5 -8.5t-10.5 -7.5q-5 -3 -6.5 -8.5t-1.5 -13.5v-41zM155 -146q-21 0 -41.5 7.5t-32.5 19.5q-17 16 -24.5 42.5t-7.5 53.5v649q0 21 6 45.5t16 38.5q16 21 39.5 28.5t47.5 7.5h584q23 0 46.5 -7.5t40.5 -28.5q9 -14 15.5 -38.5t6.5 -45.5
v-649q0 -27 -7.5 -53.5t-24.5 -42.5q-12 -12 -33 -19.5t-41 -7.5h-590zM170 780q-9 0 -25 -1t-33 -6q-18 -4 -35 -13t-28 -25q-20 -26 -25.5 -56.5t-5.5 -49.5v-640q0 -11 1 -28t5 -36q4 -20 12 -38.5t23 -30.5q23 -21 50.5 -28.5t47.5 -7.5h586q20 0 47 7.5t51 28.5
q14 12 22 30.5t12 38.5q4 19 5.5 36t1.5 28v640q0 19 -6 49.5t-25 56.5q-12 16 -29 25t-35 13q-17 5 -32.5 6t-24.5 1h-560z" />
    <glyph glyph-name="uniE128" unicode="&#xe128;" horiz-adv-x="900" 
d="M621 468q8 -23 27.5 -34t40.5 -8q21 2 38 18.5t21 48.5q2 22 -4 48t-21 48q-16 23 -40 38t-57 17q-61 1 -106 -30.5t-74 -83.5q-30 -53 -43.5 -121t-10.5 -138q1 -63 12 -120t33 -101q23 -44 58.5 -71t86.5 -29q67 -3 120.5 48.5t64.5 156.5q7 76 -18.5 134.5t-77.5 81.5
q-34 15 -62 12t-49 -12q-20 -10 -31 -20t-11 -9q-2 -1 -1 17.5t5 45.5q3 27 10 57t18 53q15 33 30.5 44t27.5 11t19.5 -6t8.5 -6t-3.5 -8t-8.5 -21q-5 -14 -7 -30t4 -31zM617 275q18 -18 22 -59t1 -94q-3 -37 -13 -61t-24 -31q-14 -8 -30 2t-29 41q-10 20 -15.5 50t-8.5 59
t-4 50t-1 24l9 9.5t24 17.5q15 7 33 7.5t36 -15.5zM147 -32h211v41q0 8 -2 13.5t-7 8.5q-4 4 -10.5 7.5t-15.5 8.5q-6 2 -8.5 9t-3.5 16q-1 8 -1 16.5v14.5v490v9t-1 10q0 4 -1 7.5t-2 6.5q-3 3 -12 4t-18 1h-17.5h-8.5l-119 -72v-64h64v-392q0 -6 -0.5 -14.5t-1.5 -16.5
q-1 -9 -3.5 -16t-7.5 -9q-10 -5 -16.5 -8.5t-10.5 -7.5q-5 -3 -6.5 -8.5t-1.5 -13.5v-41zM155 -146q-21 0 -41.5 7.5t-32.5 19.5q-17 16 -24.5 42.5t-7.5 53.5v649q0 21 6 45.5t16 38.5q16 21 39.5 28.5t47.5 7.5h584q23 0 46.5 -7.5t40.5 -28.5q9 -14 15.5 -38.5t6.5 -45.5
v-649q0 -27 -7.5 -53.5t-24.5 -42.5q-12 -12 -33 -19.5t-41 -7.5h-590zM170 780q-9 0 -25 -1t-33 -6q-18 -4 -35 -13t-28 -25q-20 -26 -25.5 -56.5t-5.5 -49.5v-640q0 -11 1 -28t5 -36q4 -20 12 -38.5t23 -30.5q23 -21 50.5 -28.5t47.5 -7.5h586q20 0 47 7.5t51 28.5
q14 12 22 30.5t12 38.5q4 19 5.5 36t1.5 28v640q0 19 -6 49.5t-25 56.5q-12 16 -29 25t-35 13q-17 5 -32.5 6t-24.5 1h-560z" />
    <glyph glyph-name="uniE129" unicode="&#xe129;" horiz-adv-x="900" 
d="M589 -53q20 9 29.5 30t13.5 53q5 31 9 72.5t14 91.5q12 60 31 120.5t37 108.5t31.5 78t13.5 31v95h-282l-58 10l-5 -244h20q9 0 13.5 4.5t7.5 12.5t4.5 17.5t4.5 20.5q3 14 17 25.5t28 11.5l179 1l-25 -42t-57 -101t-63.5 -123t-44.5 -108q-17 -54 -13 -90t19 -55
q14 -20 35.5 -24.5t40.5 4.5zM152 -32h212v41q0 8 -2 13.5t-7 8.5q-4 4 -10.5 7.5t-15.5 8.5q-6 2 -9 9t-4 16q-1 8 -1 16.5v14.5v490v9v10q0 4 -1 7.5t-3 6.5q-3 3 -12 4t-18 1h-17.5h-7.5l-119 -72v-64h64v-392q0 -6 -0.5 -14.5t-1.5 -16.5q-1 -9 -4 -16t-8 -9
q-10 -5 -16.5 -8.5t-10.5 -7.5q-5 -3 -6.5 -8.5t-1.5 -13.5v-41zM155 -146q-21 0 -41.5 7.5t-32.5 19.5q-17 16 -24.5 42.5t-7.5 53.5v649q0 21 6 45.5t16 38.5q16 21 39.5 28.5t47.5 7.5h584q23 0 46.5 -7.5t40.5 -28.5q9 -14 15.5 -38.5t6.5 -45.5v-649q0 -27 -7.5 -53.5
t-24.5 -42.5q-12 -12 -33 -19.5t-41 -7.5h-590zM170 780q-9 0 -25 -1t-33 -6q-18 -4 -35 -13t-28 -25q-20 -26 -25.5 -56.5t-5.5 -49.5v-640q0 -11 1 -28t5 -36q4 -20 12 -38.5t23 -30.5q23 -21 50.5 -28.5t47.5 -7.5h586q20 0 47 7.5t51 28.5q14 12 22 30.5t12 38.5
q4 19 5.5 36t1.5 28v640q0 19 -6 49.5t-25 56.5q-12 16 -29 25t-35 13q-17 5 -32.5 6t-24.5 1h-560z" />
    <glyph glyph-name="uniE12A" unicode="&#xe12a;" horiz-adv-x="900" 
d="M481 287q0 -1 -14.5 -8.5t-31.5 -24.5q-18 -16 -33 -42t-17 -63q-3 -51 9.5 -86.5t35.5 -57.5q22 -23 53 -35t65 -16q58 -8 99.5 8t68.5 45t40 68t16 78q3 60 -13.5 99t-39.5 62q-22 22 -42 31.5t-22 10.5q1 0 15.5 9.5t30.5 28.5q16 18 28.5 46t10.5 67
q-3 38 -18.5 65.5t-39.5 44.5t-53.5 23t-58.5 3q-30 -4 -57.5 -16.5t-49.5 -35.5q-21 -23 -34.5 -58.5t-13.5 -85.5q-1 -42 9 -71.5t23 -49.5q13 -19 23.5 -29zM617 205q20 -10 35.5 -32.5t18.5 -47.5q2 -26 -11 -50.5t-49 -38.5q-38 -15 -76 8t-49 74q-8 34 -2.5 59.5
t15.5 43.5q9 17 18.5 25.5t10.5 8.5l5.5 -3.5l16.5 -10.5t27.5 -16.5t39.5 -19.5zM608 384q0 -1 -15 5.5t-33 19.5t-33.5 31.5t-16.5 41.5q-2 43 18 63.5t47 20.5q26 0 48.5 -19t25.5 -70q0 -21 -6 -38.5t-14 -29.5q-8 -13 -14.5 -19.5t-6.5 -5.5zM147 -32h211v41
q0 8 -2 13.5t-7 8.5q-4 4 -10.5 7.5t-15.5 8.5q-6 2 -8.5 9t-3.5 16q-1 8 -1 16.5v14.5v490v9t-1 10q0 4 -1 7.5t-2 6.5q-3 3 -12 4t-18 1h-17.5h-8.5l-119 -72v-64h64v-392q0 -6 -0.5 -14.5t-1.5 -16.5q-1 -9 -3.5 -16t-7.5 -9q-10 -5 -16.5 -8.5t-10.5 -7.5
q-5 -3 -6.5 -8.5t-1.5 -13.5v-41zM155 -146q-21 0 -41.5 7.5t-32.5 19.5q-17 16 -24.5 42.5t-7.5 53.5v649q0 21 6 45.5t16 38.5q16 21 39.5 28.5t47.5 7.5h584q23 0 46.5 -7.5t40.5 -28.5q9 -14 15.5 -38.5t6.5 -45.5v-649q0 -27 -7.5 -53.5t-24.5 -42.5q-12 -12 -33 -19.5
t-41 -7.5h-590zM170 780q-9 0 -25 -1t-33 -6q-18 -4 -35 -13t-28 -25q-20 -26 -25.5 -56.5t-5.5 -49.5v-640q0 -11 1 -28t5 -36q4 -20 12 -38.5t23 -30.5q23 -21 50.5 -28.5t47.5 -7.5h586q20 0 47 7.5t51 28.5q14 12 22 30.5t12 38.5q4 19 5.5 36t1.5 28v640q0 19 -6 49.5
t-25 56.5q-12 16 -29 25t-35 13q-17 5 -32.5 6t-24.5 1h-560z" />
    <glyph glyph-name="uniE12B" unicode="&#xe12b;" horiz-adv-x="900" 
d="M642 331q0 -1 -8 -8.5t-21 -14.5t-28.5 -9.5t-30.5 6.5q-17 9 -26 31t-12 48q-4 27 -3 53.5t4 46.5q4 34 17 56t30 27q16 6 33 -9t28 -54q8 -31 11.5 -62t5.5 -56q1 -24 0.5 -39.5zM616 91q-15 -42 -32 -56t-32 -14t-25.5 7t-10.5 9q-1 -1 5 7.5t12 21.5q6 14 8.5 30.5
t-5.5 33.5q-14 28 -44 33.5t-54 -10.5q-17 -12 -24 -36.5t-4 -52.5q4 -28 19 -55.5t44 -43.5q25 -16 53.5 -19t55.5 5q27 7 51.5 23.5t41.5 40.5q49 68 73 160.5t10 227.5q-4 33 -17.5 76.5t-37.5 81.5q-24 39 -59 64t-82 22q-35 -3 -66 -18t-54 -43q-24 -28 -38 -69
t-14 -96q-1 -87 23.5 -129t64.5 -68q30 -21 59 -19t52 13q23 10 37.5 21.5l14.5 11.5l-0.5 -15t-2.5 -38t-7.5 -51.5t-14.5 -55.5zM147 -32h211v41q0 8 -2 13.5t-7 8.5q-4 4 -10.5 7.5t-15.5 8.5q-6 2 -8.5 9t-3.5 16q-1 8 -1 16.5v14.5v490v9t-1 10q0 4 -1 7.5t-2 6.5
q-3 3 -12 4t-18 1h-17.5h-8.5l-119 -72v-64h64v-392q0 -6 -0.5 -14.5t-1.5 -16.5q-1 -9 -3.5 -16t-7.5 -9q-10 -5 -16.5 -8.5t-10.5 -7.5q-5 -3 -6.5 -8.5t-1.5 -13.5v-41zM155 -146q-21 0 -41.5 7.5t-32.5 19.5q-17 16 -24.5 42.5t-7.5 53.5v649q0 21 6 45.5t16 38.5
q16 21 39.5 28.5t47.5 7.5h584q23 0 46.5 -7.5t40.5 -28.5q9 -14 15.5 -38.5t6.5 -45.5v-649q0 -27 -7.5 -53.5t-24.5 -42.5q-12 -12 -33 -19.5t-41 -7.5h-590zM170 780q-9 0 -25 -1t-33 -6q-18 -4 -35 -13t-28 -25q-20 -26 -25.5 -56.5t-5.5 -49.5v-640q0 -11 1 -28t5 -36
q4 -20 12 -38.5t23 -30.5q23 -21 50.5 -28.5t47.5 -7.5h586q20 0 47 7.5t51 28.5q14 12 22 30.5t12 38.5q4 19 5.5 36t1.5 28v640q0 19 -6 49.5t-25 56.5q-12 16 -29 25t-35 13q-17 5 -32.5 6t-24.5 1h-560z" />
    <glyph glyph-name="uniE12C" unicode="&#xe12c;" horiz-adv-x="900" 
d="M689 305q0 -32 -1.5 -80.5t-7.5 -93.5q-6 -46 -17.5 -78t-32.5 -30q-19 1 -30 28t-17 67q-6 39 -7.5 85.5t-1.5 87.5q0 31 1.5 79t7.5 93t18.5 77t34.5 31q16 -2 26.5 -29.5t16.5 -68.5q5 -40 7.5 -86t2.5 -82zM633 644q-43 -2 -74 -30t-51 -75q-21 -46 -31 -107
t-11 -129t8.5 -132t30.5 -113q22 -49 55.5 -78t80.5 -26q43 2 73 34t49 80q18 49 26.5 107.5t9.5 115.5q0 66 -10 130t-31 114t-52.5 80t-72.5 29zM110 -32h306l10 224h-25q-9 0 -13 -6.5t-7 -16.5t-6.5 -23t-9.5 -26q-6 -12 -16.5 -17t-15.5 -5l-156 -1q-1 0 3.5 10.5
t18.5 29.5t40 45.5t69 57.5q32 23 62.5 54.5t48.5 92.5q11 40 9.5 78.5t-13.5 70.5t-32.5 56.5t-45.5 36.5q-14 6 -36 10.5t-47 2.5q-26 -3 -51 -14t-44 -36q-24 -32 -38.5 -77t3.5 -96q6 -19 24 -29t39 -9t39 14t25 42q5 21 1 37.5t-11 27.5t-13.5 16.5t-6.5 6.5t2 11t9 20
t19.5 14t33.5 -6q11 -6 20 -25t12 -44q3 -26 -0.5 -56.5t-15.5 -59.5q-10 -22 -21 -40.5t-24 -37.5q-14 -19 -31.5 -40.5t-40.5 -49.5q-36 -44 -55 -94t-19 -79v-70zM155 -146q-21 0 -41.5 7.5t-32.5 19.5q-17 16 -24.5 42.5t-7.5 53.5v649q0 21 6 45.5t16 38.5
q16 21 39.5 28.5t47.5 7.5h584q23 0 46.5 -7.5t40.5 -28.5q9 -14 15.5 -38.5t6.5 -45.5v-649q0 -27 -7.5 -53.5t-24.5 -42.5q-12 -12 -33 -19.5t-41 -7.5h-590zM170 780q-9 0 -25 -1t-33 -6q-18 -4 -35 -13t-28 -25q-20 -26 -25.5 -56.5t-5.5 -49.5v-640q0 -11 1 -28t5 -36
q4 -20 12 -38.5t23 -30.5q23 -21 50.5 -28.5t47.5 -7.5h586q20 0 47 7.5t51 28.5q14 12 22 30.5t12 38.5q4 19 5.5 36t1.5 28v640q0 19 -6 49.5t-25 56.5q-12 16 -29 25t-35 13q-17 5 -32.5 6t-24.5 1h-560z" />
    <glyph glyph-name="uniE12D" unicode="&#xe12d;" horiz-adv-x="900" 
d="M393 750q-36 0 -68 -15.5t-56 -42.5q-24 -26 -37.5 -61.5t-13.5 -74.5q0 -84 49.5 -140t137.5 -56v-510h36v860h99v-860h36v860h39v39z" />
    <glyph glyph-name="uniE12E" unicode="&#xe12e;" horiz-adv-x="900" 
d="M549 750h-54v-900h54v900zM396 750h-36v-900h36v900z" />
    <glyph glyph-name="uniE12F" unicode="&#xe12f;" horiz-adv-x="900" 
d="M351 750v-900h54v900h-54zM504 750v-900h36v900h-36z" />
    <glyph glyph-name="uniE130" unicode="&#xe130;" horiz-adv-x="900" 
d="M500 553v113h-101v-113h101zM500 243v113h-101v-113h101zM500 -67v113h-101v-113h101z" />
    <glyph glyph-name="uniE131" unicode="&#xe131;" horiz-adv-x="900" 
d="M690 454v114h-101v-114h101zM311 454v114h-101v-114h101zM690 32v114h-101v-114h101zM311 32v114h-101v-114h101z" />
    <glyph glyph-name="uniE132" unicode="&#xe132;" horiz-adv-x="900" 
 />
    <glyph glyph-name="uniE133" unicode="&#xe133;" horiz-adv-x="900" 
 />
    <glyph glyph-name="uniE134" unicode="&#xe134;" horiz-adv-x="900" 
 />
    <glyph glyph-name="uniE135" unicode="&#xe135;" horiz-adv-x="900" 
 />
    <glyph glyph-name="uniE136" unicode="&#xe136;" horiz-adv-x="900" 
 />
    <glyph glyph-name="uniE137" unicode="&#xe137;" horiz-adv-x="900" 
 />
    <glyph glyph-name="uniE138" unicode="&#xe138;" horiz-adv-x="900" 
 />
    <glyph glyph-name="uniE139" unicode="&#xe139;" horiz-adv-x="900" 
 />
    <glyph glyph-name="uniE13A" unicode="&#xe13a;" horiz-adv-x="900" 
 />
    <glyph glyph-name="uniE13B" unicode="&#xe13b;" horiz-adv-x="900" 
 />
    <glyph glyph-name="uniE13C" unicode="&#xe13c;" horiz-adv-x="900" 
 />
    <glyph glyph-name="uniE13D" unicode="&#xe13d;" horiz-adv-x="900" 
 />
    <glyph glyph-name="uniE13E" unicode="&#xe13e;" horiz-adv-x="900" 
 />
    <glyph glyph-name="uniE13F" unicode="&#xe13f;" horiz-adv-x="900" 
 />
    <glyph glyph-name="uniE140" unicode="&#xe140;" horiz-adv-x="900" 
 />
    <glyph glyph-name="uniE141" unicode="&#xe141;" horiz-adv-x="900" 
 />
    <glyph glyph-name="uniE142" unicode="&#xe142;" horiz-adv-x="900" 
 />
    <glyph glyph-name="uniE143" unicode="&#xe143;" horiz-adv-x="900" 
 />
    <glyph glyph-name="uniE144" unicode="&#xe144;" horiz-adv-x="900" 
 />
    <glyph glyph-name="uniE145" unicode="&#xe145;" horiz-adv-x="900" 
 />
    <glyph glyph-name="uni278A" unicode="&#x278a;" horiz-adv-x="900" 
 />
    <glyph glyph-name="uni278B" unicode="&#x278b;" horiz-adv-x="900" 
 />
    <glyph glyph-name="uni278C" unicode="&#x278c;" horiz-adv-x="900" 
 />
    <glyph glyph-name="uni278D" unicode="&#x278d;" horiz-adv-x="900" 
 />
    <glyph glyph-name="uni278E" unicode="&#x278e;" horiz-adv-x="900" 
 />
    <glyph glyph-name="uni278F" unicode="&#x278f;" horiz-adv-x="900" 
 />
    <glyph glyph-name="uni2790" unicode="&#x2790;" horiz-adv-x="900" 
 />
    <glyph glyph-name="uni2791" unicode="&#x2791;" horiz-adv-x="900" 
 />
    <glyph glyph-name="uni2792" unicode="&#x2792;" horiz-adv-x="900" 
 />
    <glyph glyph-name="uni2793" unicode="&#x2793;" horiz-adv-x="900" 
 />
    <glyph glyph-name="uniE146" unicode="&#xe146;" horiz-adv-x="900" 
 />
    <glyph glyph-name="uniE147" unicode="&#xe147;" horiz-adv-x="900" 
 />
    <glyph glyph-name="uniE148" unicode="&#xe148;" horiz-adv-x="900" 
 />
    <glyph glyph-name="uniE149" unicode="&#xe149;" horiz-adv-x="900" 
 />
    <glyph glyph-name="uniE14A" unicode="&#xe14a;" horiz-adv-x="900" 
 />
    <glyph glyph-name="uniE14B" unicode="&#xe14b;" horiz-adv-x="900" 
 />
    <glyph glyph-name="uniE14C" unicode="&#xe14c;" horiz-adv-x="900" 
 />
    <glyph glyph-name="uniE14D" unicode="&#xe14d;" horiz-adv-x="900" 
 />
    <glyph glyph-name="uniE14E" unicode="&#xe14e;" horiz-adv-x="900" 
 />
    <glyph glyph-name="uniE14F" unicode="&#xe14f;" horiz-adv-x="900" 
 />
    <glyph glyph-name="uniE150" unicode="&#xe150;" horiz-adv-x="900" 
 />
    <glyph glyph-name="uniE151" unicode="&#xe151;" horiz-adv-x="900" 
 />
    <glyph glyph-name="uniE152" unicode="&#xe152;" horiz-adv-x="900" 
 />
    <glyph glyph-name="uniE153" unicode="&#xe153;" horiz-adv-x="900" 
 />
    <glyph glyph-name="uniE154" unicode="&#xe154;" horiz-adv-x="900" 
 />
    <glyph glyph-name="uniE155" unicode="&#xe155;" horiz-adv-x="900" 
 />
    <glyph glyph-name="uniE156" unicode="&#xe156;" horiz-adv-x="900" 
 />
    <glyph glyph-name="uniE157" unicode="&#xe157;" horiz-adv-x="900" 
 />
    <glyph glyph-name="uniE158" unicode="&#xe158;" horiz-adv-x="900" 
 />
    <glyph glyph-name="uniE159" unicode="&#xe159;" horiz-adv-x="900" 
 />
    <glyph glyph-name="uniE15A" unicode="&#xe15a;" horiz-adv-x="900" 
 />
    <glyph glyph-name="uniE15B" unicode="&#xe15b;" horiz-adv-x="900" 
 />
    <glyph glyph-name="uniE15C" unicode="&#xe15c;" horiz-adv-x="900" 
 />
    <glyph glyph-name="uniE15D" unicode="&#xe15d;" horiz-adv-x="900" 
 />
    <glyph glyph-name="uniE15E" unicode="&#xe15e;" horiz-adv-x="900" 
 />
    <glyph glyph-name="uniE15F" unicode="&#xe15f;" horiz-adv-x="900" 
 />
    <glyph glyph-name="uniE160" unicode="&#xe160;" horiz-adv-x="900" 
 />
    <glyph glyph-name="uniE161" unicode="&#xe161;" horiz-adv-x="900" 
 />
    <glyph glyph-name="uniE162" unicode="&#xe162;" horiz-adv-x="900" 
 />
    <glyph glyph-name="uniE163" unicode="&#xe163;" horiz-adv-x="900" 
 />
    <glyph glyph-name="uniE164" unicode="&#xe164;" horiz-adv-x="900" 
 />
    <glyph glyph-name="uniE165" unicode="&#xe165;" horiz-adv-x="900" 
 />
    <glyph glyph-name="uniE166" unicode="&#xe166;" horiz-adv-x="900" 
 />
    <glyph glyph-name="uniE167" unicode="&#xe167;" horiz-adv-x="900" 
 />
    <glyph glyph-name="uniE168" unicode="&#xe168;" horiz-adv-x="900" 
 />
    <glyph glyph-name="uniE169" unicode="&#xe169;" horiz-adv-x="900" 
 />
    <glyph glyph-name="uni24B6" unicode="&#x24b6;" horiz-adv-x="900" 
 />
    <glyph glyph-name="uni24B7" unicode="&#x24b7;" horiz-adv-x="900" 
 />
    <glyph glyph-name="uni24B8" unicode="&#x24b8;" horiz-adv-x="900" 
 />
    <glyph glyph-name="uni24B9" unicode="&#x24b9;" horiz-adv-x="900" 
 />
    <glyph glyph-name="uni24BA" unicode="&#x24ba;" horiz-adv-x="900" 
 />
    <glyph glyph-name="uni24BB" unicode="&#x24bb;" horiz-adv-x="900" 
 />
    <glyph glyph-name="uni24BC" unicode="&#x24bc;" horiz-adv-x="900" 
 />
    <glyph glyph-name="uni24BD" unicode="&#x24bd;" horiz-adv-x="900" 
 />
    <glyph glyph-name="uni24BE" unicode="&#x24be;" horiz-adv-x="900" 
 />
    <glyph glyph-name="uni24BF" unicode="&#x24bf;" horiz-adv-x="900" 
 />
    <glyph glyph-name="uni24C0" unicode="&#x24c0;" horiz-adv-x="900" 
 />
    <glyph glyph-name="uni24C1" unicode="&#x24c1;" horiz-adv-x="900" 
 />
    <glyph glyph-name="uni24C2" unicode="&#x24c2;" horiz-adv-x="900" 
 />
    <glyph glyph-name="uni24C3" unicode="&#x24c3;" horiz-adv-x="900" 
 />
    <glyph glyph-name="uni24C4" unicode="&#x24c4;" horiz-adv-x="900" 
 />
    <glyph glyph-name="uni24C5" unicode="&#x24c5;" horiz-adv-x="900" 
 />
    <glyph glyph-name="uni24C6" unicode="&#x24c6;" horiz-adv-x="900" 
 />
    <glyph glyph-name="uni24C7" unicode="&#x24c7;" horiz-adv-x="900" 
 />
    <glyph glyph-name="uni24C8" unicode="&#x24c8;" horiz-adv-x="900" 
 />
    <glyph glyph-name="uni24C9" unicode="&#x24c9;" horiz-adv-x="900" 
 />
    <glyph glyph-name="uni24CA" unicode="&#x24ca;" horiz-adv-x="900" 
 />
    <glyph glyph-name="uni24CB" unicode="&#x24cb;" horiz-adv-x="900" 
 />
    <glyph glyph-name="uni24CC" unicode="&#x24cc;" horiz-adv-x="900" 
 />
    <glyph glyph-name="uni24CD" unicode="&#x24cd;" horiz-adv-x="900" 
 />
    <glyph glyph-name="uni24CE" unicode="&#x24ce;" horiz-adv-x="900" 
 />
    <glyph glyph-name="uni24CF" unicode="&#x24cf;" horiz-adv-x="900" 
 />
    <glyph glyph-name="uniEEB9" unicode="&#xeeb9;" horiz-adv-x="900" 
 />
    <glyph glyph-name="uniFF01" unicode="&#xff01;" horiz-adv-x="900" 
d="M493 719h-96l11 -518h75zM495 -15v101h-100v-101h100z" />
    <glyph glyph-name="uniFF02" unicode="&#xff02;" horiz-adv-x="900" 
d="M587 519v230h-75v-230h75zM390 519v230h-74v-230h74z" />
    <glyph glyph-name="uniFF03" unicode="&#xff03;" horiz-adv-x="900" 
d="M495 179l-28 -198h73l28 198h81v76h-70l29 207h75v76h-65l23 161h-73l-23 -161h-141l23 161h-73l-23 -161h-88v-76h78l-29 -207h-82v-76h71l-28 -198h73l28 198h141zM506 255h-141l29 207h141z" />
    <glyph glyph-name="uniFF04" unicode="&#xff04;" horiz-adv-x="900" 
d="M424 50q-4 -1 -7.5 -1.5t-7.5 -0.5h-6h-6q-24 0 -48.5 4t-47.5 9q-22 5 -40 10.5t-28 8.5l-9 -81q16 -5 34 -10.5t38 -9.5q19 -5 39.5 -7.5t41.5 -2.5q12 0 23.5 0.5t23.5 1.5v-60h52v69q76 17 125 65.5t49 133.5q0 47 -16 81.5t-40 60.5q-25 26 -56 45t-62 36v230
q38 0 72.5 -7t74.5 -21l9 82q-34 12 -79.5 18t-76.5 7v73h-52v-77q-78 -11 -127.5 -59.5t-49.5 -120.5q0 -45 15.5 -76.5t41.5 -54.5q25 -24 56.5 -42t63.5 -34v-270zM476 68v222q35 -21 58 -48t23 -67t-24.5 -66.5t-56.5 -40.5zM424 625v-195q-37 21 -61.5 45.5t-24.5 60.5
q0 39 26.5 60t59.5 29z" />
    <glyph glyph-name="uniFF05" unicode="&#xff05;" horiz-adv-x="900" 
d="M693 711h-70l-413 -742h70zM202 305q51 0 84.5 16.5t53.5 44.5q19 28 27 64t8 75q0 38 -8 75t-27 66q-20 29 -53.5 47t-84.5 18q-47 0 -79.5 -17t-52.5 -44q-21 -28 -30 -64t-9 -74q0 -39 9 -76.5t30 -66.5q20 -29 52.5 -46.5t79.5 -17.5zM202 645q27 0 42.5 -13.5
t23.5 -33.5q8 -21 10.5 -44t2.5 -42q0 -20 -2.5 -44.5t-10.5 -46.5q-8 -21 -23.5 -35.5t-42.5 -14.5q-25 0 -40 13.5t-24 34.5q-8 20 -11 43.5t-3 42.5q0 18 3 42.5t11 45.5q9 22 24 37t40 15zM692 -32q51 0 84.5 16.5t53.5 44.5q19 28 27 63.5t8 74.5q0 38 -8 75t-27 66
q-20 29 -53.5 47t-84.5 18q-47 0 -79.5 -17t-52.5 -44q-21 -28 -30 -64t-9 -74q0 -39 9 -76t30 -66q20 -29 52.5 -46.5t79.5 -17.5zM692 307q27 0 42.5 -13.5t23.5 -33.5t10.5 -43.5t2.5 -42.5q0 -20 -2.5 -44.5t-10.5 -45.5q-8 -22 -23.5 -36t-42.5 -14q-25 0 -40 13.5
t-24 33.5q-8 21 -11 44t-3 42q0 18 3 42.5t11 45.5q9 22 24 37t40 15z" />
    <glyph glyph-name="uniFF06" unicode="&#xff06;" horiz-adv-x="900" 
d="M803 -19l-125 137q23 34 43 95.5t29 153.5h-83q-5 -68 -18 -114.5t-31 -73.5l-155 183q27 10 56 28.5t52 42.5q24 24 39.5 53t15.5 62q0 83 -48 123t-114 40q-76 0 -123 -43t-47 -128q0 -47 19.5 -88t42.5 -72q-66 -27 -112.5 -77.5t-46.5 -136.5q0 -84 55.5 -140.5
t159.5 -56.5q72 0 123.5 20t89.5 65l66 -73h112zM458 644q38 0 61.5 -22.5t23.5 -74.5q0 -25 -11 -46.5t-28 -38.5q-16 -17 -35.5 -30t-35.5 -20q-24 26 -42.5 59t-18.5 71q0 48 24.5 75t61.5 27zM395 327l178 -217q-8 -9 -20 -22t-29 -25t-39 -20.5t-49 -8.5q-29 0 -55 10
t-46 28q-20 19 -32 44.5t-12 57.5q0 56 31 89.5t73 63.5z" />
    <glyph glyph-name="uniFF07" unicode="&#xff07;" horiz-adv-x="900" 
d="M494 519v230h-74v-230h74z" />
    <glyph glyph-name="uniFF08" unicode="&#xff08;" horiz-adv-x="900" 
d="M785 -139h75q-29 51 -57.5 105t-50.5 111q-22 56 -35.5 114.5t-13.5 117.5q0 56 14 114t37 115q22 57 50 112t56 107h-75q-33 -53 -63 -106.5t-53 -108.5q-23 -56 -36.5 -114t-13.5 -119q0 -63 13.5 -122t36.5 -114q23 -56 53 -108.5t63 -103.5z" />
    <glyph glyph-name="uniFF09" unicode="&#xff09;" horiz-adv-x="900" 
d="M115 -139q32 52 62 104.5t53 107.5t37 113t14 123q0 60 -14 118.5t-36 114.5q-23 56 -53 110t-63 105h-75q29 -51 57 -106.5t50 -112.5t36 -115t14 -114q0 -59 -14.5 -117.5t-36.5 -114.5q-23 -56 -51 -110.5t-55 -105.5h75z" />
    <glyph glyph-name="uniFF0A" unicode="&#xff0a;" horiz-adv-x="900" 
d="M657 521l-25 77l-151 -64l14 165h-82l16 -165l-158 64l-26 -77l169 -34l-115 -129l68 -44l84 144l85 -144l68 44l-111 129z" />
    <glyph glyph-name="uniFF0B" unicode="&#xff0b;" horiz-adv-x="900" 
d="M703 317v76h-209v214h-88v-214h-209v-76h209v-216h88v216h209z" />
    <glyph glyph-name="uniFF0C" unicode="&#xff0c;" horiz-adv-x="900" 
d="M511 80h-99l-62 -243h79z" />
    <glyph glyph-name="uniFF0D" unicode="&#xff0d;" horiz-adv-x="900" 
d="M640 316v76h-375v-76h375z" />
    <glyph glyph-name="uniFF0E" unicode="&#xff0e;" horiz-adv-x="900" 
d="M499 -41v101h-100v-101h100z" />
    <glyph glyph-name="uniFF0F" unicode="&#xff0f;" horiz-adv-x="900" 
d="M369 -71l247 792h-77l-247 -792h77z" />
    <glyph glyph-name="uniFF10" unicode="&#xff10;" horiz-adv-x="900" 
d="M448 -33q71 0 116.5 37t71.5 93q27 56 37 121.5t10 122.5q0 55 -10.5 120.5t-36.5 120.5q-26 56 -72 93.5t-116 37.5q-73 0 -119 -38t-72 -94q-26 -57 -35 -121.5t-9 -118.5q0 -59 10.5 -124.5t37.5 -121.5q27 -55 72.5 -91.5t114.5 -36.5zM448 640q42 0 69.5 -33
t43.5 -80t22.5 -98t6.5 -88q0 -42 -6 -94t-22 -98q-15 -46 -43 -77.5t-71 -31.5q-46 0 -74 31t-43 77t-20 98.5t-5 94.5q0 39 7 90.5t24 97.5q17 47 44 79t67 32z" />
    <glyph glyph-name="uniFF11" unicode="&#xff11;" horiz-adv-x="900" 
d="M521 -19v718h-72l-170 -124v-103l158 131v-622h84z" />
    <glyph glyph-name="uniFF12" unicode="&#xff12;" horiz-adv-x="900" 
d="M671 -18v71h-357q17 16 33 30t31 27t29.5 26t29.5 28q28 27 66.5 67.5t73.5 87.5q35 46 60 95.5t25 95.5q0 48 -19 84.5t-50 61.5q-32 24 -74 37t-88 13q-23 0 -46 -5t-45 -12q-23 -8 -45.5 -16.5t-42.5 -15.5l10 -74q13 6 31 15t40 17q21 8 45 14t49 6q63 0 102.5 -34.5
t39.5 -82.5q0 -47 -23.5 -95t-55.5 -91q-33 -43 -68.5 -79t-59.5 -58q-18 -17 -33.5 -30t-30.5 -25t-30.5 -25.5t-33.5 -29.5v-103h437z" />
    <glyph glyph-name="uniFF13" unicode="&#xff13;" horiz-adv-x="900" 
d="M364 -33q52 0 103.5 9.5t92.5 33.5q40 23 65.5 62t25.5 97q0 78 -50 126.5t-121 64.5v2q61 11 104 52t43 106q0 99 -63 146t-166 47q-40 0 -83.5 -9t-74.5 -20l5 -80q29 15 62.5 26.5t83.5 11.5q57 0 100.5 -25.5t43.5 -90.5q0 -38 -18.5 -62.5t-44.5 -38.5
q-26 -15 -56 -20.5t-53 -5.5h-53v-71h58q33 0 67.5 -8.5t61.5 -27.5q28 -19 45.5 -48.5t17.5 -71.5q0 -36 -19 -61t-47 -42q-28 -16 -61.5 -23.5t-61.5 -7.5q-47 0 -88 13.5t-64 26.5l-6 -82q30 -10 70 -19.5t81 -9.5z" />
    <glyph glyph-name="uniFF14" unicode="&#xff14;" horiz-adv-x="900" 
d="M709 129v73h-88v497h-130l-291 -500v-70h335v-148h86v148h88zM535 202h-238l236 441h2v-441z" />
    <glyph glyph-name="uniFF15" unicode="&#xff15;" horiz-adv-x="900" 
d="M429 -32q49 0 96.5 16.5t84.5 48.5q38 32 61 79t23 108q0 37 -17 74.5t-47 67.5t-71.5 48.5t-90.5 18.5q-34 0 -59.5 -3.5t-40.5 -7.5l7 208h298v73h-377l-6 -369q27 12 58 20t81 8q75 0 124 -40t49 -118q0 -34 -14.5 -63.5t-37.5 -50.5q-24 -22 -54.5 -34.5t-62.5 -12.5
q-46 0 -83.5 11t-71.5 30l-3 -81q12 -6 51.5 -18.5t102.5 -12.5z" />
    <glyph glyph-name="uniFF16" unicode="&#xff16;" horiz-adv-x="900" 
d="M469 -34q43 0 82.5 17t70.5 48t49.5 75t18.5 97q0 46 -14 88t-41 74t-66.5 51t-90.5 19q-44 0 -82 -14.5t-77 -47.5l-3 -1q0 54 13.5 103t39.5 85q26 37 64.5 58.5t88.5 21.5q33 0 65 -7t59 -22l12 80q-6 3 -22.5 6.5t-37.5 6.5q-20 3 -42 5t-39 2q-83 0 -137 -33.5
t-87 -87.5q-32 -54 -45 -123t-13 -139q0 -69 8 -134t33 -116t71 -81.5t122 -30.5zM472 362q31 0 54.5 -15t39.5 -38t24 -49.5t8 -50.5q0 -30 -8.5 -60.5t-25.5 -54.5q-18 -24 -43.5 -39t-59.5 -15q-33 0 -58 17t-42 42q-16 26 -24.5 55.5t-8.5 54.5q0 30 9.5 57.5t28.5 48.5
t45.5 34t60.5 13z" />
    <glyph glyph-name="uniFF17" unicode="&#xff17;" horiz-adv-x="900" 
d="M689 631v68h-432v-71h345l-270 -647h93z" />
    <glyph glyph-name="uniFF18" unicode="&#xff18;" horiz-adv-x="900" 
d="M342 372q-69 -28 -99 -85t-30 -111q0 -44 16 -82t46 -67q30 -28 74 -44.5t100 -16.5q55 0 99.5 16t74.5 45q31 28 47.5 66t16.5 82q0 57 -33.5 112.5t-98.5 83.5q51 19 78.5 58t27.5 91q0 42 -16.5 77.5t-44.5 61.5q-29 26 -67.5 41t-83.5 15t-83.5 -15t-66.5 -41
q-29 -26 -44.5 -61.5t-15.5 -77.5q0 -51 26 -90t77 -58zM305 178q0 21 10.5 47t30.5 49q19 23 45.5 38.5t57.5 15.5t58 -15.5t46 -38.5q20 -22 31 -48.5t11 -47.5q0 -24 -9.5 -49.5t-27.5 -47.5q-19 -21 -46 -35t-63 -14q-34 0 -61 14.5t-45 35.5q-19 22 -28.5 47.5
t-9.5 48.5zM328 525q0 19 7.5 41t22.5 41t38 32t53 13t53 -12.5t38 -31.5q16 -19 24 -41.5t8 -41.5q0 -22 -7.5 -44t-22.5 -39q-15 -18 -38.5 -29t-54.5 -11q-28 0 -50.5 11t-37.5 29q-16 17 -24.5 39t-8.5 44z" />
    <glyph glyph-name="uniFF19" unicode="&#xff19;" horiz-adv-x="900" 
d="M382 -30q82 0 137 33t89 87q33 54 47.5 122.5t14.5 139.5q0 58 -9 121.5t-35 115.5q-25 53 -71 87t-119 34q-43 0 -82 -16.5t-69 -47.5q-30 -30 -47.5 -73t-17.5 -95q0 -47 13.5 -89t39.5 -74q27 -33 65.5 -51.5t89.5 -18.5q42 0 81 14t79 48l2 2q-1 -55 -15.5 -104
t-42.5 -85q-27 -37 -66.5 -58t-89.5 -21q-33 0 -63.5 8t-56.5 22l-13 -80q5 -2 20.5 -5.5t36.5 -7.5q20 -3 42 -5.5t40 -2.5zM445 637q32 0 57 -17t42 -42q16 -25 25 -54t9 -53q0 -31 -10 -58.5t-29 -48.5t-45.5 -33.5t-59.5 -12.5q-32 0 -55 15t-38 38q-15 22 -22 49.5
t-7 51.5q0 30 7.5 59.5t24.5 52.5q16 23 41 38t60 15z" />
    <glyph glyph-name="uniFF1A" unicode="&#xff1a;" horiz-adv-x="900" 
d="M499 454v101h-100v-101h100zM499 5v101h-100v-101h100z" />
    <glyph glyph-name="uniFF1B" unicode="&#xff1b;" horiz-adv-x="900" 
d="M509 454v101h-100v-101h100zM518 124h-98l-63 -243h79z" />
    <glyph glyph-name="uniFF1C" unicode="&#xff1c;" horiz-adv-x="900" 
d="M840 41v89l-346 224l346 224v89l-410 -277v-72z" />
    <glyph glyph-name="uniFF1D" unicode="&#xff1d;" horiz-adv-x="900" 
d="M657 424v81h-413v-81h413zM657 203v82h-413v-82h413z" />
    <glyph glyph-name="uniFF1E" unicode="&#xff1e;" horiz-adv-x="900" 
d="M471 318v72l-410 277v-89l346 -224l-346 -224v-89z" />
    <glyph glyph-name="uniFF1F" unicode="&#xff1f;" horiz-adv-x="900" 
d="M472 268q21 34 46 62.5t48 58.5q22 29 37 62.5t15 76.5t-18.5 77t-47.5 57q-30 24 -68 36.5t-77 12.5q-51 0 -99 -13.5t-75 -27.5l9 -86q27 17 69.5 31t93.5 14q48 0 85.5 -25.5t37.5 -79.5q0 -27 -9 -50.5t-22 -43.5q-13 -21 -28.5 -39.5t-28.5 -33.5
q-20 -24 -31.5 -40.5t-17.5 -31.5t-7.5 -31t-1.5 -38v-34h83v29q0 8 -0.5 15t-0.5 14q1 7 2.5 13.5t5.5 14.5zM474 -35v101h-101v-101h101z" />
    <glyph glyph-name="uniFF20" unicode="&#xff20;" horiz-adv-x="900" 
d="M564 135q30 0 69.5 17.5t75.5 52.5q36 34 61 86.5t25 121.5q0 62 -26.5 116t-71.5 95q-45 40 -105.5 63.5t-128.5 23.5q-72 0 -137 -25t-114 -71q-49 -47 -78 -114t-29 -151t27.5 -151t77.5 -114q49 -47 118 -71.5t151 -24.5q88 0 165.5 44t124.5 117h-73
q-34 -43 -90.5 -71.5t-120.5 -28.5q-67 0 -123 17.5t-97 54.5q-41 36 -64 92t-23 133q0 64 20 119.5t58 96.5q37 40 89 63.5t116 23.5q59 0 108 -19t85 -53q35 -33 55 -80.5t20 -104.5q0 -35 -11.5 -69.5t-29.5 -61.5t-40.5 -43.5t-44.5 -16.5q-12 0 -15.5 8t-3.5 21
q0 9 2.5 21t5.5 24l72 259h-71l-16 -54q-23 36 -51.5 51.5t-62.5 15.5q-51 0 -91.5 -23t-68.5 -59q-29 -37 -43.5 -82.5t-14.5 -90.5q0 -32 10.5 -60.5t30.5 -50.5q19 -21 45.5 -34t58.5 -13q30 0 60.5 18t51.5 39h2q2 -28 19 -42.5t41 -14.5zM468 472q31 0 54.5 -24.5
t23.5 -60.5q0 -28 -10.5 -59t-28.5 -57q-18 -27 -42.5 -44t-53.5 -17q-39 0 -62 26.5t-23 68.5q0 27 10 56.5t29 53.5q19 25 45 41t58 16z" />
    <glyph glyph-name="uniFF21" unicode="&#xff21;" horiz-adv-x="900" 
d="M795 -19l-298 718h-87l-303 -718h88l80 200h348l78 -200h94zM593 251h-289l145 380h3z" />
    <glyph glyph-name="uniFF22" unicode="&#xff22;" horiz-adv-x="900" 
d="M433 -19q139 0 210 45.5t71 147.5q0 40 -15 73t-39 56t-55 36.5t-64 15.5v2q67 18 98 58t31 106q0 90 -61.5 134t-184.5 44h-176v-718h185zM332 628h116q21 0 45 -6t45 -19q20 -14 34 -36t14 -54q0 -42 -17.5 -66t-44.5 -37q-26 -12 -57 -15t-58 -3h-77v236zM332 318h103
q34 0 67 -5.5t60 -20.5q26 -15 42 -41.5t16 -69.5q0 -38 -16 -62.5t-42 -39.5t-60.5 -21t-71.5 -6h-98v266z" />
    <glyph glyph-name="uniFF23" unicode="&#xff23;" horiz-adv-x="900" 
d="M712 -2l-6 89q-27 -18 -72 -28.5t-81 -10.5q-54 0 -103.5 21t-87.5 60q-37 39 -59.5 93t-22.5 119q0 60 20 113t57 93q37 39 89 62t115 23q39 0 75 -12.5t66 -30.5l8 89q-38 17 -76.5 25t-80.5 8q-77 0 -143 -28t-115 -77q-49 -48 -77 -114.5t-28 -142.5
q0 -81 25.5 -150.5t72.5 -120.5q48 -51 114.5 -80t149.5 -29q27 0 73 4.5t87 24.5z" />
    <glyph glyph-name="uniFF24" unicode="&#xff24;" horiz-adv-x="900" 
d="M410 699h-212v-718h212q88 0 153 26.5t108 75.5q42 49 63 116.5t21 148.5q0 71 -25.5 135t-70.5 112q-46 48 -109.5 76t-139.5 28zM282 620h132q58 0 104.5 -20t78.5 -56q33 -37 50.5 -88t17.5 -113q0 -144 -61 -213.5t-206 -69.5h-116v560z" />
    <glyph glyph-name="uniFF25" unicode="&#xff25;" horiz-adv-x="900" 
d="M661 -19v79h-298v254h272v79h-272v227h299v79h-383v-718h382z" />
    <glyph glyph-name="uniFF26" unicode="&#xff26;" horiz-adv-x="900" 
d="M642 620v79h-364v-718h85v333h267v79h-267v227h279z" />
    <glyph glyph-name="uniFF27" unicode="&#xff27;" horiz-adv-x="900" 
d="M734 -2v368h-249v-71h162v-234q-10 -2 -18.5 -4t-20.5 -4q-13 -2 -32 -3t-49 -1q-54 0 -103.5 19.5t-87.5 56.5q-37 36 -59.5 88t-22.5 117q0 60 20 115t57 96q36 42 86.5 66.5t110.5 24.5q77 0 119 -13.5t78 -39.5l7 95q-22 7 -41 13.5t-42 12.5q-22 5 -51.5 8t-70.5 3
q-77 0 -143 -29.5t-115 -80.5q-49 -50 -77 -118t-28 -144q0 -82 25.5 -150t72.5 -117q48 -49 114.5 -76t149.5 -27q91 0 140.5 10.5t67.5 18.5z" />
    <glyph glyph-name="uniFF28" unicode="&#xff28;" horiz-adv-x="900" 
d="M713 -19v718h-84v-306h-356v306h-84v-718h84v333h356v-333h84z" />
    <glyph glyph-name="uniFF29" unicode="&#xff29;" horiz-adv-x="900" 
d="M493 -19v718h-84v-718h84z" />
    <glyph glyph-name="uniFF2A" unicode="&#xff2a;" horiz-adv-x="900" 
d="M509 167v532h-84v-514q0 -75 -28 -108.5t-95 -33.5q-12 0 -27.5 2.5t-32.5 8.5v-72q10 -6 28.5 -9.5t40.5 -3.5q57 0 95.5 15.5t60.5 42.5q23 27 32.5 63t9.5 77z" />
    <glyph glyph-name="uniFF2B" unicode="&#xff2b;" horiz-adv-x="900" 
d="M449 377l301 322h-116l-321 -346v346h-84v-718h84v250l78 84l258 -334h121z" />
    <glyph glyph-name="uniFF2C" unicode="&#xff2c;" horiz-adv-x="900" 
d="M684 -19v79h-301v639h-84v-718h385z" />
    <glyph glyph-name="uniFF2D" unicode="&#xff2d;" horiz-adv-x="900" 
d="M827 -19v718h-141l-232 -620h-5l-237 620h-141v-718h86v636l2 -1l248 -635h84l248 635h2v-635h86z" />
    <glyph glyph-name="uniFF2E" unicode="&#xff2e;" horiz-adv-x="900" 
d="M718 -19v718h-86v-622h-2l-315 622h-131v-718h86v622h2l315 -622h131z" />
    <glyph glyph-name="uniFF2F" unicode="&#xff2f;" horiz-adv-x="900" 
d="M782 339q0 77 -22.5 144.5t-65.5 118.5q-42 50 -103.5 79.5t-139.5 29.5t-139.5 -29.5t-104.5 -80.5t-65 -118.5t-22 -143.5q0 -80 22 -147.5t65 -117.5q42 -49 103.5 -77t140.5 -28q78 0 139.5 28t104.5 77q42 50 64.5 117.5t22.5 147.5zM210 339q0 56 15 108.5t45 93.5
t75.5 66t105.5 25t105 -25t75 -66t45.5 -93.5t15.5 -108.5q0 -54 -14.5 -106.5t-43.5 -93.5t-74.5 -66t-108.5 -25t-109 25t-75 66t-43 93.5t-14 106.5z" />
    <glyph glyph-name="uniFF30" unicode="&#xff30;" horiz-adv-x="900" 
d="M456 286q43 0 86 10.5t77 34.5t55 63.5t21 96.5q0 58 -20 98t-53 64q-34 24 -80 35t-98 11h-215v-718h84v305h143zM313 620h129q21 0 49.5 -7t53.5 -22t42.5 -38.5t17.5 -57.5q0 -36 -14.5 -61t-35.5 -40q-21 -16 -46 -22.5t-47 -6.5h-149v255z" />
    <glyph glyph-name="uniFF31" unicode="&#xff31;" horiz-adv-x="900" 
d="M544 -18l78 -113h126l-116 151q73 46 112 130t39 189q0 77 -22.5 144.5t-65.5 118.5q-42 50 -103.5 79.5t-139.5 29.5t-139.5 -29.5t-104.5 -80.5t-65 -118.5t-22 -143.5q0 -80 22 -147.5t65 -117.5q42 -49 103.5 -77t140.5 -28q24 0 47.5 3t44.5 10zM494 52
q-9 -3 -20 -3.5t-22 -0.5q-63 0 -109 25t-75 66t-43 93.5t-14 106.5q0 56 15 108.5t45 93.5t75.5 66t105.5 25t105 -25t75 -66t45.5 -93.5t15.5 -108.5q0 -75 -27.5 -144t-84.5 -108l-115 150h-100z" />
    <glyph glyph-name="uniFF32" unicode="&#xff32;" horiz-adv-x="900" 
d="M639 -19h98q-17 32 -34 64.5t-33 64.5q-17 33 -33 65.5t-29 65.5q-15 38 -34 56t-49 30v2q32 4 60.5 19t49.5 37q22 22 34.5 50t12.5 61q0 64 -25.5 103.5t-64.5 61.5t-87 30t-94 8h-163v-718h84v314h82q10 0 24.5 -2t30.5 -9q16 -6 31 -19.5t26 -35.5zM444 619
q39 0 67 -11.5t46 -28.5t26.5 -38.5t8.5 -40.5q0 -51 -47 -89t-128 -38l-85 1v245h112z" />
    <glyph glyph-name="uniFF33" unicode="&#xff33;" horiz-adv-x="900" 
d="M390 -31q56 0 105.5 12t86.5 37q37 26 59 65.5t22 95.5q0 43 -13.5 76t-35.5 58t-50.5 44.5t-57.5 35.5t-57.5 30.5t-50.5 31.5q-22 16 -35 35.5t-13 46.5t14 45t36 29t47 16t48 5q40 0 70 -6.5t71 -21.5l9 82q-36 12 -78 18.5t-72 6.5q-48 0 -91 -13.5t-75 -37.5
t-50.5 -58t-18.5 -75t13 -70.5t35 -52.5q22 -22 50 -39.5t57 -32.5t57 -30t50 -33t35.5 -41t13.5 -53q0 -34 -18 -58t-43 -40q-25 -15 -53 -22t-47 -7q-24 0 -48.5 4t-47.5 9q-22 5 -40 10.5t-28 8.5l-9 -81q16 -5 34 -10.5t38 -9.5q19 -5 39.5 -7.5t41.5 -2.5z" />
    <glyph glyph-name="uniFF34" unicode="&#xff34;" horiz-adv-x="900" 
d="M708 620v79h-519v-79h217v-639h84v639h218z" />
    <glyph glyph-name="uniFF35" unicode="&#xff35;" horiz-adv-x="900" 
d="M714 280v414h-84v-413q0 -53 -9 -96.5t-30 -75.5q-21 -31 -56 -48.5t-86 -17.5q-52 0 -87 17.5t-56 48.5q-21 32 -29.5 75.5t-8.5 96.5v413h-84v-414q0 -150 69 -233t196 -83q126 0 195.5 83t69.5 233z" />
    <glyph glyph-name="uniFF36" unicode="&#xff36;" horiz-adv-x="900" 
d="M761 698h-92l-219 -656l-209 656h-97l252 -718h106z" />
    <glyph glyph-name="uniFF37" unicode="&#xff37;" horiz-adv-x="900" 
d="M894 699h-94l-140 -634h-2l-145 634h-123l-144 -634h-2l-141 634h-95l181 -718h118l144 651h2l145 -651h108z" />
    <glyph glyph-name="uniFF38" unicode="&#xff38;" horiz-adv-x="900" 
d="M766 -19l-256 376l231 342h-105l-180 -286l-178 286h-113l230 -345l-254 -373h108l196 316l208 -316h113z" />
    <glyph glyph-name="uniFF39" unicode="&#xff39;" horiz-adv-x="900" 
d="M762 699h-107l-201 -321l-204 321h-102l263 -400v-318h87v318z" />
    <glyph glyph-name="uniFF3A" unicode="&#xff3a;" horiz-adv-x="900" 
d="M693 -19v79h-365l349 559v80h-441v-79h340l-352 -559v-80h469z" />
    <glyph glyph-name="uniFF3B" unicode="&#xff3b;" horiz-adv-x="900" 
d="M851 -139v59h-103v778h103v59h-175v-896h175z" />
    <glyph glyph-name="uniFFE6" unicode="&#xffe6;" horiz-adv-x="900" 
d="M801 406h89v66h-72l56 227h-94l-47 -227h-172l-48 227h-123l-48 -227h-172l-47 227h-95l54 -227h-71v-66h87l101 -425h118l87 425h96l88 -425h108zM184 406h144l-72 -341h-2zM575 406h145l-70 -341h-2zM486 472h-68l33 160h2z" />
    <glyph glyph-name="uniFF3D" unicode="&#xff3d;" horiz-adv-x="900" 
d="M226 -139v896h-175v-59h103v-778h-103v-59h175z" />
    <glyph glyph-name="uniFF3E" unicode="&#xff3e;" horiz-adv-x="900" 
d="M654 464l-165 265h-78l-165 -265h82l122 206l122 -206h82z" />
    <glyph glyph-name="uniFF3F" unicode="&#xff3f;" horiz-adv-x="900" 
d="M900 -200v50h-900v-50h900z" />
    <glyph glyph-name="uniFF40" unicode="&#xff40;" horiz-adv-x="900" 
d="M520 586l-92 146h-94l133 -146h53z" />
    <glyph glyph-name="uniFF41" unicode="&#xff41;" horiz-adv-x="900" 
d="M577 -19h77q-2 25 -3 53t-1 56v212q0 100 -46 159.5t-152 59.5q-51 0 -92 -15t-74 -37l2 -66q30 22 68.5 36t80.5 14q75 0 102.5 -42t27.5 -109q-31 1 -55 1.5t-55 0.5q-50 0 -91.5 -13.5t-71.5 -36.5q-31 -22 -47.5 -51t-16.5 -59q0 -86 46.5 -130.5t142.5 -44.5
q31 0 57.5 8.5t46.5 20.5q20 11 33.5 23.5t20.5 20.5h2q0 -18 -0.5 -32t-1.5 -29zM507 238l60 -2v-12t1 -12t1.5 -11.5t0.5 -11.5q0 -68 -42 -110.5t-111 -42.5q-16 0 -33.5 6.5t-31.5 19.5q-15 13 -24.5 33t-9.5 46q0 35 22.5 54.5t53.5 28.5q31 10 63 12t50 2z" />
    <glyph glyph-name="uniFF42" unicode="&#xff42;" horiz-adv-x="900" 
d="M481 -31q57 0 98.5 25t68.5 66t40 92.5t13 104.5q0 50 -14.5 97.5t-42.5 84.5q-29 37 -70 59.5t-95 22.5q-72 0 -111.5 -25.5t-63.5 -58.5h-2v282h-78v-738h74v76h2q7 -12 21.5 -27.5t36.5 -28.5q22 -14 52.5 -23t70.5 -9zM465 456q40 0 69 -18.5t47 -48.5t27 -67.5
t9 -74.5q0 -32 -9 -69t-28 -69q-18 -32 -47 -53.5t-68 -21.5q-43 0 -73.5 20t-50.5 50q-20 31 -29.5 68t-9.5 71q0 39 10 77t31 68q20 30 50.5 49t71.5 19z" />
    <glyph glyph-name="uniFF43" unicode="&#xff43;" horiz-adv-x="900" 
d="M633 -6l-8 74q-24 -18 -54.5 -26t-52.5 -8q-50 0 -83.5 20t-53.5 51t-28.5 68t-8.5 71q0 36 10 73.5t30 68.5q21 31 52.5 50.5t74.5 19.5q18 0 45.5 -5.5t57.5 -17.5l7 67q-18 8 -49.5 14.5t-55.5 6.5q-58 0 -105.5 -20.5t-80.5 -57.5q-34 -37 -52 -88t-18 -111
q0 -57 16.5 -107t49.5 -87q32 -38 79.5 -59.5t108.5 -21.5q19 0 54 5t65 20z" />
    <glyph glyph-name="uniFF44" unicode="&#xff44;" horiz-adv-x="900" 
d="M677 -19v738h-78v-284h-2q-19 34 -61 60t-114 26q-54 0 -95.5 -22.5t-69.5 -59.5q-29 -37 -43 -84.5t-14 -97.5q0 -52 13 -103.5t40 -92.5t68.5 -66.5t98.5 -25.5q38 0 68.5 9t52.5 23q23 13 37.5 29t22.5 29h2v-78h74zM284 247q0 38 8.5 75.5t26.5 67.5q18 29 47 47.5
t70 18.5q40 0 70.5 -19t51.5 -49q20 -30 30.5 -68t10.5 -77q0 -34 -10 -71t-30 -68q-20 -30 -50.5 -50t-72.5 -20q-40 0 -69 21.5t-47 53.5q-19 32 -27.5 69t-8.5 69z" />
    <glyph glyph-name="uniFF45" unicode="&#xff45;" horiz-adv-x="900" 
d="M315 227h367q0 59 -11.5 112.5t-36.5 93.5q-26 40 -67.5 64t-101.5 24q-52 0 -96 -20t-76 -56q-32 -35 -49.5 -83t-17.5 -103q0 -64 15 -117.5t47 -91.5q31 -39 81 -60t119 -21q65 0 103 11t62 26v88q-26 -24 -71.5 -41t-90.5 -17q-35 0 -67 14.5t-57 39.5q-24 26 -39 61
t-13 76zM593 288h-278q2 24 11 53t26 54t43 42t64 17q31 0 56 -14.5t42 -37.5q18 -24 27 -53.5t9 -60.5z" />
    <glyph glyph-name="uniFF46" unicode="&#xff46;" horiz-adv-x="900" 
d="M609 674l6 60q-7 0 -14 1.5t-14 2.5q-7 2 -13 3.5t-10 1.5q-57 0 -91.5 -14t-52.5 -41q-19 -27 -24.5 -67.5t-5.5 -94.5v-35h-110v-67h110v-443h78v443h138v67h-138v50q0 34 2.5 59.5t13.5 42.5q10 17 31 26t57 9q8 0 19 -1.5t18 -2.5z" />
    <glyph glyph-name="uniFF47" unicode="&#xff47;" horiz-adv-x="900" 
d="M677 26v483h-71v-78h-2q-18 39 -58 64.5t-114 25.5q-58 0 -101.5 -24t-72.5 -62t-43.5 -87t-14.5 -98t14 -94t42 -79t69.5 -54t95.5 -20q45 0 93 18t83 60h2v-41q1 -92 -41.5 -133t-109.5 -41q-58 0 -106 12.5t-106 39.5l-6 -76q56 -18 106.5 -29.5t89.5 -11.5
q124 0 187.5 52t63.5 173zM435 456q40 0 71 -17t51 -46q21 -29 31.5 -67t10.5 -80q0 -38 -13 -70.5t-35 -56.5t-51.5 -37.5t-62.5 -13.5q-35 0 -63 14t-48 40q-21 25 -31.5 59.5t-10.5 75.5q0 33 9.5 68.5t29.5 64.5q19 29 47 47.5t65 18.5z" />
    <glyph glyph-name="uniFF48" unicode="&#xff48;" horiz-adv-x="900" 
d="M677 -19v314q0 109 -48 167.5t-150 58.5q-54 0 -97 -22.5t-68 -63.5h-2v284h-78v-738h78v250q0 110 43 169t127 56q60 -3 88.5 -46.5t28.5 -148.5v-280h78z" />
    <glyph glyph-name="uniFF49" unicode="&#xff49;" horiz-adv-x="900" 
d="M496 631v97h-94v-97h94zM488 -19v528h-78v-528h78z" />
    <glyph glyph-name="uniFF4A" unicode="&#xff4a;" horiz-adv-x="900" 
d="M506 631v97h-94v-97h94zM498 13v496h-78v-523q0 -53 -13 -84.5t-44 -28.5l-41 5l-2 -75q9 -2 24.5 -2h30.5q47 0 72 18.5t36 48.5q12 30 13.5 68t1.5 77z" />
    <glyph glyph-name="uniFF4B" unicode="&#xff4b;" horiz-adv-x="900" 
d="M414 219l186 -238h112l-245 293l222 235h-115l-223 -243v453h-78v-738h78v171z" />
    <glyph glyph-name="uniFF4C" unicode="&#xff4c;" horiz-adv-x="900" 
d="M488 -19v738h-78v-738h78z" />
    <glyph glyph-name="uniFF4D" unicode="&#xff4d;" horiz-adv-x="900" 
d="M812 -19v348q0 81 -42 136.5t-140 55.5q-15 0 -36.5 -5.5t-43.5 -17.5q-23 -12 -43.5 -31.5t-33.5 -47.5q-20 53 -61.5 77.5t-80.5 24.5q-64 0 -102.5 -22t-63.5 -65h-2v75h-73v-528h78v280q0 39 9 74.5t27 62.5q19 26 46.5 42t64.5 16q28 0 46.5 -14.5t30.5 -36.5
q11 -22 15.5 -49t4.5 -52v-323h78v280q0 39 9 74.5t27 62.5q19 26 46.5 42t65.5 16q28 0 46.5 -14.5t29.5 -36.5t15.5 -49t4.5 -52v-323h78z" />
    <glyph glyph-name="uniFF4E" unicode="&#xff4e;" horiz-adv-x="900" 
d="M677 -19v314q0 109 -48 167.5t-150 58.5q-54 0 -102 -27.5t-64 -69.5h-2v85h-77v-528h78v250q0 110 43 169t127 56q60 -3 88.5 -46.5t28.5 -148.5v-280h78z" />
    <glyph glyph-name="uniFF4F" unicode="&#xff4f;" horiz-adv-x="900" 
d="M456 -31q55 0 102 22.5t81 60.5q34 39 53 89t19 105t-18 105t-51 88q-34 37 -81 59.5t-105 22.5q-59 0 -106.5 -22.5t-80.5 -59.5q-34 -38 -51.5 -88t-17.5 -105t18 -105t52 -89q33 -38 80.5 -60.5t105.5 -22.5zM456 456q39 0 70.5 -19.5t53.5 -50.5q23 -30 35 -67.5
t12 -72.5q0 -33 -10 -70.5t-31 -68.5q-21 -32 -53.5 -52.5t-76.5 -20.5q-46 0 -78.5 20.5t-53.5 52.5q-21 31 -30.5 68.5t-9.5 70.5q0 35 11.5 72.5t33.5 67.5q23 31 54.5 50.5t72.5 19.5z" />
    <glyph glyph-name="uniFF50" unicode="&#xff50;" horiz-adv-x="900" 
d="M502 -31q56 0 97.5 25t68.5 66t40 92.5t13 104.5q0 50 -14.5 97.5t-42.5 84.5q-29 37 -70 59.5t-95 22.5q-36 0 -65 -8.5t-51 -21.5q-23 -12 -38.5 -27t-23.5 -27h-2v72h-75v-708h78v254h2q16 -33 58 -59.5t120 -26.5zM485 456q40 0 69 -18.5t47 -48.5t27 -67.5t9 -74.5
q0 -32 -9 -69t-28 -69q-18 -32 -47 -53.5t-68 -21.5q-43 0 -73.5 20t-50.5 50q-20 31 -29.5 68t-9.5 71q0 39 10 77t31 68q20 30 50.5 49t71.5 19z" />
    <glyph glyph-name="uniFF51" unicode="&#xff51;" horiz-adv-x="900" 
d="M667 -199v708h-75v-73h-2q-9 12 -24.5 27t-38.5 27q-22 13 -51.5 22t-65.5 9q-54 0 -95 -22.5t-69 -59.5t-42 -84.5t-14 -97.5q0 -52 12.5 -103.5t39.5 -92.5t68.5 -66.5t98.5 -25.5q61 0 111 24.5t67 57.5h2v-250h78zM274 247q0 38 8.5 75.5t26.5 67.5q18 29 47 47.5
t70 18.5q40 0 70.5 -19t51.5 -49q20 -30 30.5 -68t10.5 -77q0 -34 -10 -71t-30 -68q-20 -30 -50.5 -50t-72.5 -20q-40 0 -69 21.5t-47 53.5q-19 32 -27.5 69t-8.5 69z" />
    <glyph glyph-name="uniFF52" unicode="&#xff52;" horiz-adv-x="900" 
d="M631 449v64q-18 3 -36.5 5.5t-43.5 2.5q-33 0 -69.5 -17.5t-60.5 -58.5h-2v64h-76v-528h78v269q0 56 13 95.5t34 63.5q22 25 49 36.5t55 11.5q12 0 28 -1.5t31 -6.5z" />
    <glyph glyph-name="uniFF53" unicode="&#xff53;" horiz-adv-x="900" 
d="M430 -31q34 0 69 11t62 32q28 21 45.5 52t17.5 70q0 28 -11 50t-29 39q-17 16 -39.5 29t-46.5 25q-24 11 -46.5 22.5t-39.5 23.5q-18 13 -28.5 29t-10.5 38q0 35 32.5 49.5t89.5 14.5q4 0 18.5 -3t31.5 -7t32 -9t20 -9l8 75q-27 8 -60.5 14t-56.5 6q-42 0 -78 -9.5
t-63 -28.5t-42 -47.5t-15 -67.5q0 -24 10.5 -43.5t28.5 -35.5q17 -17 39.5 -31t46.5 -26q23 -13 45.5 -25.5t39.5 -25.5q18 -13 29 -27.5t11 -30.5q0 -22 -12.5 -38t-31.5 -27t-42 -16.5t-44 -5.5q-24 0 -63 11.5t-65 31.5l-4 -74q31 -18 69 -27t83 -9z" />
    <glyph glyph-name="uniFF54" unicode="&#xff54;" horiz-adv-x="900" 
d="M612 -16l-1 69q-9 -6 -27 -12.5t-41 -6.5q-30 0 -57.5 22t-27.5 71v309h137v67h-137v141l-78 -25v-116h-93v-67h93v-327q0 -77 41.5 -108.5t112.5 -31.5q19 0 42.5 3t35.5 12z" />
    <glyph glyph-name="uniFF55" unicode="&#xff55;" horiz-adv-x="900" 
d="M687 -19v528h-78v-250q0 -111 -43.5 -169.5t-126.5 -55.5q-61 2 -89 45.5t-28 149.5v280h-78v-314q0 -110 48 -168t150 -58q53 0 100.5 25.5t65.5 71.5h2v-85h77z" />
    <glyph glyph-name="uniFF56" unicode="&#xff56;" horiz-adv-x="900" 
d="M701 509h-80l-168 -452h-2l-167 452h-87l205 -528h97z" />
    <glyph glyph-name="uniFF57" unicode="&#xff57;" horiz-adv-x="900" 
d="M868 509h-77l-140 -458h-2l-144 458h-93l-149 -458h-2l-127 458h-88l169 -528h92l145 462h2l149 -462h92z" />
    <glyph glyph-name="uniFF58" unicode="&#xff58;" horiz-adv-x="900" 
d="M705 -19l-202 274l179 254h-90l-132 -199l-124 199h-101l180 -254l-205 -274h94l151 215l151 -215h99z" />
    <glyph glyph-name="uniFF59" unicode="&#xff59;" horiz-adv-x="900" 
d="M700 509h-79l-169 -417h-2l-164 417h-85l191 -453q3 -9 6 -16.5t5 -14.5q2 -6 3.5 -12t1.5 -11q1 2 -5.5 -19.5t-21.5 -47.5q-15 -27 -40 -49t-61 -22q-7 0 -24 6t-34 14l-5 -68q12 -7 32.5 -11.5t43.5 -4.5q45 0 76 20.5t54 51.5q22 32 38 70t31 73z" />
    <glyph glyph-name="uniFF5A" unicode="&#xff5a;" horiz-adv-x="900" 
d="M666 1v65h-311l297 379v64h-381v-65h282l-297 -375v-68h410z" />
    <glyph glyph-name="uniFF5B" unicode="&#xff5b;" horiz-adv-x="900" 
d="M866 -119v66h-56q-30 0 -40 26t-10 51v173q0 34 -10.5 57t-24.5 37q-14 13 -28 19t-21 8v2q7 1 21 8t28 21t24.5 36t10.5 55v174q0 25 10 51t40 26h56v66h-79q-15 0 -32 -8t-32 -24q-15 -15 -25 -38t-10 -52v-181q0 -45 -28.5 -74t-58.5 -29v-64q30 0 58.5 -29.5
t28.5 -77.5v-177q0 -30 10 -53t25 -38q15 -16 32.5 -23.5t31.5 -7.5h79z" />
    <glyph glyph-name="uniFF5C" unicode="&#xff5c;" horiz-adv-x="900" 
d="M492 -119v875h-82v-875h82z" />
    <glyph glyph-name="uniFF5D" unicode="&#xff5d;" horiz-adv-x="900" 
d="M298 287v64q-31 0 -59 29.5t-28 80.5v174q0 29 -10.5 52t-25.5 38q-15 16 -32.5 24t-30.5 8h-79v-66h56q30 0 40 -26t10 -51v-170q0 -37 10 -60.5t24 -37.5t28 -19.5t22 -6.5v-2q-8 -2 -22 -9.5t-28 -21.5t-24 -35t-10 -51v-177q0 -25 -10 -51t-40 -26h-56v-66h79
q13 0 30.5 7.5t32.5 23.5q15 15 25.5 38t10.5 53v184q0 43 28 71.5t59 28.5z" />
    <glyph glyph-name="uniFFE3" unicode="&#xffe3;" horiz-adv-x="900" 
d="M900 750v50h-900v-50h900z" />
    <glyph glyph-name="uniE16A" unicode="&#xe16a;" horiz-adv-x="900" 
 />
    <glyph glyph-name="uniE16B" unicode="&#xe16b;" horiz-adv-x="900" 
 />
    <glyph glyph-name="uniE16C" unicode="&#xe16c;" horiz-adv-x="900" 
 />
    <glyph glyph-name="uniE16D" unicode="&#xe16d;" horiz-adv-x="900" 
 />
    <glyph glyph-name="uniE16E" unicode="&#xe16e;" horiz-adv-x="900" 
 />
    <glyph glyph-name="uniE16F" unicode="&#xe16f;" horiz-adv-x="900" 
 />
    <glyph glyph-name="uniE170" unicode="&#xe170;" horiz-adv-x="900" 
 />
    <glyph glyph-name="uniE171" unicode="&#xe171;" horiz-adv-x="900" 
 />
    <glyph glyph-name="uniE172" unicode="&#xe172;" horiz-adv-x="900" 
 />
    <glyph glyph-name="uniE173" unicode="&#xe173;" horiz-adv-x="900" 
 />
    <glyph glyph-name="uniE174" unicode="&#xe174;" horiz-adv-x="900" 
 />
    <glyph glyph-name="uniE175" unicode="&#xe175;" horiz-adv-x="900" 
 />
    <glyph glyph-name="uniE176" unicode="&#xe176;" horiz-adv-x="900" 
 />
    <glyph glyph-name="uniE177" unicode="&#xe177;" horiz-adv-x="900" 
 />
    <glyph glyph-name="uniE178" unicode="&#xe178;" horiz-adv-x="900" 
 />
    <glyph glyph-name="uniE179" unicode="&#xe179;" horiz-adv-x="900" 
 />
    <glyph glyph-name="uniE17A" unicode="&#xe17a;" horiz-adv-x="900" 
 />
    <glyph glyph-name="uniE17B" unicode="&#xe17b;" horiz-adv-x="900" 
 />
    <glyph glyph-name="uniE17C" unicode="&#xe17c;" horiz-adv-x="900" 
 />
    <glyph glyph-name="uniE17D" unicode="&#xe17d;" horiz-adv-x="900" 
 />
    <glyph glyph-name="uniE17E" unicode="&#xe17e;" horiz-adv-x="900" 
 />
    <glyph glyph-name="uniE17F" unicode="&#xe17f;" horiz-adv-x="900" 
 />
    <glyph glyph-name="uniE180" unicode="&#xe180;" horiz-adv-x="900" 
 />
    <glyph glyph-name="uniE181" unicode="&#xe181;" horiz-adv-x="900" 
 />
    <glyph glyph-name="uniE182" unicode="&#xe182;" horiz-adv-x="900" 
 />
    <glyph glyph-name="uniE183" unicode="&#xe183;" horiz-adv-x="900" 
 />
    <glyph glyph-name="uniE184" unicode="&#xe184;" horiz-adv-x="900" 
 />
    <glyph glyph-name="uniE185" unicode="&#xe185;" horiz-adv-x="900" 
 />
    <glyph glyph-name="uniE186" unicode="&#xe186;" horiz-adv-x="900" 
 />
    <glyph glyph-name="uniE187" unicode="&#xe187;" horiz-adv-x="900" 
 />
    <glyph glyph-name="uniE188" unicode="&#xe188;" horiz-adv-x="900" 
 />
    <glyph glyph-name="uniE189" unicode="&#xe189;" horiz-adv-x="900" 
 />
    <glyph glyph-name="uniE18A" unicode="&#xe18a;" horiz-adv-x="900" 
 />
    <glyph glyph-name="uniE18B" unicode="&#xe18b;" horiz-adv-x="900" 
 />
    <glyph glyph-name="uniE18C" unicode="&#xe18c;" horiz-adv-x="900" 
 />
    <glyph glyph-name="uniE18D" unicode="&#xe18d;" horiz-adv-x="900" 
 />
    <glyph glyph-name="uniE18E" unicode="&#xe18e;" horiz-adv-x="900" 
 />
    <glyph glyph-name="uniE18F" unicode="&#xe18f;" horiz-adv-x="900" 
 />
    <glyph glyph-name="uniE190" unicode="&#xe190;" horiz-adv-x="900" 
 />
    <glyph glyph-name="uniE191" unicode="&#xe191;" horiz-adv-x="900" 
 />
    <glyph glyph-name="uniE192" unicode="&#xe192;" horiz-adv-x="900" 
 />
    <glyph glyph-name="uniE193" unicode="&#xe193;" horiz-adv-x="900" 
 />
    <glyph glyph-name="uniE194" unicode="&#xe194;" horiz-adv-x="900" 
 />
    <glyph glyph-name="uniE195" unicode="&#xe195;" horiz-adv-x="900" 
 />
    <glyph glyph-name="uniE196" unicode="&#xe196;" horiz-adv-x="900" 
 />
    <glyph glyph-name="uniE197" unicode="&#xe197;" horiz-adv-x="900" 
 />
    <glyph glyph-name="uniE198" unicode="&#xe198;" horiz-adv-x="900" 
 />
    <glyph glyph-name="uniE199" unicode="&#xe199;" horiz-adv-x="900" 
 />
    <glyph glyph-name="uniE19A" unicode="&#xe19a;" horiz-adv-x="900" 
 />
    <glyph glyph-name="uniE19B" unicode="&#xe19b;" horiz-adv-x="900" 
 />
    <glyph glyph-name="uniE19C" unicode="&#xe19c;" horiz-adv-x="900" 
 />
    <glyph glyph-name="uniE19D" unicode="&#xe19d;" horiz-adv-x="900" 
 />
    <glyph glyph-name="uniE19E" unicode="&#xe19e;" horiz-adv-x="900" 
 />
    <glyph glyph-name="uniE19F" unicode="&#xe19f;" horiz-adv-x="900" 
 />
    <glyph glyph-name="uniE1A0" unicode="&#xe1a0;" horiz-adv-x="900" 
 />
    <glyph glyph-name="uniE1A1" unicode="&#xe1a1;" horiz-adv-x="900" 
 />
    <glyph glyph-name="uniE1A2" unicode="&#xe1a2;" horiz-adv-x="900" 
 />
    <glyph glyph-name="uniE1A3" unicode="&#xe1a3;" horiz-adv-x="900" 
 />
    <glyph glyph-name="uniE1A4" unicode="&#xe1a4;" horiz-adv-x="900" 
 />
    <glyph glyph-name="uniE1A5" unicode="&#xe1a5;" horiz-adv-x="900" 
 />
    <glyph glyph-name="uniE1A6" unicode="&#xe1a6;" horiz-adv-x="900" 
 />
    <glyph glyph-name="uni227A" unicode="&#x227a;" horiz-adv-x="900" 
 />
    <glyph glyph-name="uni227B" unicode="&#x227b;" horiz-adv-x="900" 
 />
    <glyph glyph-name="uni22CE" unicode="&#x22ce;" horiz-adv-x="900" 
 />
    <glyph glyph-name="uni22CF" unicode="&#x22cf;" horiz-adv-x="900" 
 />
    <glyph glyph-name="uni2280" unicode="&#x2280;" horiz-adv-x="900" 
 />
    <glyph glyph-name="uni2281" unicode="&#x2281;" horiz-adv-x="900" 
 />
    <glyph glyph-name="uni2270" unicode="&#x2270;" horiz-adv-x="900" 
 />
    <glyph glyph-name="uni2271" unicode="&#x2271;" horiz-adv-x="900" 
 />
    <glyph glyph-name="uni2272" unicode="&#x2272;" horiz-adv-x="900" 
 />
    <glyph glyph-name="uni2273" unicode="&#x2273;" horiz-adv-x="900" 
 />
    <glyph glyph-name="uniE1A7" unicode="&#xe1a7;" horiz-adv-x="900" 
 />
    <glyph glyph-name="uni228A" unicode="&#x228a;" horiz-adv-x="900" 
 />
    <glyph glyph-name="uniE1A8" unicode="&#xe1a8;" horiz-adv-x="900" 
 />
    <glyph glyph-name="uni228B" unicode="&#x228b;" horiz-adv-x="900" 
 />
    <glyph glyph-name="uni2276" unicode="&#x2276;" horiz-adv-x="900" 
 />
    <glyph glyph-name="uni2277" unicode="&#x2277;" horiz-adv-x="900" 
 />
    <glyph glyph-name="uni2279" unicode="&#x2279;" horiz-adv-x="900" 
 />
    <glyph glyph-name="uni22DA" unicode="&#x22da;" horiz-adv-x="900" 
 />
    <glyph glyph-name="uni22DB" unicode="&#x22db;" horiz-adv-x="900" 
 />
    <glyph glyph-name="uniE1A9" unicode="&#xe1a9;" horiz-adv-x="900" 
 />
    <glyph glyph-name="uniE1AA" unicode="&#xe1aa;" horiz-adv-x="900" 
 />
    <glyph glyph-name="uniE1AB" unicode="&#xe1ab;" horiz-adv-x="900" 
 />
    <glyph glyph-name="uniE1AC" unicode="&#xe1ac;" horiz-adv-x="900" 
 />
    <glyph glyph-name="uniE1AD" unicode="&#xe1ad;" horiz-adv-x="900" 
 />
    <glyph glyph-name="congruent" unicode="&#x2245;" horiz-adv-x="900" 
 />
    <glyph glyph-name="uni2243" unicode="&#x2243;" horiz-adv-x="900" 
 />
    <glyph glyph-name="approxequal" unicode="&#x2248;" horiz-adv-x="900" 
 />
    <glyph glyph-name="uniE1AE" unicode="&#xe1ae;" horiz-adv-x="900" 
 />
    <glyph glyph-name="uni22A4" unicode="&#x22a4;" horiz-adv-x="900" 
 />
    <glyph glyph-name="uniE1AF" unicode="&#xe1af;" horiz-adv-x="900" 
 />
    <glyph glyph-name="uniE1B0" unicode="&#xe1b0;" horiz-adv-x="900" 
 />
    <glyph glyph-name="uniEEBA" unicode="&#xeeba;" horiz-adv-x="900" 
 />
    <glyph glyph-name="uni3131" unicode="&#x3131;" horiz-adv-x="900" 
d="M727 545h-556v-70h472q0 -52 -6 -107.5t-16 -110.5q-11 -56 -24.5 -108.5t-29.5 -97.5h84q35 104 54 220.5t22 273.5z" />
    <glyph glyph-name="uni3132" unicode="&#x3132;" horiz-adv-x="900" 
d="M265 75h80q15 50 28 102t23 109q10 58 16.5 124.5t8.5 146.5h-283v-70h203q-4 -114 -25.5 -221.5t-50.5 -190.5zM598 75h82q14 56 24 110t17 112q7 57 12 120.5t8 139.5h-289v-70h207q0 -108 -17 -215t-44 -197z" />
    <glyph glyph-name="uni3133" unicode="&#x3133;" horiz-adv-x="900" 
d="M428 90v450h-283v-71h205v-379h78zM448 133l66 -41q18 12 38 31t39 42q19 22 34 46t24 45q6 -21 21 -44.5t34 -46.5t38.5 -42.5t36.5 -30.5l60 47q-33 21 -61 51t-48 64q-21 35 -32.5 71.5t-11.5 72.5v153h-76v-153q0 -75 -45 -146t-117 -119z" />
    <glyph glyph-name="uni3134" unicode="&#x3134;" horiz-adv-x="900" 
d="M261 187v357h-80v-427h556v70h-476z" />
    <glyph glyph-name="uni3135" unicode="&#x3135;" horiz-adv-x="900" 
d="M561 469v-82q0 -47 -13 -87t-34 -72q-21 -33 -48.5 -58.5t-56.5 -44.5l68 -39q16 9 34 25t35 36q16 21 30.5 43.5t23.5 45.5q16 -45 49.5 -84.5t73.5 -65.5l62 47q-29 20 -55.5 45t-47.5 56q-21 32 -33 69.5t-12 83.5v82h123v71h-333v-71h134zM151 104h111q29 0 69 4.5
t66 9.5v70q-20 -6 -55.5 -10t-59.5 -4h-53v366h-78v-436z" />
    <glyph glyph-name="uni3136" unicode="&#x3136;" horiz-adv-x="900" 
d="M450 521h234v69h-234v-69zM146 104h111q32 0 66 4.5t59 9.5v68q-20 -5 -55.5 -8.5t-59.5 -3.5h-43v373h-78v-443zM360 405h410v68h-410v-68zM483 223q0 33 25.5 62.5t62.5 29.5q36 0 62 -29.5t26 -62.5t-26 -58.5t-62 -25.5q-37 0 -62.5 25.5t-25.5 58.5zM735 223
q-1 31 -14 58t-35 47t-52 31.5t-63 11.5q-34 0 -64 -11.5t-53 -31.5q-22 -21 -35 -48t-12 -58q0 -30 12.5 -57t35.5 -47q22 -20 52 -31.5t64 -11.5q33 0 63 11.5t52 32.5q23 20 36 47t13 57z" />
    <glyph glyph-name="uni3137" unicode="&#x3137;" horiz-adv-x="900" 
d="M181 111h544v71h-464v286h456v70h-536v-427z" />
    <glyph glyph-name="uni3138" unicode="&#x3138;" horiz-adv-x="900" 
d="M756 104v70h-226v300h218v70h-296v-370h-209v300h170v70h-250v-440h593z" />
    <glyph glyph-name="uni3139" unicode="&#x3139;" horiz-adv-x="900" 
d="M185 82h548v70h-468v135h452v272h-536v-70h456v-132h-452v-275z" />
    <glyph glyph-name="uni313A" unicode="&#x313a;" horiz-adv-x="900" 
d="M737 87v468h-250v-68h170v-400h80zM366 487v-130h-201v-266h154q45 0 99.5 4t89.5 10v66q-30 -6 -75 -9t-82 -3h-110v134h199v262h-277v-68h203z" />
    <glyph glyph-name="uni313B" unicode="&#x313b;" horiz-adv-x="900" 
d="M739 85v474h-270v-474h270zM661 151h-117v340h117v-340zM349 491v-132h-186v-274h115q44 0 84 2.5t68 7.5v66q-21 -3 -57 -5.5t-63 -2.5h-71v144h184v262h-262v-68h188z" />
    <glyph glyph-name="uni313C" unicode="&#x313c;" horiz-adv-x="900" 
d="M666 160h-120v165h120v-165zM744 94v464h-78v-165h-120v165h-77v-464h275zM346 490v-130h-195v-266h127q43 0 83.5 2.5t68.5 7.5v66q-21 -3 -57.5 -5.5t-63.5 -2.5h-82v136h195v260h-273v-68h197z" />
    <glyph glyph-name="uni313D" unicode="&#x313d;" horiz-adv-x="900" 
d="M494 171q-30 -6 -70 -9.5t-73 -3.5h-106v139h195v259h-273v-68h199v-129h-197v-269h150q33 0 72.5 2t72.5 6l31 -20q18 12 37.5 31t36.5 42q18 22 32 45.5t23 45.5q6 -21 20 -45t31 -46q17 -23 35.5 -42.5t35.5 -30.5l61 47q-33 20 -60 49.5t-47 64.5q-19 35 -30 72.5
t-11 74.5v192h-76v-192q0 -60 -23 -115t-66 -100z" />
    <glyph glyph-name="uni313E" unicode="&#x313e;" horiz-adv-x="900" 
d="M487 94h273v66h-197v134h189v68h-189v124h189v69h-265v-461zM366 486v-128h-207v-264h137q43 0 83.5 2.5t68.5 7.5v66q-21 -3 -57.5 -5.5t-63.5 -2.5h-92v134h205v259h-283v-69h209z" />
    <glyph glyph-name="uni313F" unicode="&#x313f;" horiz-adv-x="900" 
d="M715 485h39v68h-298v-68h41l4 -325h-45v-66h318v66h-62zM645 485l-4 -325h-70l-4 325h78zM335 489v-138h-184v-257h133q44 0 78.5 2.5t62.5 7.5v66q-21 -3 -50 -5.5t-56 -2.5h-92v126h182v265h-260v-64h186z" />
    <glyph glyph-name="uni3140" unicode="&#x3140;" horiz-adv-x="900" 
d="M331 490v-134h-177v-272h124q44 0 84 2.5t68 7.5v66q-21 -3 -57 -5.5t-63 -2.5h-80v142h173v264h-251v-68h179zM490 521h214v69h-214v-69zM430 405h350v68h-350v-68zM517 223q0 33 23.5 62.5t60.5 29.5q36 0 60 -29.5t24 -62.5t-24 -58.5t-60 -25.5q-37 0 -60.5 25.5
t-23.5 58.5zM761 223q-1 31 -13.5 58t-33.5 47q-22 20 -51 31.5t-62 11.5q-34 0 -63.5 -11.5t-51.5 -31.5q-21 -21 -33.5 -48t-11.5 -58q0 -30 12 -57t34 -47q21 -20 50.5 -31.5t63.5 -11.5q33 0 62.5 11.5t50.5 32.5q22 20 34.5 47t12.5 57z" />
    <glyph glyph-name="uni3141" unicode="&#x3141;" horiz-adv-x="900" 
d="M717 540h-532v-434h532v434zM637 176h-372v294h372v-294z" />
    <glyph glyph-name="uni3142" unicode="&#x3142;" horiz-adv-x="900" 
d="M637 157h-372v163h372v-163zM637 391h-372v165h-80v-470h532v470h-80v-165z" />
    <glyph glyph-name="uni3143" unicode="&#x3143;" horiz-adv-x="900" 
d="M744 89v465h-78v-163h-169v163h-82v-163h-176v163h-78v-465h583zM666 159h-169v162h169v-162zM415 159h-176v162h176v-162z" />
    <glyph glyph-name="uni3144" unicode="&#x3144;" horiz-adv-x="900" 
d="M397 157h-150v178h150v-178zM473 89v471h-76v-157h-150v157h-78v-471h304zM478 119l66 -41q18 12 37 30.5t36 40.5q17 21 31 44t23 45q6 -21 20 -44.5t32 -44.5q17 -22 36 -41t36 -30l61 47q-33 20 -60 49.5t-47 64.5q-19 35 -30 72.5t-11 74.5v174h-76v-174
q0 -79 -41 -149t-113 -118z" />
    <glyph glyph-name="uni3145" unicode="&#x3145;" horiz-adv-x="900" 
d="M493 560h-82v-101q0 -47 -24.5 -95.5t-65.5 -92.5t-95.5 -79.5t-114.5 -54.5l54 -56q102 39 179.5 105.5t107.5 139.5q14 -36 41.5 -71.5t64.5 -67.5q38 -32 83.5 -59.5t97.5 -46.5l54 56q-61 19 -115.5 54.5t-95.5 79.5t-65 92.5t-24 95.5v101z" />
    <glyph glyph-name="uni3146" unicode="&#x3146;" horiz-adv-x="900" 
d="M306 272q20 -49 59.5 -105t84.5 -92q46 36 85.5 92t60.5 105q23 -48 65.5 -102t86.5 -89l61 45q-75 60 -122.5 137t-47.5 173v122h-78v-122q0 -32 -10 -69.5t-25 -74.5q-16 -36 -36 -67.5t-40 -50.5q-19 19 -38.5 50.5t-34.5 67.5q-16 37 -26 74.5t-10 69.5v122h-76v-122
q0 -96 -49.5 -173t-124.5 -137l61 -45q21 17 43.5 40.5t43.5 48.5q21 26 38 52t29 50z" />
    <glyph glyph-name="uni3147" unicode="&#x3147;" horiz-adv-x="900" 
d="M193 321q0 -49 20 -92t55 -76q35 -32 82.5 -51t101.5 -19t101 19t82 51q35 33 55.5 76t20.5 92q0 48 -20.5 91t-55.5 75t-82 51.5t-101 19.5t-101.5 -19.5t-82.5 -51.5t-55 -75t-20 -91zM624 321q0 -34 -14 -64.5t-37 -53.5q-24 -23 -55 -36.5t-66 -13.5q-36 0 -67 13.5
t-55 36.5q-23 23 -36.5 53.5t-13.5 64.5q0 31 13.5 60.5t36.5 52.5q24 23 55 37.5t67 14.5q35 0 66 -14.5t55 -37.5q23 -23 37 -52.5t14 -60.5z" />
    <glyph glyph-name="uni3148" unicode="&#x3148;" horiz-adv-x="900" 
d="M493 482h236v71h-560v-71h242v-52q0 -45 -24.5 -92.5t-65.5 -89.5q-41 -43 -95.5 -77.5t-114.5 -52.5l54 -55q51 19 96.5 46t83.5 58q37 32 64.5 66.5t42.5 69.5q14 -34 41.5 -68.5t64.5 -66.5q38 -32 83.5 -59t97.5 -46l54 55q-61 18 -115.5 52.5t-95.5 77.5
q-41 42 -65 89.5t-24 92.5v52z" />
    <glyph glyph-name="uni3149" unicode="&#x3149;" horiz-adv-x="900" 
d="M271 488v-54q0 -96 -49 -173t-121 -137l60 -45q21 17 43 40.5t42 48.5q20 26 37 52t29 50q20 -48 58.5 -103.5t81.5 -91.5q45 36 84 91.5t58 103.5q23 -48 64.5 -102t85.5 -89l59 45q-74 60 -120 137t-46 173v54h121v70h-614v-70h127zM347 488h214v-54q0 -32 -10 -69.5
t-25 -74.5q-16 -36 -35.5 -67.5t-38.5 -50.5q-19 19 -37.5 50.5t-33.5 67.5q-15 37 -24.5 74.5t-9.5 69.5v54z" />
    <glyph glyph-name="uni314A" unicode="&#x314a;" horiz-adv-x="900" 
d="M491 368h234v70h-552v-70h240v-14q0 -36 -25 -73.5t-66 -70.5q-42 -34 -95 -60t-109 -38l53 -60q43 12 86.5 33.5t81.5 47.5q38 27 67.5 56.5t45.5 59.5q13 -28 42.5 -57.5t68.5 -56.5q38 -27 82 -49t88 -34l52 60q-57 12 -110 38t-94 60q-41 33 -65.5 70.5t-24.5 73.5
v14zM286 520h328v66h-328v-66z" />
    <glyph glyph-name="uni314B" unicode="&#x314b;" horiz-adv-x="900" 
d="M630 268q-7 -51 -17.5 -101.5t-24.5 -103.5h82q30 119 43.5 243.5t15.5 246.5h-558v-71h476q-1 -39 -3.5 -75t-5.5 -70q-56 -6 -117.5 -10t-124.5 -6t-124 -2.5t-115 -0.5v-70q114 0 236.5 3.5t236.5 16.5z" />
    <glyph glyph-name="uni314C" unicode="&#x314c;" horiz-adv-x="900" 
d="M265 157v130h448v71h-448v126h452v70h-532v-467h540v70h-460z" />
    <glyph glyph-name="uni314D" unicode="&#x314d;" horiz-adv-x="900" 
d="M345 170l-8 269h-78l8 -269h-125v-70h618v70h-121l8 269h-78l-8 -269h-216zM173 478h556v70h-556v-70z" />
    <glyph glyph-name="uni314E" unicode="&#x314e;" horiz-adv-x="900" 
d="M152 415h598v70h-598v-70zM292 547h318v69h-318v-69zM232 193q0 -39 17 -73.5t47 -60.5t70 -41t86 -15q45 0 85 15t70 41t47.5 60.5t17.5 73.5q0 37 -17.5 71t-47.5 59t-70 40t-85 15q-46 0 -86 -15t-70 -40t-47 -59t-17 -71zM586 193q0 -25 -10.5 -47t-28.5 -39
t-42.5 -27t-52.5 -10q-29 0 -53.5 10t-42.5 27q-19 17 -29 39t-10 47q0 23 10 44.5t29 37.5q18 17 42.5 27t53.5 10q28 0 52.5 -10t42.5 -27q18 -16 28.5 -37.5t10.5 -44.5z" />
    <glyph glyph-name="uni314F" unicode="&#x314f;" horiz-adv-x="900" 
d="M471 399v350h-78v-881h78v455h170v76h-170z" />
    <glyph glyph-name="uni3150" unicode="&#x3150;" horiz-adv-x="900" 
d="M395 424v312h-76v-839h76v454h125v-483h76v881h-76v-325h-125z" />
    <glyph glyph-name="uni3151" unicode="&#x3151;" horiz-adv-x="900" 
d="M451 182h144v71h-144v216h144v70h-144v210h-78v-881h78v314z" />
    <glyph glyph-name="uni3152" unicode="&#x3152;" horiz-adv-x="900" 
d="M395 552v184h-76v-839h76v328h125v-357h76v881h-76v-197h-125zM395 482h125v-187h-125v187z" />
    <glyph glyph-name="uni3153" unicode="&#x3153;" horiz-adv-x="900" 
d="M456 363v-495h78v881h-78v-314h-191v-72h191z" />
    <glyph glyph-name="uni3154" unicode="&#x3154;" horiz-adv-x="900" 
d="M418 361v-464h76v839h-76v-301h-129v-74h129zM662 749h-76v-881h76v881z" />
    <glyph glyph-name="uni3155" unicode="&#x3155;" horiz-adv-x="900" 
d="M466 236v-368h78v881h-78v-197h-182v-70h182v-175h-181v-71h181z" />
    <glyph glyph-name="uni3156" unicode="&#x3156;" horiz-adv-x="900" 
d="M422 453v-205h-147v-68h147v-283h76v839h-76v-215h-147v-68h147zM662 749h-76v-881h76v881z" />
    <glyph glyph-name="uni3157" unicode="&#x3157;" horiz-adv-x="900" 
d="M415 177h-376v-70h817v70h-355v281h-86v-281z" />
    <glyph glyph-name="uni3158" unicode="&#x3158;" horiz-adv-x="900" 
d="M372 126v212h-82v-215h-232v-70h103q53 0 114 1.5t121 4.5q61 3 117.5 7.5t102.5 11.5v71q-42 -9 -108.5 -14.5t-135.5 -8.5zM741 388v361h-78v-881h78v448h124v72h-124z" />
    <glyph glyph-name="uni3159" unicode="&#x3159;" horiz-adv-x="900" 
d="M610 400v336h-76v-839h76v431h93v-460h77v881h-77v-349h-93zM249 119h-179v-70h78q42 0 89.5 1.5t93.5 4.5q47 3 89 7.5t75 11.5v71q-35 -9 -79 -14.5t-89 -8.5v227h-78v-230z" />
    <glyph glyph-name="uni315A" unicode="&#x315a;" horiz-adv-x="900" 
d="M384 126v212h-82v-215h-228v-70h103q53 0 114.5 1.5t123.5 4.5t120 7.5t104 11.5v71q-43 -9 -113 -14.5t-142 -8.5zM764 749h-78v-881h78v881z" />
    <glyph glyph-name="uni315B" unicode="&#x315b;" horiz-adv-x="900" 
d="M265 189h-226v-70h817v70h-221v269h-78v-269h-214v269h-78v-269z" />
    <glyph glyph-name="uni315C" unicode="&#x315c;" horiz-adv-x="900" 
d="M499 364h357v70h-817v-70h378v-384h82v384z" />
    <glyph glyph-name="uni315D" unicode="&#x315d;" horiz-adv-x="900" 
d="M686 69v-201h78v881h-78v-610h-203v-70h203zM364 253q78 4 148 12t127 18v70q-34 -8 -83.5 -14t-102.5 -10q-52 -5 -102.5 -7t-85.5 -2h-191v-70h210v-363h80v366z" />
    <glyph glyph-name="uni315E" unicode="&#x315e;" horiz-adv-x="900" 
d="M546 96v-199h78v839h-78v-572h-168v-68h168zM317 265q57 3 106 8t84 14v68q-29 -7 -65.5 -11.5t-73.5 -6.5q-38 -3 -73 -4t-60 -1h-169v-70h86h44.5t44.5 1v-358h76v360zM776 749h-78v-881h78v881z" />
    <glyph glyph-name="uni315F" unicode="&#x315f;" horiz-adv-x="900" 
d="M386 241q66 3 131.5 9.5t121.5 15.5v70q-35 -7 -81.5 -12.5t-97.5 -9.5q-50 -3 -100.5 -5t-92.5 -2h-193v-71h142h43.5t46.5 1v-350h80v354zM764 -132v881h-78v-881h78z" />
    <glyph glyph-name="uni3160" unicode="&#x3160;" horiz-adv-x="900" 
d="M347 368h224v-394h80v394h205v70h-817v-70h228v-386h80v386z" />
    <glyph glyph-name="uni3161" unicode="&#x3161;" horiz-adv-x="900" 
d="M856 272v71h-817v-71h817z" />
    <glyph glyph-name="uni3162" unicode="&#x3162;" horiz-adv-x="900" 
d="M764 -132v881h-78v-881h78zM74 65h132q95 0 210.5 6.5t222.5 22.5v70q-35 -6 -84 -11.5t-101 -9.5q-53 -4 -102.5 -6t-84.5 -2h-193v-70z" />
    <glyph glyph-name="uni3163" unicode="&#x3163;" horiz-adv-x="900" 
d="M494 -132v881h-78v-881h78z" />
    <glyph glyph-name="uniE1B1" unicode="&#xe1b1;" horiz-adv-x="900" 
d="M466 340v27h-24v-27h24z" />
    <glyph glyph-name="uni3165" unicode="&#x3165;" horiz-adv-x="900" 
d="M758 64v66h-211v406h-76v-472h287zM442 64v66h-212v406h-75v-472h287z" />
    <glyph glyph-name="uni3166" unicode="&#x3166;" horiz-adv-x="900" 
d="M758 64v66h-211v340h211v66h-287v-472h287zM442 64v66h-212v406h-75v-472h287z" />
    <glyph glyph-name="uni3167" unicode="&#x3167;" horiz-adv-x="900" 
d="M421 60v60h-204v420h-73v-480h277zM833 83q-27 12 -65 51t-61 85q-15 30 -26.5 90t-11.5 120v111h-70v-111q0 -60 -11.5 -120t-26.5 -91q-25 -44 -61.5 -83.5t-64.5 -51.5l49 -44q13 5 42.5 28.5t49.5 50.5q17 20 35 52t23 56q3 -24 20.5 -56t35.5 -52q21 -27 49 -50.5
t43 -28.5z" />
    <glyph glyph-name="uni3168" unicode="&#x3168;" horiz-adv-x="900" 
d="M789 65l-173 509l-171 -509h344zM434 65v66h-202v405h-76v-471h278zM696 130h-160l81 239z" />
    <glyph glyph-name="uni3169" unicode="&#x3169;" horiz-adv-x="900" 
d="M872 101q-33 13 -65 46t-50 72q-8 15 -13.5 39.5t-9.5 53.5q-3 29 -5 60t-2 60v104h-65v-104q0 -29 -2.5 -60t-6.5 -60t-9.5 -53.5t-11.5 -39.5q-17 -36 -43.5 -66t-56.5 -45v428h-232v-67h164v-405h68v20l30 -31q17 6 40 23.5t42 38.5q13 15 27.5 39t22.5 45
q6 -21 21 -44.5t30 -39.5q18 -21 40 -37.5t41 -23.5zM281 64v66h-157v136h157v270h-224v-67h150v-137h-150v-268h224z" />
    <glyph glyph-name="uni316A" unicode="&#x316a;" horiz-adv-x="900" 
d="M758 64v66h-213v340h213v66h-287v-472h287zM442 64v66h-212v136h212v270h-288v-66h211v-138h-211v-268h288z" />
    <glyph glyph-name="uni316B" unicode="&#x316b;" horiz-adv-x="900" 
d="M878 101q-33 13 -65 46t-50 72q-8 15 -13.5 39.5t-8.5 53.5q-4 29 -5.5 60t-1.5 60v104h-67v-104q0 -29 -2.5 -60t-5.5 -60q-4 -29 -9.5 -53.5t-12.5 -39.5q-13 -30 -34.5 -56.5t-46.5 -43.5v417h-65v-168h-101v168h-65v-472h227v6q0 -1 2.5 -3.5t4.5 -5.5q3 -3 5 -5.5
t3 -2.5q18 6 41.5 23.5t41.5 38.5q12 15 27 39t23 45q6 -21 21.5 -44.5t30.5 -39.5q18 -21 39.5 -37.5t41.5 -23.5zM296 64v66h-156v136h156v270h-223v-67h156v-137h-156v-268h223zM491 130h-101v172h101v-172z" />
    <glyph glyph-name="uni316C" unicode="&#x316c;" horiz-adv-x="900" 
d="M798 65l-172 509l-172 -509h344zM444 65v66h-214v135h214v270h-289v-66h211v-137h-211v-268h289zM706 130h-161l81 239z" />
    <glyph glyph-name="uni316D" unicode="&#x316d;" horiz-adv-x="900" 
d="M781 469v67h-318v-67h318zM624 352q-33 0 -61.5 -12.5t-49.5 -33.5q-22 -21 -34 -49t-12 -59q0 -32 12 -60t34 -49q21 -21 49.5 -33t61.5 -12q31 0 59.5 12t49.5 33t33.5 49t12.5 60q0 31 -12.5 59t-33.5 49t-49.5 33.5t-59.5 12.5zM443 64v66h-213v135h213v271h-289v-67
h212v-137h-212v-268h289zM624 109q-37 0 -62.5 26.5t-25.5 62.5t25.5 63t62.5 27q36 0 61 -27t25 -63t-25 -62.5t-61 -26.5z" />
    <glyph glyph-name="uni316E" unicode="&#x316e;" horiz-adv-x="900" 
d="M758 64v472h-76v-166h-135v166h-76v-472h287zM442 64v472h-287v-472h287zM682 130h-135v173h135v-173zM365 130h-135v340h135v-340z" />
    <glyph glyph-name="uni316F" unicode="&#x316f;" horiz-adv-x="900" 
d="M439 60v480h-299v-480h299zM867 83q-30 12 -68.5 51t-62.5 85q-16 30 -27.5 90t-11.5 120v111h-74v-111q0 -60 -11.5 -120t-29.5 -91q-12 -22 -28 -43.5t-34 -40.5q-18 -18 -35.5 -31.5t-31.5 -19.5l52 -44q13 5 43.5 28.5t51.5 50.5q17 20 36 52t24 56q3 -24 22 -56
t36 -52q24 -27 53 -50.5t44 -28.5zM365 120h-150v360h150v-360z" />
    <glyph glyph-name="uni3170" unicode="&#x3170;" horiz-adv-x="900" 
d="M797 65l-173 509l-172 -509h345zM436 65v471h-287v-471h287zM703 130h-160l81 242zM360 131h-135v339h135v-339z" />
    <glyph glyph-name="uni3171" unicode="&#x3171;" horiz-adv-x="900" 
d="M684 318v353h-455v-353h455zM456 297q-51 0 -94 -14.5t-75 -39.5q-31 -26 -48.5 -60.5t-17.5 -75.5q0 -42 17.5 -77t48.5 -61q32 -25 75 -39t94 -14q50 0 93 14t75 39q31 26 49 61t18 77q0 41 -18 75.5t-49 60.5q-31 25 -74 39.5t-94 14.5zM609 385h-307v220h307v-220z
M456 -17q-69 0 -116 35t-47 89q0 52 46 87.5t117 35.5q72 0 117.5 -35t45.5 -88q0 -55 -45.5 -89.5t-117.5 -34.5z" />
    <glyph glyph-name="uni3172" unicode="&#x3172;" horiz-adv-x="900" 
d="M778 61v475h-306v-66h229v-409h77zM443 64v472h-78v-169h-133v169h-77v-472h288zM365 130h-133v171h133v-171z" />
    <glyph glyph-name="uni3173" unicode="&#x3173;" horiz-adv-x="900" 
d="M758 64v66h-213v340h213v66h-287v-472h287zM442 64v472h-77v-169h-135v169h-75v-472h287zM365 130h-135v171h135v-171z" />
    <glyph glyph-name="uni3174" unicode="&#x3174;" horiz-adv-x="900" 
d="M815 64v472h-233v-67h164v-405h69zM662 100q-36 15 -67 48.5t-49 71.5q-8 15 -13 39.5t-9 53.5q-4 28 -5.5 59t-1.5 60v104h-66v-104q0 -29 -2.5 -60t-6.5 -59q-4 -29 -10 -53.5t-12 -39.5q-15 -35 -41 -65t-56 -46v427h-67v-168h-102v168h-66v-472h235v18l28 -29
q17 6 40.5 23.5t41.5 39.5q13 15 27.5 39t21.5 45q7 -21 22.5 -45t30.5 -39q17 -21 39 -38.5t41 -24.5zM256 130h-102v172h102v-172z" />
    <glyph glyph-name="uni3175" unicode="&#x3175;" horiz-adv-x="900" 
d="M819 64v66h-130v339h130v67h-203v-418q-26 17 -48 44.5t-35 57.5q-8 15 -14 39.5t-10 52.5q-4 29 -5.5 60t-1.5 60v104h-66v-104q0 -29 -2.5 -60t-5.5 -60q-4 -28 -9.5 -52.5t-12.5 -39.5q-14 -30 -35.5 -57t-45.5 -44v417h-67v-168h-101v168h-66v-472h226l3 1v2t1 2
l3.5 -3.5t4.5 -5.5l5 -5t3 -2q18 6 40.5 23.5t41.5 39.5q13 15 28 39t22 45q6 -21 20.5 -44.5t29.5 -39.5q12 -15 27 -26.5t28 -19.5q2 -2 5.5 -5t7.5 -6l10 -6t10 -4l18 15h194zM258 130h-101v172h101v-172z" />
    <glyph glyph-name="uni3176" unicode="&#x3176;" horiz-adv-x="900" 
d="M800 98q-34 16 -70 52t-54 79q-14 30 -23 85.5t-9 113.5v41h112v67h-292v-67h103v-41q0 -57 -9.5 -113t-22.5 -86q-15 -32 -42 -60t-50 -46v413h-77v-169h-134v169h-77v-472h280l2 3l18 -17q9 3 22 11t27 18q14 11 27.5 23t22.5 23q12 16 28 42.5t24 49.5q6 -22 21 -48.5
t28 -42.5q18 -21 46 -45.5t49 -30.5zM366 130h-134v171h134v-171z" />
    <glyph glyph-name="uni3177" unicode="&#x3177;" horiz-adv-x="900" 
d="M758 64v66h-211v137h205v66h-205v137h211v66h-287v-472h287zM442 64v472h-77v-169h-135v169h-75v-472h287zM365 130h-135v171h135v-171z" />
    <glyph glyph-name="uni3178" unicode="&#x3178;" horiz-adv-x="900" 
d="M684 318v353h-74v-111h-308v111h-73v-353h455zM456 296q-50 0 -93 -14.5t-74 -39.5t-48.5 -59.5t-17.5 -75.5q0 -42 17.5 -76.5t48.5 -60.5q31 -25 74 -39t93 -14t93 14t74 39q31 26 49 60.5t18 76.5q0 41 -17.5 75.5t-48.5 59.5q-32 25 -74.5 39.5t-93.5 14.5zM610 384
h-308v110h308v-110zM456 -17q-69 0 -116 35t-47 89q0 51 46 87t117 36t116.5 -35.5t45.5 -87.5q0 -55 -45.5 -89.5t-116.5 -34.5z" />
    <glyph glyph-name="uni3179" unicode="&#x3179;" horiz-adv-x="900" 
d="M702 318v353h-65v-114h-102v114h-64v-353h231zM442 318v353h-66v-114h-102v114h-64v-353h232zM456 296q-50 0 -93 -14.5t-74 -39.5t-48.5 -59.5t-17.5 -75.5q0 -42 17.5 -76.5t48.5 -60.5q31 -25 74 -39t93 -14t93 14t74 39q31 26 49 60.5t18 76.5q0 41 -17.5 75.5
t-48.5 59.5q-32 25 -74.5 39.5t-93.5 14.5zM639 382h-103v112h103v-112zM379 382h-104v112h104v-112zM456 -17q-69 0 -116 35t-47 89q0 51 46 87t117 36t116.5 -35.5t45.5 -87.5q0 -55 -45.5 -89.5t-116.5 -34.5z" />
    <glyph glyph-name="uni317A" unicode="&#x317a;" horiz-adv-x="900" 
d="M757 61v475h-305v-67h228v-408h77zM520 96q-33 15 -69 51t-59 82q-14 30 -25.5 87t-11.5 115v105h-79v-105q0 -57 -11.5 -114.5t-25.5 -87.5q-23 -45 -58.5 -82.5t-68.5 -49.5l55 -47q15 5 43.5 27t50.5 49q13 16 30 44t25 53q7 -25 23.5 -53t31.5 -44q23 -27 50 -49
t44 -27z" />
    <glyph glyph-name="uni317B" unicode="&#x317b;" horiz-adv-x="900" 
d="M766 64v66h-211v406h-76v-428q-27 16 -56.5 48.5t-48.5 72.5q-15 30 -26.5 87t-11.5 115v105h-79v-105q0 -57 -11.5 -114.5t-25.5 -87.5q-23 -45 -58.5 -82.5t-68.5 -49.5l55 -47q14 5 42.5 27t51.5 49q13 16 30 44t25 53q7 -25 23.5 -53t31.5 -44q23 -27 50 -49t44 -27
l33 27v-13h287z" />
    <glyph glyph-name="uni317C" unicode="&#x317c;" horiz-adv-x="900" 
d="M766 64v66h-214v339h214v67h-287v-428q-27 16 -56.5 48.5t-48.5 72.5q-15 30 -26.5 87t-11.5 115v105h-79v-105q0 -57 -11.5 -114.5t-25.5 -87.5q-23 -45 -58.5 -82.5t-68.5 -49.5l55 -47q14 5 42.5 27t51.5 49q13 16 30 44t25 53q7 -25 23.5 -53t31.5 -44q23 -27 50 -49
t44 -27l33 27v-13h287z" />
    <glyph glyph-name="uni317D" unicode="&#x317d;" horiz-adv-x="900" 
d="M766 64v472h-75v-160h-137v160h-75v-428q-27 16 -56.5 48.5t-48.5 72.5q-15 30 -26.5 87t-11.5 115v105h-79v-105q0 -57 -11.5 -114.5t-25.5 -87.5q-23 -45 -58.5 -82.5t-68.5 -49.5l55 -47q14 5 42.5 27t51.5 49q13 16 30 44t25 53q7 -25 23.5 -53t31.5 -44
q23 -27 50 -49t44 -27l33 27v-13h287zM691 130h-137v180h137v-180z" />
    <glyph glyph-name="uni317E" unicode="&#x317e;" horiz-adv-x="900" 
d="M809 99q-33 14 -68 49t-58 82q-15 30 -27 86.5t-12 114.5v38h125v67h-324v-67h122v-38q0 -57 -12 -114t-27 -87q-14 -28 -32.5 -53t-38.5 -41q-21 16 -40 40t-32 53q-14 30 -26 87t-12 115v105h-77v-105q0 -57 -11.5 -114.5t-26.5 -87.5q-23 -45 -58.5 -82.5t-68.5 -49.5
l55 -47q15 5 44 27t50 49q13 16 30 44t25 53q8 -25 24 -53t31 -44q24 -27 50.5 -48.5t42.5 -27.5q16 6 43.5 27t50.5 48q13 16 30 44.5t26 52.5q7 -24 23.5 -52.5t31.5 -44.5q24 -27 50.5 -48.5t42.5 -26.5z" />
    <glyph glyph-name="uni317F" unicode="&#x317f;" horiz-adv-x="900" 
d="M689 70l-233 541l-231 -541h464zM585 136h-259l130 312z" />
    <glyph glyph-name="uni3180" unicode="&#x3180;" horiz-adv-x="900" 
d="M471 299q0 -121 47.5 -187t120.5 -66q74 0 121.5 66t47.5 187q0 122 -47.5 187.5t-121.5 65.5q-73 0 -120.5 -65.5t-47.5 -187.5zM105 299q0 -121 47.5 -187t120.5 -66q74 0 121.5 66t47.5 187q0 122 -47.5 187.5t-121.5 65.5q-73 0 -120.5 -65.5t-47.5 -187.5zM639 110
q-48 0 -75 51.5t-27 138.5q0 85 27 136.5t75 51.5q46 0 73 -51.5t27 -136.5q0 -87 -27 -138.5t-73 -51.5zM274 110q-48 0 -75 51.5t-27 138.5q0 85 27 136.5t75 51.5q46 0 73 -51.5t27 -136.5q0 -87 -27 -138.5t-73 -51.5z" />
    <glyph glyph-name="uni3181" unicode="&#x3181;" horiz-adv-x="900" 
d="M496 499v166h-78v-166q-51 -7 -94 -30.5t-74 -59.5q-31 -37 -48 -84.5t-17 -102.5q0 -61 20.5 -112t56.5 -88q36 -38 85.5 -58.5t108.5 -20.5t108.5 20.5t85.5 57.5t56 88.5t20 112.5q0 55 -17 103t-47 84q-30 37 -72.5 60t-93.5 30zM456 14q-42 0 -78 15.5t-62 43.5
q-27 28 -41.5 66t-14.5 83q0 43 14.5 81t41.5 66q26 28 62 44.5t78 16.5q43 0 79 -16t62 -44t41 -66t15 -82q0 -45 -15 -83.5t-41 -65.5q-26 -28 -62.5 -43.5t-78.5 -15.5z" />
    <glyph glyph-name="uni3182" unicode="&#x3182;" horiz-adv-x="900" 
d="M830 99q-33 15 -69.5 51.5t-59.5 83.5q-15 29 -26 85.5t-11 114.5v104h-76v-104q0 -57 -11 -114t-26 -87q-24 -45 -59 -82.5t-69 -50.5l53 -49q15 6 44.5 28t51.5 49q12 15 29 43t25 53q8 -25 24 -52t30 -42q24 -28 51 -50.5t44 -28.5zM332 443v111h-75v-109
q-61 -12 -98 -62t-37 -134q0 -96 48 -145t122 -49q73 0 121.5 49t48.5 145q0 82 -36.5 132t-93.5 62zM292 117q-43 0 -70.5 33.5t-27.5 98.5t27.5 100t70.5 35t70 -35t27 -100t-27 -98.5t-70 -33.5z" />
    <glyph glyph-name="uni3183" unicode="&#x3183;" horiz-adv-x="900" 
d="M788 64l-173 510l-172 -510h345zM329 444v110h-73v-109q-60 -12 -97.5 -62t-37.5 -134q0 -96 48 -145t122 -49q73 0 121.5 49t48.5 145q0 82 -36.5 132t-95.5 63zM694 129h-159l80 242zM291 118q-44 0 -70.5 33.5t-26.5 97.5q0 65 26.5 100.5t70.5 35.5q42 0 69 -35.5
t27 -100.5q0 -64 -27 -97.5t-69 -33.5z" />
    <glyph glyph-name="uni3184" unicode="&#x3184;" horiz-adv-x="900" 
d="M693 315v66h-86v224h86v66h-473v-66h86v-224h-86v-66h473zM456 298q-51 0 -94 -14.5t-75 -39.5q-31 -26 -48.5 -61t-17.5 -76q0 -42 17.5 -77.5t48.5 -60.5q32 -26 75 -40t94 -14t94 14t75 40q31 25 49 60.5t18 77.5q0 41 -18 76t-49 61q-32 25 -75 39.5t-94 14.5z
M533 381h-152v224h152v-224zM456 -20q-70 0 -117 36t-47 91q0 53 46 89.5t118 36.5t118.5 -36t46.5 -90q0 -56 -46.5 -91.5t-118.5 -35.5z" />
    <glyph glyph-name="uni3185" unicode="&#x3185;" horiz-adv-x="900" 
d="M753 370v66h-288v-66h288zM609 331q-30 0 -55.5 -12.5t-44.5 -33.5q-18 -21 -28.5 -49t-10.5 -59q0 -32 10.5 -60t28.5 -49q19 -21 44.5 -33t55.5 -12t55.5 12t45.5 33q19 21 30 49t11 60q0 31 -11 59t-30 49q-20 21 -45.5 33.5t-55.5 12.5zM437 370v66h-287v-66h287z
M293 331q-30 0 -55.5 -12.5t-44.5 -33.5t-29.5 -49t-10.5 -59q0 -32 10.5 -60t29.5 -49t44.5 -33t55.5 -12q29 0 55 12t45 33t30 49t11 60q0 31 -11 59t-30 49t-45 33.5t-55 12.5zM609 86q-30 0 -52 26.5t-22 65.5t22 66t52 27t52.5 -27t22.5 -66t-22.5 -65.5t-52.5 -26.5z
M293 86q-30 0 -52.5 26.5t-22.5 65.5t22.5 66t52.5 27t52 -27t22 -66t-22 -65.5t-52 -26.5zM681 502v69h-154v-69h154zM383 502v69h-171v-69h171z" />
    <glyph glyph-name="uni3186" unicode="&#x3186;" horiz-adv-x="900" 
d="M702 566v67h-492v-67h492zM456 463q-51 0 -94.5 -17.5t-74.5 -48.5q-31 -30 -48.5 -72.5t-17.5 -91.5q0 -50 17.5 -92.5t48.5 -72.5q31 -31 74.5 -48t94.5 -17t94 17t75 48q31 30 49 72.5t18 92.5q0 49 -18 91.5t-49 72.5q-32 31 -75 48.5t-94 17.5zM456 69
q-35 0 -64.5 12t-52.5 34q-22 22 -34.5 52t-12.5 66q0 34 12.5 64t34.5 52t52 35t65 13q71 0 117.5 -47t46.5 -117q0 -72 -46.5 -118t-117.5 -46z" />
    <glyph glyph-name="uni3187" unicode="&#x3187;" horiz-adv-x="900" 
d="M861 179v75h-144v158h144v74h-144v253h-80v-892h80v332h144zM615 187q-34 -6 -64.5 -9.5t-69.5 -6.5v287h-76v-288q-3 0 -5.5 -1t-5.5 -1q-2 -1 -4.5 -1.5t-4.5 -0.5q-19 -1 -46.5 -1.5t-63.5 -0.5v294h-76v-295h-134v-69q3 0 38 -0.5t84 0.5q49 0 103.5 1t98.5 3
q56 2 114 7t112 13v69z" />
    <glyph glyph-name="uni3188" unicode="&#x3188;" horiz-adv-x="900" 
d="M792 -153v893h-74v-252h-95v242h-75v-857h75v306h95v-332h74zM527 202q-27 -6 -60 -10t-57 -6v282h-75v-287q-13 0 -24.5 -1t-23.5 -1q-12 -1 -24.5 -1.5t-26.5 -0.5v291h-75v-291h-102v-71l226 1q33 0 68.5 2.5t68.5 6.5q33 3 60.5 7t44.5 7v72zM718 251h-95v164h95
v-164z" />
    <glyph glyph-name="uni3189" unicode="&#x3189;" horiz-adv-x="900" 
d="M764 -153v892h-79v-892h79zM662 188q-36 -6 -70 -9.5t-74 -6.5v287h-77v-292q-17 -1 -33.5 -1.5t-32.5 -0.5q-17 -1 -34.5 -1h-34.5v295h-77v-296h-131v-71q4 0 40.5 -0.5t87.5 0.5q50 0 106 1t100 3q57 2 116.5 8t113.5 13v71z" />
    <glyph glyph-name="uni318A" unicode="&#x318a;" horiz-adv-x="900" 
d="M806 -153v892h-80v-520h-208v-68h208v-73h-208v-68h208v-163h80zM680 384q-41 -11 -91 -14.5t-125 -6.5l-382 -2v-71h111v-380h76v380h114v-380h75v383q4 0 7 -0.5t4 -0.5h2.5h1.5q6 0 11 0.5t10 0.5q38 1 63 2.5t44 3.5q20 2 37.5 4.5t41.5 7.5v73z" />
    <glyph glyph-name="uni318B" unicode="&#x318b;" horiz-adv-x="900" 
d="M816 -153v892h-77v-892h77zM663 -127v857h-75v-475h-158v-68h158v-90h-158v-67h158v-157h75zM541 430q-27 -6 -63 -10t-96 -7q-29 -2 -80.5 -2.5t-102.5 -0.5q-51 -1 -90 -0.5t-43 0.5v-70h100v-430h73v430h20.5h20.5t19.5 0.5t19.5 0.5v-431h73v433h11.5t11.5 1
q21 1 36.5 2t29.5 3q13 2 27 4.5t33 6.5v70z" />
    <glyph glyph-name="uni318C" unicode="&#x318c;" horiz-adv-x="900" 
d="M806 -153v892h-80v-892h80zM700 386q-19 -4 -54 -8t-75 -7q-41 -4 -82.5 -6t-72.5 -2l-324 -1v-72h74l86 -1v-379h77v380h63.5t68.5 1v-381h76v384q54 3 89.5 8t73.5 11v73z" />
    <glyph glyph-name="uni318D" unicode="&#x318d;" horiz-adv-x="900" 
d="M456 363q-27 0 -44.5 -18.5t-17.5 -44.5q0 -27 17.5 -45t44.5 -18q26 0 44 18t18 45q0 26 -18 44.5t-44 18.5z" />
    <glyph glyph-name="uni318E" unicode="&#x318e;" horiz-adv-x="900" 
d="M341 360q-26 0 -42 -17t-16 -43q0 -27 16 -43.5t42 -16.5q24 0 41 16.5t17 43.5q0 26 -17 43t-41 17zM602 -154v893h-73v-893h73z" />
    <glyph glyph-name="uniE1B2" unicode="&#xe1b2;" horiz-adv-x="900" 
 />
    <glyph glyph-name="uniE1B3" unicode="&#xe1b3;" horiz-adv-x="900" 
 />
    <glyph glyph-name="uniE1B4" unicode="&#xe1b4;" horiz-adv-x="900" 
 />
    <glyph glyph-name="uniE1B5" unicode="&#xe1b5;" horiz-adv-x="900" 
 />
    <glyph glyph-name="uniE1B6" unicode="&#xe1b6;" horiz-adv-x="900" 
 />
    <glyph glyph-name="uniE1B7" unicode="&#xe1b7;" horiz-adv-x="900" 
 />
    <glyph glyph-name="uniE1B8" unicode="&#xe1b8;" horiz-adv-x="900" 
 />
    <glyph glyph-name="uniE1B9" unicode="&#xe1b9;" horiz-adv-x="900" 
 />
    <glyph glyph-name="uniE1BA" unicode="&#xe1ba;" horiz-adv-x="900" 
 />
    <glyph glyph-name="uniE1BB" unicode="&#xe1bb;" horiz-adv-x="900" 
 />
    <glyph glyph-name="uniE1BC" unicode="&#xe1bc;" horiz-adv-x="900" 
 />
    <glyph glyph-name="uniE1BD" unicode="&#xe1bd;" horiz-adv-x="900" 
 />
    <glyph glyph-name="uniE1BE" unicode="&#xe1be;" horiz-adv-x="900" 
 />
    <glyph glyph-name="uniE1BF" unicode="&#xe1bf;" horiz-adv-x="900" 
 />
    <glyph glyph-name="uniE1C0" unicode="&#xe1c0;" horiz-adv-x="900" 
 />
    <glyph glyph-name="uniE1C1" unicode="&#xe1c1;" horiz-adv-x="900" 
 />
    <glyph glyph-name="uniE1C2" unicode="&#xe1c2;" horiz-adv-x="900" 
 />
    <glyph glyph-name="uniE1C3" unicode="&#xe1c3;" horiz-adv-x="900" 
 />
    <glyph glyph-name="uniE1C4" unicode="&#xe1c4;" horiz-adv-x="900" 
 />
    <glyph glyph-name="uniE1C5" unicode="&#xe1c5;" horiz-adv-x="900" 
 />
    <glyph glyph-name="uniE1C6" unicode="&#xe1c6;" horiz-adv-x="900" 
 />
    <glyph glyph-name="uniE1C7" unicode="&#xe1c7;" horiz-adv-x="900" 
 />
    <glyph glyph-name="uniE1C8" unicode="&#xe1c8;" horiz-adv-x="900" 
 />
    <glyph glyph-name="uniE1C9" unicode="&#xe1c9;" horiz-adv-x="900" 
 />
    <glyph glyph-name="uniE1CA" unicode="&#xe1ca;" horiz-adv-x="900" 
 />
    <glyph glyph-name="uniE1CB" unicode="&#xe1cb;" horiz-adv-x="900" 
 />
    <glyph glyph-name="uniE1CC" unicode="&#xe1cc;" horiz-adv-x="900" 
 />
    <glyph glyph-name="uniE1CD" unicode="&#xe1cd;" horiz-adv-x="900" 
 />
    <glyph glyph-name="uniE1CE" unicode="&#xe1ce;" horiz-adv-x="900" 
 />
    <glyph glyph-name="uniE1CF" unicode="&#xe1cf;" horiz-adv-x="900" 
 />
    <glyph glyph-name="uniE1D0" unicode="&#xe1d0;" horiz-adv-x="900" 
 />
    <glyph glyph-name="uniE1D1" unicode="&#xe1d1;" horiz-adv-x="900" 
 />
    <glyph glyph-name="uniE1D2" unicode="&#xe1d2;" horiz-adv-x="900" 
 />
    <glyph glyph-name="uniE1D3" unicode="&#xe1d3;" horiz-adv-x="900" 
 />
    <glyph glyph-name="uniE1D4" unicode="&#xe1d4;" horiz-adv-x="900" 
 />
    <glyph glyph-name="uniE1D5" unicode="&#xe1d5;" horiz-adv-x="900" 
 />
    <glyph glyph-name="uniE1D6" unicode="&#xe1d6;" horiz-adv-x="900" 
 />
    <glyph glyph-name="uniE1D7" unicode="&#xe1d7;" horiz-adv-x="900" 
 />
    <glyph glyph-name="uniE1D8" unicode="&#xe1d8;" horiz-adv-x="900" 
 />
    <glyph glyph-name="uniE1D9" unicode="&#xe1d9;" horiz-adv-x="900" 
 />
    <glyph glyph-name="uniE1DA" unicode="&#xe1da;" horiz-adv-x="900" 
 />
    </font>
</defs>
</svg>
